<?xml version="1.0" standalone="no"?>
<!DOCTYPE svg PUBLIC "-//W3C//DTD SVG 1.1//EN" "http://www.w3.org/Graphics/SVG/1.1/DTD/svg11.dtd" >
<svg xmlns="http://www.w3.org/2000/svg" xmlns:xlink="http://www.w3.org/1999/xlink" version="1.1">
<metadata>
Created by FontForge 20170731 at Mon Sep 26 21:14:30 2011
 By Aleksey,,,
Copyright (c) 2009 by artmaker. All rights reserved.
</metadata>
<defs>
<font id="VDS" horiz-adv-x="499" >
  <font-face 
    font-family="VDS"
    font-weight="400"
    font-stretch="normal"
    units-per-em="1000"
    panose-1="0 0 5 6 0 0 0 2 0 4"
    ascent="800"
    descent="-200"
    x-height="550"
    cap-height="725"
    bbox="-182 -209 1013 936"
    underline-thickness="50"
    underline-position="-150"
    unicode-range="U+0020-FB06"
  />
<missing-glyph horiz-adv-x="500" 
d="M477 195v-11q-5 -45 -18.5 -73t-39.5 -52l-6 -6q-29 -24 -66.5 -38t-77.5 -14h-24q-20 0 -45.5 2t-46.5 7v-69q0 -20 -13.5 -33.5t-32.5 -13.5q-20 0 -34 13t-14 33v518v147q0 20 14 33t34 13q19 0 32.5 -13.5t13.5 -33.5v-58q21 5 46 7.5t46 2.5h24q38 0 74 -12.5
t63 -34.5q2 -2 3 -2l10 -9q32 -29 42.5 -61t15.5 -63v-12v-167zM383 362q0 38 -25.5 66t-98.5 34q-44 0 -70.5 -4.5t-35.5 -6.5v-345q21 -6 50.5 -8.5t52.5 -2.5q22 0 43 5t38 15t31 27.5t15 45.5v174z" />
    <glyph glyph-name=".notdef" horiz-adv-x="500" 
d="M477 195v-11q-5 -45 -18.5 -73t-39.5 -52l-6 -6q-29 -24 -66.5 -38t-77.5 -14h-24q-20 0 -45.5 2t-46.5 7v-69q0 -20 -13.5 -33.5t-32.5 -13.5q-20 0 -34 13t-14 33v518v147q0 20 14 33t34 13q19 0 32.5 -13.5t13.5 -33.5v-58q21 5 46 7.5t46 2.5h24q38 0 74 -12.5
t63 -34.5q2 -2 3 -2l10 -9q32 -29 42.5 -61t15.5 -63v-12v-167zM383 362q0 38 -25.5 66t-98.5 34q-44 0 -70.5 -4.5t-35.5 -6.5v-345q21 -6 50.5 -8.5t52.5 -2.5q22 0 43 5t38 15t31 27.5t15 45.5v174z" />
    <glyph glyph-name=".null" horiz-adv-x="0" 
 />
    <glyph glyph-name="nonmarkingreturn" horiz-adv-x="500" 
 />
    <glyph glyph-name="space" unicode=" " horiz-adv-x="322" 
 />
    <glyph glyph-name="exclam" unicode="!" horiz-adv-x="220" 
d="M156 220q0 -19 -13.5 -33t-33.5 -14t-34 14t-14 33v460q0 20 14 33.5t34 13.5t33.5 -13.5t13.5 -33.5v-460zM109 95q20 0 33.5 -14t13.5 -34q0 -19 -13.5 -33t-33.5 -14t-34 14t-14 33q0 20 14 34t34 14z" />
    <glyph glyph-name="quotedbl" unicode="&#x22;" horiz-adv-x="321" 
d="M54 695q3 16 15.5 25t28.5 9h6.5t6.5 -1q16 -5 25.5 -17.5t9.5 -28.5q0 -3 -0.5 -5.5t-1.5 -6.5l-20 -77q-5 -17 -17.5 -26t-27.5 -9h-6.5t-6.5 2q-16 4 -25.5 16.5t-9.5 28.5q0 4 0.5 6l1.5 6zM194 695q4 16 16.5 25t28.5 9h6.5t6.5 -1q16 -5 25.5 -17.5t9.5 -28.5
q0 -3 -0.5 -5.5t-1.5 -6.5l-21 -77q-4 -17 -16.5 -26t-28.5 -9h-6t-6 2q-16 4 -25.5 16.5t-9.5 28.5q0 4 0.5 6t0.5 6z" />
    <glyph glyph-name="numbersign" unicode="#" horiz-adv-x="700" 
d="M141 332q-20 0 -34 14t-14 33q0 20 14 33.5t34 13.5h91l23 87q5 20 23 34t37 13q20 0 29.5 -14t4.5 -34l-23 -86h117l24 88q5 20 23 34t37 13q20 0 29.5 -14t4.5 -34l-23 -87h69q20 0 33.5 -13.5t13.5 -33.5q0 -19 -13.5 -33t-33.5 -14h-94l-28 -103h75q20 0 33.5 -13.5
t13.5 -33.5q0 -19 -13.5 -33t-33.5 -14h-100l-23 -88q-6 -20 -23 -33.5t-37 -13.5q-19 1 -29.5 14.5t-4.5 33.5l23 87h-118l-23 -89q-6 -20 -23 -33.5t-37 -13.5q-19 1 -29.5 14.5t-4.5 33.5l23 88h-60q-20 0 -34 14t-14 33q0 20 14 33.5t34 13.5h85l28 103h-66zM273 229
h118l27 103h-117z" />
    <glyph glyph-name="dollar" unicode="$" horiz-adv-x="502" 
d="M203 716q0 20 13.5 33.5t33.5 13.5q19 0 32.5 -13.5t13.5 -33.5v-3q9 -2 19 -5q33 -11 60.5 -30.5t48 -46t31.5 -58.5q2 -8 2 -15q0 -18 -12.5 -32.5t-33.5 -14.5q-16 0 -28 9t-17 24q-7 18 -19.5 33.5t-29.5 25.5q-10 7 -21 11v-233q1 0 2 -1q29 -21 57.5 -43t51 -46.5
t36.5 -52.5t14 -61q0 -41 -17.5 -74.5t-46.5 -57.5t-67 -37q-15 -6 -30 -9v-4q0 -19 -13.5 -33t-32.5 -14q-20 0 -33.5 14t-13.5 33v4q-11 3 -21 6q-33 11 -60.5 30.5t-48.5 46.5t-31 58q-3 7 -3 15q0 18 13 32.5t34 14.5q14 0 27 -9t18 -23q6 -18 18 -32.5t27 -25.5
q12 -9 27 -15v236l-46 34q-32 23 -58.5 48.5t-42.5 56t-16 69.5q0 41 18.5 74t48.5 56t67 35q14 5 29 8v2zM323 110q18 10 29.5 26t11.5 37t-14.5 40.5t-36.5 38.5q-8 7 -17 14v-169q14 5 27 13zM171 601q-16 -11 -27 -26.5t-11 -33.5q0 -19 15.5 -38.5t39.5 -40.5
q7 -7 15 -13v168q-18 -6 -32 -16z" />
    <glyph glyph-name="percent" unicode="%" horiz-adv-x="721" 
d="M526 324q33 0 62.5 -12.5t51.5 -34.5t34.5 -51t12.5 -63t-12.5 -63t-34.5 -50.5t-51.5 -34t-62.5 -12.5q-32 0 -61.5 12t-51.5 34t-35 51t-13 63t13 63t35 51t51.5 34.5t61.5 12.5zM202 728q33 0 62 -12.5t51 -34t34.5 -51t12.5 -62.5q0 -34 -12.5 -63t-34 -51t-51 -34.5
t-62.5 -12.5q-34 0 -63.5 12.5t-50.5 34.5t-34 51t-13 63q0 33 13 62.5t34.5 51t50.5 34t63 12.5zM483 702q6 12 17.5 18.5t24.5 6.5q21 0 34 -14.5t13 -32.5q0 -12 -5 -21l-325 -633q-6 -11 -17 -18t-25 -7q-21 0 -34 15t-13 33q0 11 5 21zM526 230q-14 0 -25.5 -5.5
t-21 -14.5t-14.5 -21.5t-5 -25.5q0 -14 5 -26t14.5 -21t21 -14.5t25.5 -5.5t26 5.5t21 14.5t14.5 21t5.5 26q0 13 -5.5 25.5t-14.5 21.5t-21 14.5t-26 5.5zM202 634q-14 0 -26 -5t-21 -14.5t-14.5 -21.5t-5.5 -25q0 -29 20 -48t48 -19q13 0 25 5.5t21 14.5t14 21t5 26
q0 13 -5 25t-14.5 21.5t-21.5 14.5t-25 5z" />
    <glyph glyph-name="ampersand" unicode="&#x26;" horiz-adv-x="580" 
d="M462 344v-131q0 -46 -16 -85t-44.5 -67.5t-67 -44.5t-83.5 -16q-50 0 -88.5 17.5t-65.5 47.5t-41 70t-14 85q0 54 18.5 97.5t54.5 72.5q-31 25 -51 64.5t-20 81.5q0 43 17.5 78.5t46.5 60.5t66.5 38.5t77.5 13.5q14 0 32 -1.5t31 -15.5t13 -34q-1 -19 -15.5 -33
t-33.5 -13q-11 2 -27 2q-21 0 -41.5 -6.5t-36.5 -19t-26 -30.5t-10 -42q0 -23 9 -39.5t23.5 -28.5t33.5 -18.5t40 -8.5h123v21q0 20 14.5 33.5t33.5 13.5q20 0 33.5 -13.5t13.5 -33.5v-21h58q19 0 33 -14t14 -34q0 -19 -14 -33t-33 -14h-58zM199 333q-18 -9 -32 -24.5
t-22.5 -38t-8.5 -50.5q0 -54 29.5 -89.5t86.5 -35.5q51 0 83 33t32 88v128h-129q-20 -2 -39 -11z" />
    <glyph glyph-name="quotesingle" unicode="'" horiz-adv-x="172" 
d="M39 676q0 20 13.5 33.5t32.5 13.5q20 0 34 -13.5t14 -33.5v-72q0 -20 -13 -33.5t-32 -13.5q-21 0 -35 13.5t-14 33.5v72z" />
    <glyph glyph-name="parenleft" unicode="(" horiz-adv-x="362" 
d="M153 100q0 -22 9 -40t24 -31q16 -14 37.5 -21.5t44.5 -7.5q20 0 33.5 -13.5t13.5 -33.5q0 -19 -13.5 -33t-33.5 -14q-40 0 -77 13.5t-66 37.5q-30 26 -48 62t-18 81v516q0 44 18 79.5t48 61.5q29 24 66 37.5t77 13.5q20 0 33.5 -14t13.5 -33q0 -20 -13.5 -33.5
t-33.5 -13.5q-23 0 -44.5 -7.5t-37.5 -21.5q-15 -13 -24 -31t-9 -40v-514z" />
    <glyph glyph-name="parenright" unicode=")" horiz-adv-x="359" 
d="M202 615q0 22 -9 40t-24 31q-16 14 -37.5 21.5t-44.5 7.5q-19 0 -33 13.5t-14 33.5q0 19 14 33t34 14q40 0 76.5 -13.5t66.5 -37.5q29 -26 47.5 -61.5t18.5 -79.5v-516q0 -45 -18 -81t-48 -62q-30 -24 -66.5 -37.5t-76.5 -13.5q-20 0 -34 14t-14 33q0 20 14 33.5t33 13.5
q23 0 44.5 7.5t37.5 21.5q15 13 24 31t9 40v514z" />
    <glyph glyph-name="asterisk" unicode="*" horiz-adv-x="300" 
d="M123 696q0 14 7.5 21t18.5 7q10 0 18 -7t8 -21v-13l9 10q10 9 21 9q10 0 18 -8q3 -4 5.5 -8.5t2.5 -10.5q0 -11 -9 -20l-10 -9h14q14 0 21 -8t7 -18q0 -11 -7 -19t-21 -8h-14l10 -9q9 -9 9 -20q0 -10 -8 -18q-4 -4 -8.5 -6t-9.5 -2q-11 0 -21 9l-9 9v-13q0 -14 -8 -21
t-18 -7q-11 0 -18.5 7t-7.5 21v13l-9 -9q-10 -9 -21 -9q-5 0 -9.5 2t-8.5 6q-7 8 -7 18q0 11 8 20l10 9h-14q-14 0 -21 8t-7 19q0 10 7 18t21 8h14l-10 9q-8 9 -8 20q0 6 2 10.5t5 8.5q9 8 18 8q11 0 21 -9l9 -10v13z" />
    <glyph glyph-name="plus" unicode="+" horiz-adv-x="539" 
d="M316 140q0 -20 -14 -34t-34 -14q-19 0 -33 14t-14 34v114h-115q-20 0 -34 14t-14 33q0 20 14 33.5t34 13.5h115v116q0 20 14 33.5t33 13.5q20 0 34 -13.5t14 -33.5v-116h115q19 0 33 -13.5t14 -33.5q0 -19 -14 -33t-33 -14h-115v-114z" />
    <glyph glyph-name="comma" unicode="," horiz-adv-x="197" 
d="M66 51q4 16 16.5 25t28.5 9h6.5t6.5 -1q16 -4 25.5 -16.5t9.5 -29.5q0 -3 -0.5 -5.5t-1.5 -5.5l-21 -78q-4 -16 -16.5 -25t-27.5 -9h-7t-6 1q-16 4 -25.5 16.5t-9.5 28.5q0 4 0.5 6.5t0.5 5.5z" />
    <glyph glyph-name="hyphen" unicode="-" horiz-adv-x="540" 
d="M107 236q-20 0 -34 14t-14 33q0 20 14 33.5t34 13.5h325q19 0 33 -13.5t14 -33.5q0 -19 -14 -33t-33 -14h-325z" />
    <glyph glyph-name="period" unicode="." horiz-adv-x="180" 
d="M90 3q-19 0 -33 14t-14 33q0 20 14 33.5t33 13.5q20 0 34 -13.5t14 -33.5q0 -19 -14 -33t-34 -14z" />
    <glyph glyph-name="slash" unicode="/" 
d="M130 27q-6 -12 -17.5 -19t-24.5 -7q-21 0 -34 15t-13 32q0 11 5 21l318 633q6 12 17.5 19t24.5 7q22 0 34.5 -14.5t12.5 -32.5q0 -11 -5 -21z" />
    <glyph glyph-name="zero" unicode="0" horiz-adv-x="540" 
d="M59 516q0 44 15 82t43 66.5t66.5 44.5t85.5 16q42 0 80.5 -16.5t66.5 -44.5t44.5 -66.5t16.5 -82.5v-305q0 -43 -16.5 -80.5t-44.5 -66t-66.5 -45t-80.5 -16.5t-80.5 16.5t-67 44t-45.5 64.5t-17 77v312zM153 208q0 -23 9.5 -43.5t25.5 -35.5t36.5 -24t43.5 -9t43.5 9.5
t36.5 24.5t25.5 35.5t9.5 43.5v307q0 24 -9 45.5t-24.5 37.5t-36.5 25t-45 9t-45 -9t-36.5 -25.5t-24.5 -37.5t-9 -45v-308z" />
    <glyph glyph-name="one" unicode="1" horiz-adv-x="259" 
d="M198 47q0 -20 -13.5 -33.5t-33.5 -13.5q-19 0 -33 13.5t-14 33.5v489q-13 -15 -34 -15q-8 0 -15.5 2t-13.5 7q-10 7 -14.5 16.5t-4.5 21.5q0 16 9 28l81 109q6 10 16.5 15.5t22.5 5.5q20 0 33.5 -13.5t13.5 -32.5v-633z" />
    <glyph glyph-name="two" unicode="2" horiz-adv-x="502" 
d="M411 97q20 0 34 -14t14 -34q0 -19 -14 -33t-34 -14h-262q-28 0 -48 9t-33 23.5t-19.5 33t-6.5 36.5q0 20 6.5 39.5t18.5 33.5q14 19 42 45t61 56.5t67.5 63.5t63 63.5t46 57t17.5 44.5q0 29 -8.5 52.5t-23.5 40t-35.5 25.5t-44.5 9q-52 -1 -79 -21t-40 -57
q-5 -15 -18 -23.5t-27 -8.5q-21 0 -33.5 14.5t-12.5 32.5q0 7 2 15q12 35 33 61.5t47.5 44t58.5 26.5t66 9q43 0 81 -15.5t66.5 -44.5t45.5 -69.5t17 -90.5q0 -31 -18.5 -65.5t-47.5 -70t-65 -71t-71.5 -68t-67 -62t-50.5 -52.5q-4 -6 -4 -11q0 -10 14 -10h262z" />
    <glyph glyph-name="three" unicode="3" horiz-adv-x="501" 
d="M144 556q-5 -15 -17 -23.5t-28 -8.5q-8 0 -15 2q-14 6 -23 17.5t-9 26.5q0 4 1 8l2 8q7 20 14.5 34.5t19.5 30.5q30 37 72 56.5t91 19.5q40 0 77.5 -13.5t66.5 -38.5t46.5 -60.5t17.5 -78.5q0 -42 -20 -81.5t-51 -64.5q36 -29 54.5 -73t18.5 -97q0 -45 -14 -85.5t-41 -70
t-66 -47t-88 -17.5q-45 0 -83.5 16t-66.5 44.5t-44.5 67.5t-16.5 85v3q0 20 14 33.5t33 13.5q21 0 34.5 -13.5t13.5 -33.5q0 -27 8.5 -49.5t23.5 -38.5t36 -24.5t47 -8.5q28 0 50 9.5t36.5 26t22 39.5t7.5 50t-8.5 50t-23 39.5t-35.5 25.5t-45 9h-4q-21 1 -34 15t-13 33
q0 20 13.5 33.5t33.5 13.5q21 0 42 6t36.5 18.5t25.5 30t10 40.5q0 24 -10 42t-26 30.5t-36.5 19t-41.5 6.5q-39 0 -67.5 -21t-40.5 -55z" />
    <glyph glyph-name="four" unicode="4" horiz-adv-x="542" 
d="M383 296q-2 0 -3 -1q-29 -6 -59.5 -7t-53.5 -1q-40 0 -77 13.5t-66 38.5q-30 25 -48 60.5t-18 79.5v189q0 20 14 33.5t33 13.5q20 0 33.5 -13.5t13.5 -33.5v-187q0 -22 9 -40t24 -31q16 -14 37.5 -21t44.5 -7q20 0 45.5 0.5t47.5 5.5q9 2 15 2.5t8 0.5v280q0 20 14 33.5
t33 13.5q20 0 33.5 -13.5t13.5 -33.5v-624q0 -20 -13.5 -33.5t-33.5 -13.5q-19 0 -33 13.5t-14 33.5v249z" />
    <glyph glyph-name="five" unicode="5" horiz-adv-x="520" 
d="M385 307q-1 13 -4 25.5t-8 24.5q-14 29 -42 47.5t-62 18.5q-37 0 -63.5 -21t-42.5 -55l-14 -31q-5 -13 -16.5 -20t-25.5 -7q-11 0 -20 4q-13 7 -20 18.5t-7 24.5v344q0 20 14 33t33 13h272q20 0 34 -13.5t14 -32.5q0 -20 -14 -34t-34 -14h-225v-150q52 36 115 36
q43 0 81.5 -17t67 -46.5t44.5 -67t16 -79.5v-96q0 -44 -16.5 -82t-45 -66.5t-66.5 -45t-81 -16.5q-26 0 -50.5 5.5t-47.5 18.5q-32 18 -57 46.5t-39 65.5q-3 8 -3 17q0 14 8 26.5t23 17.5q7 3 16 3q14 0 26.5 -8t17.5 -22q14 -36 41.5 -56t64.5 -20q24 0 45 9.5t36.5 25
t25 36.5t9.5 45v95z" />
    <glyph glyph-name="six" unicode="6" horiz-adv-x="501" 
d="M371 214v91q0 23 -9 44t-24.5 37t-36 25.5t-44.5 9.5q-18 0 -37 -5t-34.5 -14.5t-25.5 -23.5t-10 -32v-126q0 -26 7 -49t20.5 -39.5t34 -26.5t48.5 -10q24 0 44.5 9t35 25.5t23 38t8.5 46.5zM465 214q0 -43 -15 -82t-43 -68.5t-66.5 -46.5t-85.5 -17q-46 0 -82.5 18
t-62 48t-38.5 70t-13 84v314q0 43 17 78.5t45.5 60.5t66 39t78.5 14q33 0 64 -9.5t57 -28t45.5 -44.5t30.5 -59q1 -3 1.5 -7.5t0.5 -7.5q0 -18 -13.5 -32.5t-33.5 -14.5q-15 0 -27 8.5t-17 24.5q-12 37 -41.5 56.5t-66.5 19.5q-22 0 -42 -6.5t-36.5 -19t-26 -31.5t-9.5 -42
v-46q28 15 53 22t52 7q43 0 81 -17t66.5 -46t44.5 -66.5t16 -79.5v-93z" />
    <glyph glyph-name="seven" unicode="7" horiz-adv-x="463" 
d="M66 631q-20 0 -34 14t-14 34q0 19 14 33t34 14h323q18 0 32.5 -11.5t14.5 -29.5q0 -9 -2.5 -17t-4.5 -14l-316 -627q-6 -12 -18 -19t-25 -7t-21.5 3.5t-14.5 8.5q-5 6 -7 13t-2 14q0 10 2 14q0 2 13 28t33 66.5t45.5 91.5t52 104.5t51.5 104.5t45 91l32.5 65t12.5 26
h-246z" />
    <glyph glyph-name="eight" unicode="8" horiz-adv-x="500" 
d="M250 99q32 0 54.5 9.5t36 26t19.5 39.5t6 50q0 25 -7.5 47.5t-22.5 39.5t-36.5 27t-49.5 10q-26 0 -47.5 -10t-36.5 -27t-23.5 -39.5t-8.5 -47.5q0 -27 7 -50t22 -39.5t36.5 -26t50.5 -9.5zM250 4q-49 0 -88 17.5t-66 46.5t-41.5 69.5t-14.5 86.5q0 56 20.5 101t59.5 75
q-27 26 -42 61t-15 77q0 39 14 74.5t39 61.5t59 41.5t75 15.5t75 -15.5t59 -41.5t39 -61t14 -75q0 -42 -15 -77t-42 -61q40 -30 60 -74.5t20 -101.5q0 -46 -14.5 -86.5t-41.5 -69.5t-66 -46.5t-88 -17.5zM250 443q21 0 38 7.5t29 20t18.5 29.5t6.5 38q0 19 -6.5 37.5
t-18.5 31.5t-29 21t-38 8q-20 0 -37.5 -8t-29.5 -21t-19 -31.5t-7 -37.5q0 -21 7 -38t19 -29.5t29.5 -20t37.5 -7.5z" />
    <glyph glyph-name="nine" unicode="9" horiz-adv-x="509" 
d="M135 515v-91q0 -23 9 -44t24.5 -37.5t36 -25.5t44.5 -9q18 0 37 5t34.5 14.5t25 23.5t9.5 31v127q0 26 -6.5 49t-20 39.5t-34.5 26.5t-49 10q-23 0 -43.5 -9t-35 -25.5t-23 -38t-8.5 -46.5zM40 515q0 43 15.5 82t43.5 68.5t66.5 46.5t84.5 17q47 0 83.5 -18t61.5 -48
t38.5 -70t13.5 -84v-314q0 -44 -17 -79t-46 -60.5t-66.5 -39.5t-77.5 -14q-34 0 -64.5 10t-56.5 28t-45.5 44.5t-30.5 59.5q-1 3 -2 7.5t-1 7.5q0 18 14 32.5t34 14.5q15 0 27 -8.5t17 -24.5q12 -37 41.5 -56.5t66.5 -19.5q21 0 41.5 6.5t36.5 19t26 31t10 42.5v46
q-28 -15 -53.5 -22t-51.5 -7q-43 0 -81 17t-66.5 46t-45 66.5t-16.5 79.5v93z" />
    <glyph glyph-name="colon" unicode=":" horiz-adv-x="177" 
d="M87 1q-20 0 -33.5 14t-13.5 33q0 20 13.5 33.5t33.5 13.5t34 -13.5t14 -33.5q0 -19 -14 -33t-34 -14zM87 470q-20 0 -33.5 14t-13.5 33q0 20 13.5 33.5t33.5 13.5t34 -13.5t14 -33.5q0 -19 -14 -33t-34 -14z" />
    <glyph glyph-name="semicolon" unicode=";" horiz-adv-x="180" 
d="M88 471q-20 0 -33.5 13.5t-13.5 33.5t13.5 33.5t33.5 13.5t34 -13.5t14 -33.5t-14 -33.5t-34 -13.5zM45 65q4 16 16.5 25t28.5 9h6t7 -1q16 -4 25.5 -16.5t9.5 -29.5q0 -3 -0.5 -5.5t-1.5 -5.5l-21 -78q-4 -16 -16.5 -25t-28.5 -9h-6t-6 1q-16 4 -25.5 16.5t-9.5 28.5
q0 4 0.5 6.5t0.5 5.5z" />
    <glyph glyph-name="less" unicode="&#x3c;" horiz-adv-x="430" 
d="M40 275v8q0 23 18 38l254 202q11 10 29 10q19 0 33.5 -13t14.5 -33q0 -25 -18 -38l-211 -168l211 -168q18 -15 18 -38q0 -20 -14.5 -33t-33.5 -13q-18 0 -29 10l-254 202q-16 13 -18 34z" />
    <glyph glyph-name="equal" unicode="=" horiz-adv-x="540" 
d="M105 120q-20 0 -34 14t-14 33q0 20 14 33.5t34 13.5h325q19 0 33 -13.5t14 -33.5q0 -19 -14 -33t-33 -14h-325zM105 284q-20 0 -34 14t-14 34q0 19 14 33t34 14h325q19 0 33 -14t14 -33q0 -20 -14 -34t-33 -14h-325z" />
    <glyph glyph-name="greater" unicode="&#x3e;" horiz-adv-x="440" 
d="M397 275q-2 -21 -18 -34l-254 -202q-11 -10 -29 -10q-19 0 -33.5 13t-14.5 33q0 23 18 38l211 168l-211 168q-18 13 -18 38q0 20 14.5 33t33.5 13q18 0 29 -10l254 -202q18 -15 18 -38v-8v0z" />
    <glyph glyph-name="question" unicode="?" 
d="M249 95q20 0 33.5 -13.5t13.5 -32.5q0 -20 -13.5 -34t-33.5 -14t-34 14t-14 34q0 19 14 32.5t34 13.5zM297 222q0 -19 -13 -33t-34 -14q-19 0 -32.5 12t-15.5 30l-1 10q0 20 7 38.5t19 34.5q18 24 41.5 48.5t44.5 50t35.5 52.5t14.5 57q0 26 -7.5 49t-21.5 40.5t-35 27.5
t-47 10q-87 0 -120 -78q-6 -15 -17.5 -23.5t-26.5 -8.5q-4 0 -8 0.5t-7 1.5q-15 5 -24 18t-9 28q0 6 2 14q12 34 32.5 60.5t47.5 44t59 27t67 9.5q45 0 83.5 -16.5t66.5 -46t44 -69.5t16 -86q0 -43 -15.5 -79.5t-38.5 -68.5t-51 -62t-53 -60q-3 -6 -3 -14v-4z" />
    <glyph glyph-name="at" unicode="@" horiz-adv-x="800" 
d="M328 320q0 -12 5.5 -21.5t14 -16t19.5 -10t23 -3.5q16 0 32 4t30 10v166v3.5t-4 3.5q-13 3 -29 3.5t-29 0.5q-11 0 -22.5 -3.5t-20 -10t-14 -16t-5.5 -22.5v-88zM128 361q0 -60 23.5 -110t63 -86t91.5 -56.5t109 -20.5q13 0 27.5 4.5t29 10t29 10t26.5 4.5t22 -6t16 -20
q2 -4 2.5 -8.5t0.5 -8.5q0 -14 -7 -25t-19 -17q-34 -14 -69 -21.5t-75 -7.5q-74 0 -139.5 28.5t-114 77t-77 114t-28.5 139.5t28.5 139.5t77 114t114 77t139.5 28.5q82 0 156 -35q48 -23 86 -59.5t64.5 -80t40 -91.5t13.5 -94q0 -31 -7 -62t-23 -57q-20 -33 -52.5 -49
t-69.5 -16q-19 0 -32.5 2.5t-24.5 7t-20.5 11.5t-19.5 15q-24 -15 -55.5 -24t-60.5 -9h-3q-29 0 -56.5 10.5t-48.5 29t-33 44t-12 56.5v88q0 31 12 56.5t33 44.5t48.5 29.5t56.5 10.5q21 0 47.5 -1.5t49.5 -10t38 -25t15 -46.5v-135q0 -13 6 -25t15 -20.5t21 -14t24 -5.5
q20 0 32.5 10t19 24.5t9 30.5t2.5 30q0 39 -10.5 75.5t-30.5 69t-48.5 58.5t-64.5 42q-55 27 -117 27q-56 0 -105 -21.5t-85.5 -58.5t-58 -86.5t-21.5 -104.5v-1z" />
    <glyph glyph-name="A" unicode="A" horiz-adv-x="503" 
d="M459 61q1 -3 1.5 -6t0.5 -6q0 -18 -13 -32.5t-34 -14.5q-15 0 -28.5 10t-17.5 26l-49 192h-134l-49 -192q-4 -16 -17 -26t-29 -10q-21 0 -34 14.5t-13 32.5v5.5t2 6.5l161 630q5 15 18 25t29 10q15 0 27.5 -10.5t16.5 -24.5zM295 324l-44 167l-42 -167h86z" />
    <glyph glyph-name="B" unicode="B" horiz-adv-x="514" 
d="M404 396q33 -26 53 -63t20 -85v-52q0 -44 -17.5 -80t-46.5 -61.5t-67 -39t-77 -13.5q-30 0 -66.5 2.5t-68 12t-53.5 30.5t-22 58v518q0 24 10.5 41.5t27 29t38 18.5t44.5 10.5t46.5 4t43.5 0.5q40 0 77.5 -14t66.5 -39t46.5 -61t17.5 -80q0 -17 -5 -36.5t-14 -38.5
t-23 -35t-31 -27zM269 348h-116v-242q0 -1 13 -3t31.5 -3t38 -2.5t33.5 -1.5q22 0 42.5 7t36.5 20t25.5 31.5t9.5 41.5v52q0 23 -9.5 41.5t-25.5 31.5t-36.5 20t-42.5 7zM269 442h2q20 0 40 7t35.5 19t26 29t10.5 36q0 27 -11.5 46t-29.5 31t-41 17.5t-46 5.5
q-25 0 -52 -2.5t-50 -7.5v-181h116z" />
    <glyph glyph-name="C" unicode="C" horiz-adv-x="464" 
d="M355 133q14 15 35 15t33.5 -14.5t12.5 -33.5q0 -17 -11 -29q-30 -34 -70 -52.5t-86 -18.5q-44 0 -81.5 16.5t-66 45t-45 66t-16.5 80.5v309q0 43 16.5 81t45 66t66 44.5t81.5 16.5q54 0 90 -18.5t66 -52.5q12 -13 12 -30q0 -18 -13.5 -32.5t-33.5 -14.5q-16 0 -26.5 8.5
t-22.5 19t-28.5 18.5t-43.5 8q-23 0 -43.5 -8t-36.5 -23.5t-25.5 -36t-9.5 -46.5v-309q0 -20 7.5 -40t22.5 -36.5t36 -27t49 -10.5t51 13t35 26z" />
    <glyph glyph-name="D" unicode="D" horiz-adv-x="522" 
d="M153 106q0 -2 12.5 -3.5t30 -3t37.5 -2.5t36 -1q21 0 41.5 7t36.5 20t26 31.5t10 41.5v337q0 26 -11 45t-29 31t-41 18t-47 6q-13 0 -28 -1t-29 -2.5t-26 -3.5t-19 -3v-517zM59 621q0 26 10.5 44t28 30t39.5 18t45.5 9.5t46 4t40.5 0.5q40 0 78 -14t66.5 -39.5t46 -61
t17.5 -79.5v-337q0 -45 -18 -80.5t-47 -61t-66.5 -39t-76.5 -13.5q-31 0 -68 2t-68.5 12t-52.5 31t-21 59v515z" />
    <glyph glyph-name="E" unicode="E" horiz-adv-x="503" 
d="M430 724q20 0 33.5 -13.5t13.5 -33.5t-13.5 -33.5t-33.5 -13.5h-115.5t-78 -0.5t-47.5 -0.5t-24.5 -0.5t-9 -0.5t-1.5 -1v-188h196q19 0 33 -14t14 -33q0 -20 -14 -33.5t-33 -13.5h-196v-247q0 -2 2.5 -3.5t11.5 -1.5h262q20 0 33.5 -13.5t13.5 -33.5t-13.5 -33.5
t-33.5 -13.5h-262q-37 0 -58.5 7.5t-32.5 20.5t-14 31.5t-3 39.5v530q0 21 3.5 38.5t14.5 30.5t32.5 20t57.5 7h262z" />
    <glyph glyph-name="F" unicode="F" horiz-adv-x="502" 
d="M431 727q19 0 33 -14t14 -33q0 -20 -14 -33.5t-33 -13.5h-262q-10 0 -12.5 -1t-2.5 -2v-189h196q20 0 33.5 -13.5t13.5 -33.5t-13.5 -33.5t-33.5 -13.5h-196v-298q0 -20 -13.5 -33.5t-33.5 -13.5q-19 0 -33 13.5t-14 33.5v582q0 21 3.5 38.5t15 30.5t32.5 20t58 7h262z
" />
    <glyph glyph-name="G" unicode="G" horiz-adv-x="539" 
d="M467 650q11 -13 11 -30q0 -21 -16 -35q-13 -12 -31 -12q-22 0 -36 16q-6 7 -16 14.5t-24.5 13.5t-35 10t-47.5 4h-3q-23 0 -43 -7t-36 -20t-26 -31.5t-10 -41.5v-337q0 -11 7 -28t21.5 -33t35.5 -27.5t51 -11.5t60 2.5t55 7.5v240h-115q-20 0 -33.5 14t-13.5 33
q0 20 13.5 33.5t33.5 13.5h162q20 0 33.5 -13.5t13.5 -33.5v-287q0 -35 -20.5 -56t-51 -31.5t-64.5 -13.5t-61 -3h-12q-46 0 -84 17t-66 45t-43.5 62.5t-15.5 69.5v337q0 44 17.5 79.5t46 60.5t66.5 39t79 14q42 0 74.5 -6t56 -16.5t40 -24t27.5 -27.5z" />
    <glyph glyph-name="H" unicode="H" horiz-adv-x="541" 
d="M61 677q0 19 13.5 33t32.5 14q20 0 33.5 -14t13.5 -33v-239h229v239q0 19 13.5 33t32.5 14q20 0 33.5 -14t13.5 -33v-630q0 -20 -13.5 -33.5t-33.5 -13.5q-19 0 -32.5 13.5t-13.5 33.5v297h-229v-297q0 -20 -13.5 -33.5t-33.5 -13.5q-19 0 -32.5 13.5t-13.5 33.5v630z
" />
    <glyph glyph-name="I" unicode="I" horiz-adv-x="215" 
d="M59 678q0 19 14 33t33 14q20 0 33.5 -14t13.5 -33v-630q0 -20 -13.5 -33.5t-33.5 -13.5q-19 0 -33 13.5t-14 33.5v630z" />
    <glyph glyph-name="J" unicode="J" horiz-adv-x="481" 
d="M51 631q-20 0 -33.5 13.5t-13.5 33.5t13.5 33.5t33.5 13.5h261q36 0 57.5 -7t33 -19.5t15 -30.5t3.5 -39v-421q0 -43 -16.5 -80.5t-45 -66t-66.5 -45t-81 -16.5q-32 0 -59 10t-48 22.5t-34 24t-16 15.5q-11 13 -11 29q0 22 18 38q12 9 29 9q22 0 35 -15q20 -20 41 -29.5
t45 -9.5q23 0 44 9t37 25t25 36.5t9 43.5v138h-196q-19 0 -33 13.5t-14 33.5q0 19 14 33t33 14h195v189q0 2 -2.5 2h-6.5h-266z" />
    <glyph glyph-name="K" unicode="K" horiz-adv-x="522" 
d="M162 47q0 -21 -13.5 -34.5t-33.5 -13.5t-34 13.5t-14 34.5v630q0 19 14 32.5t34 13.5t33.5 -13.5t13.5 -32.5v-242h85l151 265q6 12 17.5 18t22.5 6q13 0 24 -6t17.5 -17.5t6.5 -23.5t-6 -24l-131 -230q29 -10 54 -27t43.5 -40.5t28.5 -52t10 -60.5v-196
q0 -20 -13.5 -33.5t-33.5 -13.5q-19 0 -32.5 13.5t-13.5 33.5v195q0 23 -10 41.5t-26 31t-36.5 19.5t-42.5 7h-115v-294z" />
    <glyph glyph-name="L" unicode="L" horiz-adv-x="501" 
d="M431 94q20 0 33.5 -13.5t13.5 -32.5q0 -21 -13.5 -34.5t-33.5 -13.5h-262q-38 0 -59 7.5t-32.5 20.5t-14 31.5t-2.5 39.5v579q0 20 13.5 33.5t33.5 13.5q19 0 32.5 -13.5t13.5 -33.5v-579q0 -2 2.5 -3.5t12.5 -1.5h262z" />
    <glyph glyph-name="M" unicode="M" horiz-adv-x="540" 
d="M154 49q0 -20 -13.5 -33.5t-33.5 -13.5q-19 0 -33 13.5t-14 33.5v630q0 19 14 33t33 14q16 0 28 -9t17 -23l114 -249l121 254q6 13 17.5 20t24.5 7q21 0 34 -14.5t13 -32.5v-630q0 -20 -13.5 -33.5t-33.5 -13.5q-19 0 -33 13.5t-14 33.5v423l-75 -157q-5 -12 -17.5 -20
t-26.5 -8q-13 0 -24 7t-17 20l-68 149v-414z" />
    <glyph glyph-name="N" unicode="N" horiz-adv-x="540" 
d="M61 675q0 19 13.5 33t33.5 14q14 0 25.5 -8t17.5 -22l232 -452v435q0 19 13.5 33t33.5 14q19 0 33 -14t14 -33v-630q0 -15 -5 -24.5t-11.5 -14.5t-13 -6.5t-10.5 -1.5q-13 0 -21.5 3t-14.5 7.5t-9 9l-5 7.5l-233 455v-435q0 -20 -13.5 -33.5t-32.5 -13.5
q-20 0 -33.5 13.5t-13.5 33.5v630z" />
    <glyph glyph-name="O" unicode="O" horiz-adv-x="529" 
d="M57 514q0 44 15 82t43 66.5t66.5 44.5t85.5 16q42 0 80.5 -16.5t66.5 -44.5t44.5 -66.5t16.5 -82.5v-305q0 -43 -16.5 -80.5t-44.5 -66t-66.5 -45t-80.5 -16.5t-80.5 16.5t-67 44t-45.5 64.5t-17 77v312zM151 206q0 -23 9.5 -43.5t25.5 -35.5t36.5 -24t43.5 -9t43.5 9.5
t36.5 24.5t25.5 35.5t9.5 43.5v307q0 24 -9 45.5t-24.5 37.5t-36.5 25t-45 9t-45 -9t-36.5 -25.5t-24.5 -37.5t-9 -45v-308z" />
    <glyph glyph-name="P" unicode="P" horiz-adv-x="510" 
d="M477 531v-53q0 -43 -17 -79t-46 -61t-67 -39t-78 -14q-23 0 -54.5 1t-61.5 7v-246q0 -20 -13.5 -33.5t-33.5 -13.5q-19 0 -33 13.5t-14 32.5v574q0 37 20 58t49.5 31.5t63.5 13t61 2.5q43 0 83.5 -12.5t72 -37t50 -61t18.5 -83.5zM383 531q0 26 -11 44.5t-28.5 31
t-39.5 18.5t-45 6q-24 0 -54 -2.5t-52 -8.5v-231q23 -5 50 -7.5t52 -2.5q23 0 46 5.5t41.5 17.5t29.5 31t11 46v52z" />
    <glyph glyph-name="Q" unicode="Q" horiz-adv-x="540" 
d="M234 128q-6 6 -9 15t-3 17q0 19 13 33t33 14t35 -14l55 -58q26 31 26 73v312q0 24 -9.5 44.5t-25.5 35t-37.5 22.5t-44.5 8t-43 -8t-35.5 -22.5t-25 -35t-9.5 -44.5v-311q0 -23 9 -44t24 -36.5t35.5 -25t44.5 -9.5zM465 22q13 -14 13 -33t-13.5 -33t-33.5 -14t-34 15
l-53 56q-37 -13 -75 -13q-42 0 -80.5 16.5t-66.5 45t-45 66.5t-17 81v311q0 45 15.5 83t44 64.5t67 41.5t82.5 15q43 0 81 -16t66.5 -44t45.5 -65t17 -79v-312q0 -41 -15 -77.5t-41 -64.5z" />
    <glyph glyph-name="R" unicode="R" horiz-adv-x="519" 
d="M270 380q21 0 42 7t37 20t25.5 31.5t9.5 41.5v52q0 26 -11.5 45t-29 31.5t-40 18t-45.5 5.5q-12 0 -27.5 -1l-31 -2t-27.5 -3.5t-18 -4.5v-241h116zM154 286v-238q0 -20 -13.5 -33.5t-33.5 -13.5q-19 0 -33 13.5t-14 33.5v573q0 38 22 59t54 31t68 12.5t66 2.5
q40 0 78 -14t66.5 -40t45.5 -61.5t17 -78.5v-53q0 -47 -19 -83.5t-51 -62.5q32 -25 51.5 -62.5t19.5 -83.5v-139q0 -20 -14 -33.5t-33 -13.5q-20 0 -33.5 13.5t-13.5 33.5v139q0 23 -10 41.5t-26 31.5t-36.5 19.5t-41.5 6.5h-116z" />
    <glyph glyph-name="S" unicode="S" horiz-adv-x="463" 
d="M439 580q2 -8 2 -15q0 -18 -13 -32.5t-34 -14.5q-15 0 -27 9t-17 24q-7 18 -19.5 33.5t-29 26t-35.5 16t-38 5.5q-18 0 -37.5 -6.5t-35.5 -17.5t-27 -26.5t-11 -33.5q0 -19 15.5 -38.5t39.5 -40.5t53 -41.5t57 -40.5q29 -21 57.5 -43t51 -46.5t36.5 -52.5t14 -61
q0 -41 -17.5 -74.5t-46.5 -57.5t-66.5 -37.5t-78.5 -13.5q-34 0 -66.5 11t-60 30.5t-48.5 46.5t-31 58q-3 7 -3 15q0 18 13 32.5t34 14.5q14 0 27 -9t18 -23q6 -18 18 -32.5t27 -25.5t33.5 -17.5t37.5 -6.5q18 0 38.5 5.5t37.5 16t29 26.5t12 37t-14.5 40.5t-36.5 38.5
t-47 36.5t-47 33.5q-30 22 -62 45t-58.5 48.5t-43 56t-16.5 69.5q0 41 19 74t49 56t67 35.5t74 12.5q34 0 66.5 -11t60.5 -30.5t48.5 -46t31.5 -58.5z" />
    <glyph glyph-name="T" unicode="T" horiz-adv-x="460" 
d="M276 631v-584q0 -20 -13.5 -33.5t-33.5 -13.5q-19 0 -33 13.5t-14 33.5v584h-114q-19 0 -33 14t-14 33q0 20 14 33.5t33 13.5h324q19 0 33 -13.5t14 -33.5q0 -19 -14 -33t-33 -14h-116z" />
    <glyph glyph-name="U" unicode="U" horiz-adv-x="540" 
d="M155 211q0 -24 9.5 -45t25 -37t36.5 -25t44 -9t44 9t37 24.5t25 36.5t9 44v469q0 19 13.5 33t33.5 14t33.5 -14t13.5 -33v-469q0 -43 -16.5 -80.5t-45 -66t-66.5 -45t-81 -16.5q-42 0 -80 16t-66.5 44t-45.5 65t-17 79v473q0 19 14 33t34 14q19 0 32.5 -14t13.5 -33v-467
z" />
    <glyph glyph-name="V" unicode="V" horiz-adv-x="463" 
d="M346 690q4 16 16.5 26t28.5 10q21 0 34 -14t13 -32v-6.5t-1 -6.5l-160 -631q-4 -16 -17 -26t-29 -10q-18 0 -30.5 11t-15.5 27l-162 630q-3 6 -3 13q0 18 14 31.5t34 13.5q16 0 28.5 -9.5t17.5 -25.5l117 -454z" />
    <glyph glyph-name="W" unicode="W" horiz-adv-x="782" 
d="M23 668q-2 6 -2 12q0 18 13.5 32t34.5 14q16 0 28 -9.5t16 -25.5l119 -454l115 453q4 16 16.5 26t28.5 10q18 0 30 -10.5t16 -25.5l114 -453l119 454q4 16 16 25.5t28 9.5q20 0 33.5 -14t13.5 -32v-6.5t-1 -5.5l-163 -630q-3 -16 -15.5 -27t-30.5 -11q-16 0 -29 10
t-17 26l-114 451l-115 -451q-3 -15 -15.5 -25.5t-30.5 -10.5q-15 0 -28 10t-17 26z" />
    <glyph glyph-name="X" unicode="X" horiz-adv-x="496" 
d="M447 68q2 -6 3.5 -11t1.5 -10q0 -18 -12.5 -32.5t-34.5 -14.5q-13 0 -24.5 6.5t-17.5 19.5l-117 233l-117 -233q-6 -13 -17.5 -19.5t-25.5 -6.5q-21 0 -33.5 14.5t-12.5 32.5q0 11 5 21l149 295l-149 296q-5 9 -5 21q0 18 13 32.5t33 14.5q14 0 25.5 -7t17.5 -19
l117 -233l117 233q6 12 17.5 19t24.5 7q22 0 34.5 -14.5t12.5 -32.5q0 -12 -5 -21l-149 -296z" />
    <glyph glyph-name="Y" unicode="Y" horiz-adv-x="539" 
d="M477 211q0 -42 -10 -80t-34 -66.5t-65 -45.5t-103 -17q-46 0 -87.5 20.5t-70.5 55.5q-11 15 -11 30q0 18 14 32.5t33 14.5q22 0 36 -17q16 -21 39.5 -31.5t48.5 -10.5q35 0 57.5 6.5t35.5 20.5t18 36t5 52v89q-30 -7 -61 -8.5t-55 -1.5q-40 0 -77.5 14t-66.5 39
t-46.5 60.5t-17.5 78.5v199q0 20 14 33.5t33 13.5q20 0 33.5 -13.5t13.5 -33.5v-198q0 -26 11 -45t29 -31t40.5 -18t45.5 -6q13 0 28.5 1t29.5 2.5t26 3.5t20 3v289q0 20 13.5 33.5t33.5 13.5q19 0 33 -13.5t14 -33.5v-471z" />
    <glyph glyph-name="Z" unicode="Z" horiz-adv-x="458" 
d="M66 631q-20 0 -33.5 13.5t-13.5 33.5t13.5 33.5t33.5 13.5h262q23 0 43 -7.5t34.5 -20.5t22.5 -32.5t8 -42.5q0 -19 -7 -36t-17 -32l-292 -435q-3 -5 -5 -9t-2 -8q0 -8 14 -8h262q20 0 33.5 -13.5t13.5 -33.5t-13.5 -33.5t-33.5 -13.5h-262q-22 0 -41.5 6.5t-34.5 19.5
t-23.5 32t-8.5 43q0 19 7 37t17 33l292 435q5 7 5 15q0 10 -12 10h-262z" />
    <glyph glyph-name="bracketleft" unicode="[" horiz-adv-x="261" 
d="M188 -1q20 0 34 -14t14 -33q0 -20 -14 -33.5t-34 -13.5h-82q-19 0 -33 13.5t-14 33.5v818q0 19 14 33t33 14h83q19 0 33 -14t14 -33q0 -20 -14 -33.5t-33 -13.5h-36v-724h35z" />
    <glyph glyph-name="backslash" unicode="\" horiz-adv-x="460" 
d="M27 659q-5 10 -5 21q0 18 12 32.5t35 14.5q13 0 24 -7t18 -19l317 -633q5 -10 5 -21q0 -17 -12.5 -32t-33.5 -15q-13 0 -24.5 7t-18.5 19z" />
    <glyph glyph-name="bracketright" unicode="]" horiz-adv-x="261" 
d="M105 0v725h-36q-20 0 -33.5 13.5t-13.5 33.5q0 19 13.5 33t33.5 14h83q19 0 32.5 -14t13.5 -33v-819q0 -20 -13.5 -33.5t-32.5 -13.5h-82q-20 0 -34 13.5t-14 33.5q0 19 14 33t34 14h35z" />
    <glyph glyph-name="asciicircum" unicode="^" horiz-adv-x="620" 
d="M306 722h8q23 0 38 -18l202 -254q10 -11 10 -29q0 -19 -13 -33.5t-33 -14.5q-25 0 -38 18l-168 211l-168 -211q-15 -18 -38 -18q-20 0 -33 14.5t-13 33.5q0 18 10 29l202 254q13 16 34 18z" />
    <glyph glyph-name="underscore" unicode="_" horiz-adv-x="539" 
d="M107 -48q-20 0 -34 14t-14 34t14 33.5t34 13.5h325q19 0 33 -13.5t14 -33.5t-14 -34t-33 -14h-325z" />
    <glyph glyph-name="grave" unicode="`" horiz-adv-x="138" 
d="M20 676q0 20 13 33.5t33 13.5t33.5 -13.5t13.5 -33.5v-72q0 -20 -12.5 -33.5t-31.5 -13.5q-21 0 -35 13.5t-14 33.5v72z" />
    <glyph glyph-name="a" unicode="a" horiz-adv-x="517" 
d="M363 379q-3 18 -9 33t-18.5 25t-33.5 15.5t-53 5.5q-28 -2 -49.5 -11.5t-38.5 -29.5q-15 -18 -36 -18q-19 0 -33 14.5t-14 32.5q0 8 2.5 16t8.5 14q33 37 74.5 56t91.5 19q55 0 93.5 -16t63 -44t36 -65.5t11.5 -81.5v-239q0 -26 -11 -44t-28.5 -29.5t-40 -18t-46.5 -9.5
t-46 -3.5t-41 -0.5q-40 0 -77 14.5t-65.5 40.5t-45.5 61.5t-17 77.5q0 39 17.5 73t47 58.5t67.5 39t78 14.5h112zM365 285h-114q-21 0 -41 -6.5t-36 -18.5t-27 -29t-12 -37q0 -26 11 -44.5t28.5 -31t40 -18.5t44.5 -6q24 0 53.5 2.5t52.5 8.5v180z" />
    <glyph glyph-name="b" unicode="b" horiz-adv-x="519" 
d="M477 193q0 -49 -19 -85.5t-51.5 -60t-73.5 -35.5t-83 -12q-29 0 -62.5 3t-62 13.5t-47.5 31.5t-19 56v573q0 19 14 33t34 14q19 0 33 -13.5t14 -32.5v-133q31 7 61.5 8t53.5 1q41 0 78.5 -14t66.5 -39.5t46 -61t17 -78.5v-168zM383 360q0 25 -10.5 44t-27.5 31t-39 18.5
t-45 6.5q-24 0 -54 -3t-53 -8v-345q6 -4 22.5 -5.5t35 -3t35 -1.5h22.5q22 0 42.5 7t36.5 20t25.5 31.5t9.5 40.5v167z" />
    <glyph glyph-name="c" unicode="c" horiz-adv-x="443" 
d="M334 132q14 16 35 16q17 0 30 -10q17 -14 17 -36q0 -18 -12 -32q-29 -34 -69 -52t-87 -18q-43 0 -80.5 16t-66.5 45q-28 29 -44.5 66.5t-16.5 80.5v134q0 44 16.5 81.5t44.5 65.5t65 44.5t80 16.5h2q35 0 60.5 -8t44.5 -19t31.5 -23t19.5 -20q12 -14 12 -31
q0 -9 -4 -18.5t-12 -16.5q-13 -12 -31 -12q-9 0 -18.5 4t-16.5 12l-11.5 11.5t-16 12.5t-23.5 10t-35 4q-23 0 -44 -8.5t-37 -24.5t-25 -37t-9 -44v-134q0 -24 9.5 -44t24.5 -37q16 -16 38 -24.5t45 -8.5t45.5 9t38.5 29z" />
    <glyph glyph-name="d" unicode="d" horiz-adv-x="522" 
d="M136 193q0 -22 9.5 -40.5t25.5 -31.5t36.5 -20t42.5 -7h22.5t35 1.5t35 3t22.5 5.5v345q-28 6 -57 8.5t-59 2.5q-22 0 -42.5 -7.5t-36 -20.5t-25 -31.5t-9.5 -40.5v-167zM42 361q0 43 17 78.5t46 61t66.5 39.5t78.5 14q23 0 53.5 -1t61.5 -8v133q0 19 14 32.5t33 13.5
q20 0 34 -14t14 -33v-575q0 -25 -9.5 -42t-25.5 -28.5t-36.5 -18t-43 -9.5t-45 -3.5t-41.5 -0.5h-9q-41 0 -78.5 14t-66.5 39t-46 61t-17 79v168z" />
    <glyph glyph-name="e" unicode="e" horiz-adv-x="519" 
d="M155 323h96h63.5h37.5h19.5h8.5h5q0 28 -8.5 52t-23 42t-36 28.5t-47.5 10.5q-25 0 -45.5 -9t-36.5 -24.5t-24.5 -36.5t-8.5 -45v-18zM355 132q7 8 16 12t19 4q20 0 33.5 -14.5t13.5 -32.5q0 -7 -2 -15t-8 -14q-35 -36 -75 -54t-82 -18q-44 0 -81.5 16t-66.5 44.5
t-45.5 66.5t-16.5 81v133q0 43 16.5 81t45.5 66.5t66.5 45t81.5 16.5t82 -17t66.5 -47.5t44.5 -72t16 -89.5q0 -44 -26.5 -69.5t-72.5 -25.5h-225v-21q0 -23 9 -44t25 -36.5t36.5 -24.5t44.5 -9q33 0 54.5 13t30.5 25z" />
    <glyph glyph-name="f" unicode="f" horiz-adv-x="310" 
d="M39 517q0 40 9 75.5t31 65.5q25 33 64.5 50.5t103.5 17.5q20 0 34 -14t14 -34q0 -19 -14 -32.5t-34 -13.5q-38 0 -60 -8t-34 -22q-7 -10 -10.5 -22t-6.5 -27h111q20 0 34 -14t14 -33q0 -20 -14 -33.5t-34 -13.5h-114v-409q0 -20 -13.5 -34t-34.5 -14q-19 0 -32.5 14
t-13.5 34v467z" />
    <glyph glyph-name="g" unicode="g" horiz-adv-x="522" 
d="M363 105v345q-22 5 -50.5 7.5t-52.5 2.5h-12q-22 0 -42.5 -7t-36.5 -20t-25.5 -31.5t-9.5 -40.5v-167q0 -24 9.5 -42.5t25.5 -31.5t36.5 -19.5t42.5 -6.5h10q25 0 54 2.5t51 8.5zM457 37q0 -40 -8.5 -76.5t-32.5 -66.5q-25 -30 -65 -47.5t-103 -17.5q-26 0 -50 6.5
t-44.5 17t-37 24t-28.5 27.5q-6 7 -9 15t-3 15q0 22 18 36q6 6 14 8.5t16 2.5q22 0 36 -16q4 -6 12 -13t19.5 -13.5t26 -11t30.5 -4.5q38 0 60.5 8t34.5 22q9 10 13.5 24.5t5.5 31.5q-30 -7 -60.5 -8t-53.5 -1q-41 0 -78.5 14t-66.5 39.5t-46 61t-17 79.5v167q0 45 17 80.5
t46 60.5t66.5 38.5t78.5 13.5q17 0 39.5 -0.5t45.5 -4t45.5 -9.5t40 -17.5t28 -29t10.5 -41.5v-415z" />
    <glyph glyph-name="h" unicode="h" horiz-adv-x="540" 
d="M60 674q0 20 14 33.5t34 13.5q19 0 32.5 -13.5t13.5 -33.5v-132q32 7 62.5 8t53.5 1q41 0 78.5 -14t66.5 -39.5t46 -61t17 -79.5v-313q0 -19 -13.5 -32.5t-33.5 -13.5t-33.5 13.5t-13.5 32.5v313q0 26 -10.5 44.5t-27.5 30.5t-39 18.5t-45 6.5q-24 0 -54 -3t-54 -8v-402
q0 -21 -13.5 -33.5t-32.5 -12.5q-20 0 -34 12.5t-14 33.5v630z" />
    <glyph glyph-name="i" unicode="i" horiz-adv-x="218" 
d="M107 623q-20 0 -33.5 14t-13.5 33q0 20 13.5 33.5t33.5 13.5t34 -13.5t14 -33.5q0 -19 -14 -33t-34 -14zM60 504q0 20 14 33.5t33 13.5q20 0 33.5 -13.5t13.5 -33.5v-457q0 -20 -13.5 -33.5t-33.5 -13.5q-19 0 -33 13.5t-14 33.5v457z" />
    <glyph glyph-name="j" unicode="j" horiz-adv-x="261" 
d="M195 46q0 -40 -8.5 -76.5t-32.5 -66.5q-25 -31 -66 -48.5t-103 -17.5q-20 0 -33.5 14t-13.5 33q0 20 13.5 33.5t33.5 13.5q39 0 61.5 8.5t33.5 22.5q12 15 16.5 37t4.5 47v412h-33q-20 0 -33.5 14t-13.5 34t13.5 33.5t33.5 13.5h80q20 0 34 -13.5t14 -33.5zM148 620
q-20 0 -33.5 14t-13.5 33q0 20 13.5 34t33.5 14q21 0 35 -14t14 -34q0 -19 -14 -33t-35 -14z" />
    <glyph glyph-name="k" unicode="k" 
d="M153 48q0 -21 -13.5 -34.5t-32.5 -13.5q-20 0 -34 13.5t-14 34.5v457q0 20 14 34t34 14q19 0 32.5 -14t13.5 -34v-183h90l148 211q7 10 17.5 15t22.5 5q14 0 26 -9q10 -7 15 -17t5 -22q0 -14 -9 -26l-120 -172q28 -10 52 -27t40.5 -40t26.5 -51t10 -60v-81
q0 -21 -13.5 -34.5t-33.5 -13.5t-33.5 13.5t-13.5 34.5v81q0 23 -9.5 41.5t-25 31t-36 19.5t-42.5 7h-117v-180z" />
    <glyph glyph-name="l" unicode="l" horiz-adv-x="247" 
d="M167 94q20 0 33.5 -14t13.5 -33q0 -20 -13.5 -33.5t-33.5 -13.5q-31 0 -52 9.5t-33.5 24.5t-17.5 34t-5 39v571q0 19 13.5 32.5t33.5 13.5q19 0 32.5 -13.5t13.5 -32.5v-564q0 -8 3.5 -14t11.5 -6z" />
    <glyph glyph-name="m" unicode="m" horiz-adv-x="860" 
d="M154 47q0 -20 -13.5 -33.5t-33.5 -13.5t-33.5 13.5t-13.5 33.5v403q0 25 10.5 42.5t28 29t40 18.5t45.5 10t46 3.5t40 0.5q38 0 72.5 -11.5t63.5 -34.5q15 17 39 26.5t50 13.5t52 5t46 1q41 0 79 -14t66.5 -40t46 -61.5t17.5 -77.5v-312q0 -20 -13.5 -34t-34.5 -14
q-19 0 -32.5 14t-13.5 34v312q-2 29 -14.5 48t-32 31t-44 16.5t-50.5 4.5q-24 0 -46.5 -3.5t-42.5 -7.5v-403q0 -20 -13.5 -33.5t-33.5 -13.5t-33.5 13.5t-13.5 33.5v320q0 27 -12.5 45t-32.5 29t-45 15.5t-51 4.5q-24 0 -47.5 -3.5t-41.5 -7.5v-403z" />
    <glyph glyph-name="n" unicode="n" horiz-adv-x="542" 
d="M155 49q0 -20 -13.5 -33.5t-33.5 -13.5t-34 13.5t-14 33.5v403q0 25 10.5 43t28 29.5t40 18t46 9.5t46 3.5t39.5 0.5q42 0 79.5 -14t66 -39.5t45.5 -61t17 -78.5v-312q0 -20 -13.5 -34t-33.5 -14q-19 0 -32.5 14t-13.5 34v312q0 25 -12 44t-30 31.5t-41.5 18.5t-47.5 6
q-13 0 -27.5 -1t-28 -3t-25 -3.5t-18.5 -3.5v-403z" />
    <glyph glyph-name="o" unicode="o" 
d="M39 340q0 44 16.5 82.5t45 66.5t66.5 44.5t81 16.5t81.5 -16.5t67 -44.5t44.5 -66.5t16 -82.5v-130q0 -43 -16 -81.5t-44.5 -67t-67 -45t-81.5 -16.5t-81 16.5t-66.5 45t-45 67t-16.5 81.5v130zM133 210q0 -24 9 -45t24.5 -37t36.5 -25t45 -9q23 0 43.5 9t37 25t26 37
t9.5 45v131q0 25 -9.5 46.5t-25 37t-36.5 23.5t-45 8q-23 0 -43.5 -8t-36.5 -23.5t-25.5 -37t-9.5 -47.5v-130z" />
    <glyph glyph-name="p" unicode="p" horiz-adv-x="519" 
d="M383 362q0 26 -11 44.5t-28.5 31t-39.5 18.5t-45 6q-24 0 -54 -2.5t-52 -8.5v-345q7 -4 19.5 -6t27 -3t29 -1.5t27.5 -0.5q27 0 50.5 6.5t40.5 19t26.5 31t9.5 43.5v167zM477 195q0 -39 -14.5 -74t-43.5 -62t-72.5 -42.5t-101.5 -15.5q-40 0 -92 10v-133
q0 -20 -13.5 -33.5t-32.5 -13.5q-20 0 -34 13t-14 33v574q0 38 23 59.5t55.5 31.5t68.5 12t63 2q41 0 78.5 -14t66.5 -39.5t46 -61t17 -79.5v-167z" />
    <glyph glyph-name="q" unicode="q" horiz-adv-x="522" 
d="M132 196q0 -25 9.5 -43.5t27 -31t41 -19t50.5 -6.5q12 0 27 0.5t29.5 1.5t26 3t19.5 6v345q-11 3 -24.5 5t-27.5 3t-27.5 2t-26.5 1q-23 0 -45 -6t-39.5 -18.5t-28.5 -31t-11 -44.5v-167zM39 363q0 44 17 79.5t45.5 61t66 39.5t79.5 14q27 0 63 -2t68.5 -12t55.5 -31.5
t23 -59.5v-574q0 -20 -14 -33t-34 -13t-33.5 13.5t-13.5 33.5v133q-51 -10 -92 -10q-58 0 -101.5 15.5t-72 42.5t-43 62t-14.5 74v167z" />
    <glyph glyph-name="r" unicode="r" horiz-adv-x="340" 
d="M152 47q0 -20 -14 -33.5t-33 -13.5q-20 0 -33.5 13.5t-13.5 33.5v403q0 25 10.5 43t28 29.5t39.5 18t45 9.5t46 3.5t40 0.5q20 0 33.5 -13.5t13.5 -33.5t-13.5 -33.5t-33.5 -13.5q-25 0 -57.5 -2t-57.5 -8v-403z" />
    <glyph glyph-name="s" unicode="s" horiz-adv-x="482" 
d="M440 425q2 -4 2.5 -9t0.5 -9q0 -18 -12.5 -32.5t-33.5 -14.5q-12 0 -20 5.5t-14 14t-12 19t-17 22.5q-19 18 -42.5 28.5t-47.5 10.5q-20 0 -40 -6.5t-35.5 -18.5t-25.5 -27t-10 -32q0 -6 8.5 -10.5t23 -8.5t33 -7t38.5 -7q39 -8 78 -18.5t70 -28t50 -45.5t19 -70
q0 -13 -3.5 -27.5t-8.5 -27.5t-10.5 -23.5t-10.5 -17.5q-14 -19 -34 -34t-43 -26t-48 -17t-50 -6q-38 0 -72 12.5t-61 35.5t-46 53.5t-26 65.5q-1 2 -1 4.5v4.5q0 19 13 33t34 14q16 0 29 -10.5t17 -26.5q4 -20 14 -37t25 -29t33.5 -19t39.5 -7t41.5 6t37 17.5t26.5 27
t10 34.5q0 17 -13.5 29t-36 20t-51.5 14t-58.5 12t-58.5 15t-51.5 22.5t-36 33.5t-13.5 49q0 41 18.5 74t47.5 56t66.5 35.5t74.5 12.5q33 0 62.5 -9.5t55 -27t45 -40.5t30.5 -52z" />
    <glyph glyph-name="t" unicode="t" horiz-adv-x="340" 
d="M59 678q0 20 13.5 33.5t33.5 13.5q19 0 33 -13.5t14 -33.5v-125h115q20 0 33.5 -13.5t13.5 -34.5q0 -19 -13.5 -32.5t-33.5 -13.5h-115v-251q0 -24 9 -44.5t24.5 -36t37 -24.5t45.5 -9q19 0 32.5 -14t13.5 -34q0 -19 -14 -32.5t-33 -13.5q-44 0 -81.5 16.5t-66 45t-45 66
t-16.5 80.5v470z" />
    <glyph glyph-name="u" unicode="u" horiz-adv-x="540" 
d="M382 509q0 19 13.5 32.5t33.5 13.5t34 -13.5t14 -32.5v-404q0 -39 -23 -60t-56 -31t-69 -11.5t-62 -1.5q-42 0 -79.5 14t-66 39.5t-45.5 61.5t-17 79v311q0 21 13.5 34.5t33.5 13.5q19 0 32.5 -13.5t13.5 -34.5v-311q0 -26 12 -45t30 -31t41.5 -18t47.5 -6q13 0 27.5 1
t28 2.5t25 3.5t18.5 3v404z" />
    <glyph glyph-name="v" unicode="v" horiz-adv-x="460" 
d="M346 521q5 15 17.5 23t27.5 8q9 0 15 -2q15 -6 23.5 -18t8.5 -27q0 -3 -0.5 -7t-2.5 -8l-160 -458q-6 -15 -18 -23.5t-27 -8.5q-14 0 -26.5 9t-17.5 22l-164 458q-3 7 -3 16q0 14 8.5 27t23.5 18q4 2 8 2.5t7 0.5q15 0 27.5 -8.5t17.5 -22.5l119 -334z" />
    <glyph glyph-name="w" unicode="w" horiz-adv-x="780" 
d="M25 490q-4 11 -4 18q0 18 14.5 31.5t34.5 13.5q14 0 26 -8.5t18 -22.5l119 -333l116 333q6 14 17.5 22.5t26.5 8.5q14 0 27.5 -8.5t16.5 -22.5l116 -333l120 333q4 14 17 22.5t27 8.5q21 0 34 -14.5t13 -33.5q0 -9 -3 -15l-163 -458q-5 -13 -18 -22t-27 -9t-26.5 9
t-17.5 23l-116 331l-115 -328q-3 -16 -16 -26t-29 -10q-14 0 -26.5 9t-17.5 23z" />
    <glyph glyph-name="x" unicode="x" 
d="M50 478q-9 12 -9 26q0 24 21 39q11 9 26 9q11 0 21.5 -5t17.5 -15l124 -175l123 175q7 10 17.5 15t21.5 5q15 0 27 -9q9 -7 14 -17t5 -22q0 -14 -8 -26l-143 -203l143 -202q8 -12 8 -26q0 -12 -5 -22t-14 -17q-12 -9 -27 -9q-11 0 -21.5 5t-17.5 15l-123 175l-124 -175
q-7 -10 -17.5 -15t-21.5 -5q-15 0 -26 9q-21 15 -21 39q0 14 9 26l143 202z" />
    <glyph glyph-name="y" unicode="y" horiz-adv-x="540" 
d="M477 36q0 -48 -12 -86.5t-37.5 -65.5t-65 -42t-94.5 -15q-37 0 -69 11.5t-54.5 28t-35.5 34.5t-13 32q0 18 14 33t33 15q15 0 27.5 -9.5t26 -20.5t31 -20.5t40.5 -9.5q33 0 54.5 6.5t34 18t18 28t7.5 36.5q-30 -7 -60.5 -8t-53.5 -1q-42 0 -79.5 14t-66 39t-45.5 61
t-17 79v314q0 19 13.5 32t33.5 13q19 0 32.5 -13t13.5 -32v-314q0 -26 11 -45t29 -31t40.5 -17.5t46.5 -5.5t52.5 2.5t50.5 7.5v403q0 19 13.5 32t33.5 13t33.5 -13t13.5 -32v-472z" />
    <glyph glyph-name="z" unicode="z" 
d="M88 459q-19 0 -33 13.5t-14 32.5q0 20 14 34t33 14h262q27 0 47.5 -9t34 -24t20.5 -33.5t7 -38.5q0 -21 -8 -41t-23 -34l-290 -260q-3 -3 -3 -7q0 -5 3.5 -8.5t11.5 -3.5h262q19 0 33 -14t14 -33q0 -20 -14 -33.5t-33 -13.5h-262q-23 0 -43 8t-35 22.5t-23 33.5t-8 41
q0 21 8 41t24 34l289 260q3 4 3 7q0 5 -3.5 8.5t-11.5 3.5h-262z" />
    <glyph glyph-name="braceleft" unicode="{" horiz-adv-x="271" 
d="M34 388q15 0 27 12.5t20 29.5t12.5 33.5t4.5 24.5q0 23 -6.5 50t-6.5 56q0 66 34 112t85 69q4 2 15 2q16 0 30.5 -12.5t14.5 -32.5q0 -18 -14 -29.5t-30.5 -26t-30.5 -34.5t-14 -54q0 -27 5 -56t5 -58q0 -32 -13 -63.5t-41 -63.5q30 -34 42.5 -66t12.5 -68
q0 -33 -4.5 -68t-4.5 -66q0 -39 14 -60t31 -34.5t31 -25t14 -31.5t-14.5 -33t-30.5 -13q-9 0 -15 3q-57 26 -88.5 74.5t-31.5 129.5q0 37 5.5 69t5.5 48q0 32 -17.5 59.5t-43.5 40.5q-9 0 -14.5 6.5t-9 14t-4.5 14.5t-1 8q0 12 7.5 22.5t18.5 16.5z" />
    <glyph glyph-name="bar" unicode="|" horiz-adv-x="215" 
d="M59 723q0 20 14 33.5t33 13.5q20 0 33.5 -13.5t13.5 -33.5v-783q0 -19 -13.5 -33t-33.5 -14q-19 0 -33 14t-14 33v783z" />
    <glyph glyph-name="braceright" unicode="}" horiz-adv-x="260" 
d="M233 388q11 -6 18.5 -16.5t7.5 -22.5q0 -1 -1 -8t-4.5 -14.5t-9 -14t-14.5 -6.5q-26 -13 -43.5 -40.5t-17.5 -59.5q0 -16 5.5 -48t5.5 -69q0 -81 -31.5 -129.5t-88.5 -74.5q-6 -3 -15 -3q-16 0 -30.5 13t-14.5 33t14 31.5t31 25t31 34.5t14 60q0 31 -4.5 66t-4.5 68
q0 36 12.5 68t42.5 66q-28 32 -41 63.5t-13 63.5q0 29 5 58t5 56q0 34 -14 54t-30.5 34.5t-30.5 26t-14 29.5q0 20 14.5 32.5t30.5 12.5q11 0 15 -2q51 -23 85 -69t34 -112q0 -29 -6.5 -56t-6.5 -50q0 -8 4.5 -24.5t12.5 -33.5t20 -29.5t27 -12.5z" />
    <glyph glyph-name="asciitilde" unicode="~" horiz-adv-x="524" 
d="M94 247q-14 -15 -35 -15q-17 0 -29.5 15.5t-12.5 32.5q0 21 17 38t41.5 29.5t52 19.5t49.5 7q25 0 46.5 -8t42 -18t40.5 -18t43 -8q19 0 35 8t30 18t26.5 18t24.5 8q18 0 30 -15t12 -30q0 -17 -9 -27q-29 -33 -66.5 -51.5t-84.5 -18.5q-36 0 -63.5 11.5t-56.5 27.5
q-23 13 -53 13q-11 0 -23.5 -3t-23.5 -8.5t-20 -12t-13 -13.5z" />
    <glyph glyph-name="exclamdown" unicode="&#xa1;" horiz-adv-x="220" 
d="M60 504q0 20 14 33.5t33 13.5q20 0 33.5 -13.5t13.5 -33.5v-457q0 -20 -13.5 -33.5t-33.5 -13.5q-19 0 -33 13.5t-14 33.5v457zM106 623q-20 0 -33.5 14t-13.5 33q0 20 13.5 33.5t33.5 13.5t34 -13.5t14 -33.5q0 -19 -14 -33t-34 -14z" />
    <glyph glyph-name="cent" unicode="&#xa2;" horiz-adv-x="443" 
d="M202 582q0 20 14 33.5t33 13.5q20 0 33.5 -13.5t13.5 -33.5v-37q6 -1 12 -3q26 -8 45 -19t31.5 -23t19.5 -20q12 -14 12 -31q0 -9 -4 -18.5t-12 -16.5q-13 -12 -31 -12q-9 0 -18.5 4t-16.5 12l-12 11q-6 7 -16 13q-4 3 -10 5v-344q22 9 38 29q14 16 35 16q17 0 30 -10
q17 -14 17 -36q0 -18 -12 -32q-29 -34 -69 -52q-19 -9 -39 -13v-28q0 -19 -13.5 -33t-33.5 -14q-19 0 -33 14t-14 33v27q-18 5 -35 12q-37 16 -66 45q-28 29 -44.5 66.5t-16.5 80.5v134q0 44 16.5 81.5t44.5 65.5t65 44q17 8 36 12v37zM167 423q-16 -16 -25 -37t-9 -44v-134
q0 -24 9.5 -44t24.5 -37q15 -15 35 -24v343q-20 -8 -35 -23z" />
    <glyph glyph-name="sterling" unicode="&#xa3;" 
d="M431 94q20 0 33.5 -13.5t13.5 -32.5q0 -21 -13.5 -34.5t-33.5 -13.5h-262q-38 0 -59 7.5t-32.5 20.5t-14 31.5t-2.5 39.5v579q0 20 13.5 33.5t33.5 13.5q19 0 32.5 -13.5t13.5 -33.5v-579q0 -2 2.5 -3.5t12.5 -1.5h262zM88 428q-20 0 -34 14t-14 33q0 20 14 33.5t34 13.5
h325q19 0 33 -13.5t14 -33.5q0 -19 -14 -33t-33 -14h-325z" />
    <glyph glyph-name="currency" unicode="&#xa4;" horiz-adv-x="435" 
d="M336 473q12 12 30 12q20 0 34.5 -14.5t14.5 -31.5q1 -10 -3.5 -19t-12.5 -16l-36 -33q7 -20 12 -35.5t5 -36.5q0 -23 -5 -39.5t-13 -36.5l35 -31q16 -14 16 -35q0 -16 -13.5 -31.5t-35.5 -15.5q-18 0 -30 13l-38 34q-13 -10 -34.5 -14.5t-41.5 -4.5q-22 0 -42.5 4.5
t-37.5 15.5l-39 -35q-13 -13 -30 -13q-20 0 -34.5 15t-14.5 32q-1 10 3.5 19t12.5 16l38 34q-7 20 -12 35.5t-5 37.5q0 21 5 36t12 35l-38 34q-16 15 -16 35q0 15 13.5 30.5t35.5 15.5q16 0 30 -12l39 -35q17 10 37 15.5t43 5.5q42 0 78 -21zM220 365q-27 0 -47 -20t-20 -46
q0 -29 20 -48t48 -19q27 0 46 20t19 47q0 26 -20 46t-46 20z" />
    <glyph glyph-name="yen" unicode="&#xa5;" horiz-adv-x="419" 
d="M47 161q-20 0 -34 14t-14 33q0 20 14 33.5t34 13.5h102l-31 86h-71q-20 0 -34 14t-14 33q0 20 14 33.5t34 13.5h37l-81 228q-3 7 -3 16q0 14 8.5 27t23.5 18q4 2 8 2.5t7 0.5q15 0 27.5 -8.5t17.5 -22.5l93 -261h51l91 260q5 15 17.5 23t27.5 8q9 0 15 -2q15 -6 23.5 -18
t8.5 -27q0 -3 -0.5 -7t-2.5 -8l-80 -229h36q19 0 33 -13.5t14 -33.5q0 -19 -14 -33t-33 -14h-69l-30 -86h99q19 0 33 -13.5t14 -33.5q0 -19 -14 -33t-33 -14h-113v-114q0 -20 -13.5 -33.5t-33.5 -13.5q-19 0 -33 13.5t-14 33.5v114h-118z" />
    <glyph glyph-name="section" unicode="&#xa7;" horiz-adv-x="479" 
d="M53 498q-13 20 -13 49q0 41 18.5 74t47.5 56t66.5 35.5t74.5 12.5q33 0 62.5 -9.5t55 -27t45 -40.5t30.5 -52q2 -4 2.5 -9t0.5 -9q0 -18 -12.5 -32.5t-33.5 -14.5q-12 0 -20 5.5t-14 14t-12 19t-17 22.5q-19 18 -42.5 28.5t-47.5 10.5q-20 0 -40 -6.5t-35.5 -18.5
t-25.5 -27t-10 -32q0 -6 8.5 -10.5t23 -8.5t33 -7t38.5 -7q39 -8 78 -18.5t70 -28t50 -45.5t19 -70q0 -13 -3.5 -27.5t-8.5 -27.5t-10.5 -23.5t-10.5 -17.5q-7 -9 -15 -18q21 -13 34 -32q14 -20 14 -49q0 -41 -18.5 -74t-47.5 -56t-66.5 -35.5t-74.5 -12.5q-33 0 -62.5 9.5
t-55 27t-45 40.5t-30.5 52q-2 4 -2.5 9t-0.5 9q0 18 12.5 32.5t33.5 14.5q12 0 20 -5.5t14 -14t12 -19t17 -22.5q19 -18 42.5 -28.5t47.5 -10.5q20 0 40 6.5t35.5 18.5t25.5 27t10 32q0 6 -8.5 10.5t-23 8.5t-33 7t-38.5 7q-39 8 -78 18.5t-70 28t-50 45.5t-19 70
q0 13 3.5 27.5t8.5 27.5t10.5 23.5t10.5 17.5q6 9 14 17q-21 14 -34 33zM322 290q17 12 27 27.5t10 34.5q0 17 -13.5 29t-36 20t-51.5 14t-59 12h-1q-18 -7 -28 -14q-16 -11 -26 -26.5t-10 -34.5q0 -17 13.5 -29t36 -20t51.5 -14l58 -12l2 -1q18 8 27 14z" />
    <glyph glyph-name="copyright" unicode="&#xa9;" horiz-adv-x="559" 
d="M279 551q50 0 93 -18.5t75 -50.5t50.5 -75.5t18.5 -92.5q0 -50 -18.5 -93.5t-50.5 -76t-75 -50.5t-93 -18q-49 0 -92 18t-76 50.5t-51.5 76t-18.5 93.5q0 49 18.5 92.5t51.5 75.5t76 50.5t92 18.5zM279 499q-38 0 -71.5 -15t-56.5 -39q-28 -25 -41.5 -58t-13.5 -71
q0 -41 13.5 -74t41.5 -57q23 -27 56.5 -41t71.5 -14q36 0 70 14t59 41q25 24 39.5 57t17.5 74q-3 38 -17.5 71t-39.5 58q-25 24 -59 39t-70 15zM330 230q8 9 20 9q10 0 18 -6q9 -8 9 -21q0 -10 -7 -18q-16 -19 -39 -29.5t-50 -10.5q-25 0 -46 9t-38 26q-16 17 -25.5 38
t-9.5 46v77q0 25 9.5 46.5t25.5 37.5t37 25.5t46 9.5h1q20 0 34.5 -4.5t25.5 -11t18 -13.5l11 -11q7 -8 7 -18q0 -5 -2 -10.5t-7 -9.5q-7 -7 -18 -7q-5 0 -10.5 2.5t-9.5 6.5q-2 3 -6 7t-9.5 7.5t-13.5 5.5t-20 2q-13 0 -25 -5t-21 -14t-14.5 -21t-5.5 -25v-77
q0 -14 5.5 -25.5t14.5 -20.5t21.5 -14t25.5 -5t26 5t22 17z" />
    <glyph glyph-name="guillemotleft" unicode="&#xab;" horiz-adv-x="531" 
d="M-13 271v8q0 23 18 38l254 202q11 10 29 10q19 0 33.5 -13t14.5 -33q0 -25 -18 -38l-211 -168l211 -168q18 -15 18 -38q0 -20 -14.5 -33t-33.5 -13q-18 0 -29 10l-254 202q-16 13 -18 34zM198 271v8q0 23 18 38l254 202q11 10 29 10q19 0 33.5 -13t14.5 -33
q0 -25 -18 -38l-211 -168l211 -168q18 -15 18 -38q0 -20 -14.5 -33t-33.5 -13q-18 0 -29 10l-254 202q-16 13 -18 34z" />
    <glyph glyph-name="uni00AD" unicode="&#xad;" horiz-adv-x="349" 
d="M106 252q-20 0 -34 14t-14 33q0 20 14 33.5t34 13.5h136q19 0 33 -13.5t14 -33.5q0 -19 -14 -33t-33 -14h-136z" />
    <glyph glyph-name="registered" unicode="&#xae;" horiz-adv-x="560" 
d="M279 551q50 0 93 -18.5t75 -50.5t50.5 -75.5t18.5 -92.5q0 -50 -18.5 -93.5t-50.5 -76t-75 -50.5t-93 -18q-49 0 -92 18t-76 50.5t-51.5 76t-18.5 93.5q0 49 18.5 92.5t51.5 75.5t76 50.5t92 18.5zM279 499q-38 0 -71.5 -15t-56.5 -39q-28 -25 -41.5 -58t-13.5 -71
q0 -41 13.5 -74t41.5 -57q23 -27 56.5 -41t71.5 -14q36 0 70 14t59 41q25 24 39.5 57t17.5 74q-3 38 -17.5 71t-39.5 58q-25 24 -59 39t-70 15zM283 293q11 0 20.5 3.5t17 9.5t12.5 15t5 20v25q0 13 -5.5 22t-13.5 14.5t-19.5 8.5t-21.5 3q-6 0 -13.5 -0.5l-15 -1t-12.5 -2
t-9 -2.5v-115h55zM228 247v-51q0 -9 -6.5 -15t-16.5 -6q-9 0 -15.5 6t-6.5 15v212q0 18 10 28.5t25.5 15t33.5 6t31 1.5q20 0 37.5 -6.5t31.5 -19t22 -29.5t8 -38v-25q0 -23 -8.5 -40t-24.5 -30q16 -12 25 -30.5t9 -40.5v-4q0 -9 -6.5 -15t-15.5 -6q-11 0 -17 6t-6 15v4
q0 12 -5 21t-12.5 14.5t-17 8.5t-20.5 3h-55z" />
    <glyph glyph-name="macron" unicode="&#xaf;" horiz-adv-x="500" 
d="M163 622q-19 0 -33 14t-14 34q0 19 14 33t33 14h187q19 0 33 -14t14 -33q0 -20 -14 -34t-33 -14h-187z" />
    <glyph glyph-name="degree" unicode="&#xb0;" horiz-adv-x="319" 
d="M161 728q24 0 46 -9.5t38 -25.5t25.5 -38t9.5 -46q0 -25 -9.5 -47t-25.5 -38t-38 -25.5t-46 -9.5q-25 0 -47 9.5t-38 25.5t-25.5 38t-9.5 47q0 24 9.5 46t25.5 38t38 25.5t47 9.5zM161 658q-11 0 -19.5 -3.5t-15.5 -11t-11 -16t-4 -18.5q0 -22 15 -36t36 -14q9 0 18 4
t16 11t10.5 15.5t3.5 19.5q0 10 -3.5 18.5t-11 16t-16 11t-18.5 3.5z" />
    <glyph glyph-name="plusminus" unicode="&#xb1;" horiz-adv-x="542" 
d="M107 18q-20 0 -34 14t-14 33q0 20 14 33.5t34 13.5h325q19 0 33 -13.5t14 -33.5q0 -19 -14 -33t-33 -14h-325zM316 182q0 -20 -14 -34t-34 -14q-19 0 -33 14t-14 34v114h-115q-20 0 -34 14t-14 33q0 20 14 33.5t34 13.5h115v116q0 20 14 33.5t33 13.5q20 0 34 -13.5
t14 -33.5v-116h115q19 0 33 -13.5t14 -33.5q0 -19 -14 -33t-33 -14h-115v-114z" />
    <glyph glyph-name="twosuperior" unicode="&#xb2;" horiz-adv-x="244" 
d="M216 357q12 0 20.5 -8t8.5 -20q0 -11 -8.5 -19.5t-20.5 -8.5h-153q-17 0 -28.5 5.5t-19.5 14t-11.5 19.5t-3.5 21q0 12 3.5 23.5t10.5 19.5q9 11 25 26.5t35.5 33.5t40 37t37 37t27 33.5t10.5 26.5q0 17 -5 31t-14 23.5t-21 15t-26 5.5q-30 -1 -46 -13t-24 -33
q-3 -9 -10.5 -14t-15.5 -5q-13 0 -20 8.5t-7 19.5q0 4 1 8q7 21 19.5 36.5t28 26t34 15.5t38.5 5q26 0 48 -9t39 -26t27 -41t10 -53q0 -18 -11 -38.5t-28 -41.5t-38 -41.5t-42 -39.5t-39.5 -36.5t-29.5 -31.5q-3 -3 -3 -6q0 -6 9 -6h153z" />
    <glyph glyph-name="threesuperior" unicode="&#xb3;" horiz-adv-x="249" 
d="M60 626q-3 -9 -10 -14t-17 -5q-4 0 -9 2q-8 3 -13 10t-5 16q0 2 0.5 4.5t0.5 4.5q4 12 8.5 20.5t11.5 17.5q18 22 42.5 33.5t53.5 11.5q24 0 46 -8t39 -22.5t27.5 -35.5t10.5 -46t-12 -48.5t-30 -37.5q21 -17 32 -43t11 -57q0 -27 -8.5 -51t-24.5 -41t-38.5 -27.5
t-51.5 -10.5q-27 0 -49.5 9.5t-39 26t-26 39.5t-9.5 50v2q0 12 8 20t19 8q13 0 21 -8t8 -20q0 -16 5 -29t13.5 -22.5t21 -14.5t27.5 -5q17 0 30 5.5t21.5 15.5t12.5 23.5t4 29.5q0 15 -5 28.5t-13.5 23.5t-20.5 15.5t-26 5.5h-3q-12 0 -19.5 8.5t-7.5 19.5q0 12 7.5 19.5
t19.5 7.5q13 0 25 4t21 11t15 17.5t6 23.5q0 15 -6 25.5t-15 17.5t-21 11t-25 4q-23 0 -39.5 -12.5t-23.5 -32.5z" />
    <glyph glyph-name="acute" unicode="&#xb4;" horiz-adv-x="161" 
d="M48 721q4 16 16.5 25t28.5 9h6.5t6.5 -1q16 -4 25.5 -16.5t9.5 -29.5q0 -3 -0.5 -5.5t-1.5 -5.5l-21 -78q-4 -16 -16.5 -25t-27.5 -9h-7t-6 1q-16 4 -25.5 16.5t-9.5 28.5q0 4 0.5 6.5t0.5 5.5z" />
    <glyph glyph-name="mu" unicode="&#xb5;" horiz-adv-x="538" 
d="M382 362v4v143q0 19 13.5 32.5t33.5 13.5t34 -13.5t14 -32.5v-404q0 -9 -1 -17v-144q0 -19 -13.5 -33t-33.5 -14q-19 0 -33 14t-14 33v65q-26 -6 -53 -7q-36 -1 -62 -1q-42 0 -80 14q-18 7 -34 16v-154q0 -19 -13.5 -33t-33.5 -14q-19 0 -33 14t-14 33v309v9v311
q0 21 13.5 34.5t33.5 13.5q19 0 32.5 -13.5t13.5 -34.5v-200q1 -5 1 -11v-115q2 -17 11 -30q12 -19 30 -31t41.5 -18t47.5 -6q13 0 27.5 1t28 2.5t25 3.5t18.5 3v257z" />
    <glyph glyph-name="cedilla" unicode="&#xb8;" horiz-adv-x="833" 
d="M496 37q21 -21 34.5 -44.5t13.5 -41.5q0 -53 -32.5 -84t-77.5 -31q-15 0 -33.5 5t-35 15t-28 25.5t-11.5 36.5q-2 15 6.5 24.5t27 8.5t27 -17.5t28 -24t37.5 3.5t18 38q0 15 -17.5 35t-35.5 38q-6 6 2 13h77z" />
    <glyph glyph-name="onesuperior" unicode="&#xb9;" horiz-adv-x="103" 
d="M104 329q0 -12 -8 -20t-20 -8q-11 0 -19 8t-8 20v286q-8 -9 -20 -9q-5 0 -9 1t-8 4q-6 4 -8.5 9.5t-2.5 13.5q0 9 5 16l48 64q3 6 9 9t13 3q12 0 20 -8t8 -19v-370z" />
    <glyph glyph-name="guillemotright" unicode="&#xbb;" horiz-adv-x="528" 
d="M547 271q-2 -21 -18 -34l-254 -202q-11 -10 -29 -10q-19 0 -33.5 13t-14.5 33q0 23 18 38l211 168l-211 168q-18 13 -18 38q0 20 14.5 33t33.5 13q18 0 29 -10l254 -202q18 -15 18 -38v-8zM336 271q-2 -21 -18 -34l-254 -202q-11 -10 -29 -10q-19 0 -33.5 13t-14.5 33
q0 23 18 38l211 168l-211 168q-18 13 -18 38q0 20 14.5 33t33.5 13q18 0 29 -10l254 -202q18 -15 18 -38v-8z" />
    <glyph glyph-name="questiondown" unicode="&#xbf;" 
d="M249 634q-20 0 -33.5 13.5t-13.5 32.5q0 20 13.5 34t33.5 14t34 -14t14 -34q0 -19 -14 -32.5t-34 -13.5zM201 507q0 19 13 33t34 14q19 0 32.5 -12t15.5 -30l1 -10q0 -20 -7 -38.5t-19 -34.5q-18 -24 -41.5 -48.5t-44.5 -50t-35.5 -52.5t-14.5 -57q0 -26 7.5 -49
t21.5 -40.5t35 -27.5t47 -10q87 0 120 78q6 15 17.5 23.5t26.5 8.5q4 0 8 -0.5t7 -1.5q15 -5 24 -18t9 -28q0 -6 -2 -14q-12 -34 -32.5 -60.5t-47.5 -44t-59 -27t-67 -9.5q-45 0 -83.5 16.5t-66.5 46t-44 69.5t-16 86q0 43 15.5 79.5t38.5 68.5t51 62t53 60q3 6 3 14v4z" />
    <glyph glyph-name="Agrave" unicode="&#xc0;" 
d="M455 61q1 -3 1.5 -6t0.5 -6q0 -18 -13 -32.5t-34 -14.5q-15 0 -28.5 10t-17.5 26l-49 192h-134l-49 -192q-4 -16 -17 -26t-29 -10q-21 0 -34 14.5t-13 32.5v5q0 3 2 7l161 630q5 15 18 25t29 10q15 0 27.5 -10.5t16.5 -24.5zM291 817q0 -3 0.5 -5.5t0.5 -6.5
q0 -16 -9.5 -28.5t-25.5 -16.5q-3 -1 -6 -1h-7q-15 0 -27.5 9t-16.5 25l-21 78q-1 3 -1.5 5.5t-0.5 5.5q0 17 9.5 29.5t25.5 16.5q4 1 6 1h7q16 0 28.5 -9t16.5 -25zM291 324l-44 167l-42 -167h86z" />
    <glyph glyph-name="Aacute" unicode="&#xc1;" 
d="M455 61q1 -3 1.5 -6t0.5 -6q0 -18 -13 -32.5t-34 -14.5q-15 0 -28.5 10t-17.5 26l-49 192h-134l-49 -192q-4 -16 -17 -26t-29 -10q-21 0 -34 14.5t-13 32.5v5q0 3 2 7l161 630q5 15 18 25t29 10q15 0 27.5 -10.5t16.5 -24.5zM226 902q4 16 16.5 25t28.5 9h6q3 0 7 -1
q16 -4 25.5 -16.5t9.5 -29.5q0 -3 -0.5 -5.5t-1.5 -5.5l-21 -78q-4 -16 -16.5 -25t-27.5 -9h-7q-3 0 -6 1q-16 4 -25.5 16.5t-9.5 28.5q0 4 0.5 6.5t0.5 5.5zM291 324l-44 167l-42 -167h86z" />
    <glyph glyph-name="Acircumflex" unicode="&#xc2;" 
d="M455 61q1 -3 1.5 -6t0.5 -6q0 -18 -13 -32.5t-34 -14.5q-15 0 -28.5 10t-17.5 26l-49 192h-134l-49 -192q-4 -16 -17 -26t-29 -10q-21 0 -34 14.5t-13 32.5v5q0 3 2 7l161 630q5 15 18 25t29 10q15 0 27.5 -10.5t16.5 -24.5zM399 852q2 -2 4 -3.5t4 -4.5q11 -13 11 -28.5
t-9 -28.5q-3 -2 -5 -4.5t-5 -4.5q-11 -10 -27 -11t-29 10l-65 46q-3 3 -5.5 4t-4.5 4q-9 12 -10 28.5t9 28.5q3 5 5 6t5 4q11 10 27 11t30 -9zM160 900q14 10 30 9t27 -11q3 -3 5 -4t5 -6q10 -12 9 -28.5t-10 -28.5q-2 -3 -4.5 -4t-5.5 -4l-65 -46q-13 -11 -29 -10t-27 11
q-3 2 -5 4.5t-5 4.5q-9 13 -9 28.5t11 28.5q2 3 4 4.5t4 3.5zM291 324l-44 167l-42 -167h86z" />
    <glyph glyph-name="Atilde" unicode="&#xc3;" 
d="M455 61q1 -3 1.5 -6t0.5 -6q0 -18 -13 -32.5t-34 -14.5q-15 0 -28.5 10t-17.5 26l-49 192h-134l-49 -192q-4 -16 -17 -26t-29 -10q-21 0 -34 14.5t-13 32.5v5q0 3 2 7l161 630q5 15 18 25t29 10q15 0 27.5 -10.5t16.5 -24.5zM267 839q2 -2 9.5 -6t22.5 -4t28.5 8t21.5 25
q8 12 21 12q18 0 27 -9.5t9 -27.5q0 -14 -7 -26q-16 -27 -44.5 -41.5t-56.5 -14.5q-35 0 -60 23t-43.5 24t-33 -8.5t-21.5 -26.5q-10 -12 -22 -12q-18 0 -27 9t-9 28q0 14 7 26q17 27 43 41.5t60.5 13.5t74.5 -34zM291 324l-44 167l-42 -167h86z" />
    <glyph glyph-name="Adieresis" unicode="&#xc4;" 
d="M455 61q1 -3 1.5 -6t0.5 -6q0 -18 -13 -32.5t-34 -14.5q-15 0 -28.5 10t-17.5 26l-49 192h-134l-49 -192q-4 -16 -17 -26t-29 -10q-21 0 -34 14.5t-13 32.5v5q0 3 2 7l161 630q5 15 18 25t29 10q15 0 27.5 -10.5t16.5 -24.5zM291 324l-44 167l-42 -167h86zM152 765
q-19 0 -33 14t-14 33q0 20 14 33.5t33 13.5q20 0 34 -13.5t14 -33.5q0 -19 -14 -33t-34 -14zM347 765q-19 0 -33 14t-14 33q0 20 14 33.5t33 13.5q20 0 34 -13.5t14 -33.5q0 -19 -14 -33t-34 -14z" />
    <glyph glyph-name="Aring" unicode="&#xc5;" 
d="M455 61q1 -3 1.5 -6t0.5 -6q0 -18 -13 -32.5t-34 -14.5q-15 0 -28.5 10t-17.5 26l-49 192h-134l-49 -192q-4 -16 -17 -26t-29 -10q-21 0 -34 14.5t-13 32.5v5q0 3 2 7l161 630q5 15 18 25t29 10q15 0 27.5 -10.5t16.5 -24.5zM246 928q21 0 38.5 -7.5t31.5 -21t21.5 -31.5
t7.5 -39q0 -20 -7.5 -38t-21 -32t-31.5 -21.5t-39 -7.5q-20 0 -38.5 7.5t-31.5 21.5t-21 32t-8 38q0 21 8 39t21.5 31.5t31.5 21t38 7.5zM291 324l-44 167l-42 -167h86zM246 870q-8 0 -15.5 -2.5t-13.5 -9t-9 -14t-3 -15.5q0 -18 12 -29.5t30 -11.5q8 0 15.5 3t13.5 9
t8.5 13.5t2.5 15.5t-2.5 15.5t-9 14t-14 9t-15.5 2.5z" />
    <glyph glyph-name="AE" unicode="&#xc6;" horiz-adv-x="801" 
d="M715 724q20 0 33.5 -13.5t13.5 -33.5t-13.5 -33.5t-33.5 -13.5h-275l-1 -191h196q19 0 33 -14t14 -33q0 -20 -14 -33.5t-33 -13.5h-196v-247q0 -2 2.5 -3.5t11.5 -1.5h262q20 0 33.5 -13.5t13.5 -33.5t-13.5 -33.5t-33.5 -13.5h-262q-37 0 -58.5 7.5t-32.5 20.5t-14 31.5
t-3 39.5v138h-110l-105 -209q-6 -12 -17.5 -19t-24.5 -7q-21 0 -34 15t-13 32q0 11 5 21l316 633q11 17 41 21q7 1 20 1h292zM345 455l-63 -125h63v125z" />
    <glyph glyph-name="Ccedilla" unicode="&#xc7;" horiz-adv-x="469" 
d="M355 133q14 15 35 15t33.5 -14.5t12.5 -33.5q0 -17 -11 -29q-30 -34 -70 -53l-16 -6q7 -10 12 -19q14 -24 14 -42q0 -53 -32.5 -84t-77.5 -31q-15 0 -33.5 5t-35 15t-28 25.5t-11.5 36.5q-2 15 6.5 24.5t27 8.5t27 -17.5t28 -24t37.5 3.5t18 38q0 15 -18 35l-12 14
q-39 1 -74 16q-37 17 -65.5 45.5t-45 66t-16.5 80.5v309q0 43 16.5 81t45 66t66 44.5t81.5 16.5q54 0 90 -18.5t66 -52.5q12 -13 12 -30q0 -18 -13.5 -32.5t-33.5 -14.5q-16 0 -26.5 8.5t-22.5 19t-28.5 18.5t-43.5 8q-23 0 -43.5 -8t-36.5 -23.5t-25.5 -36t-9.5 -46.5v-309
q0 -20 7.5 -40t22.5 -36.5t36 -27t49 -10.5t51 13t35 26z" />
    <glyph glyph-name="Egrave" unicode="&#xc8;" 
d="M430 724q20 0 33.5 -13.5t13.5 -33.5t-13.5 -33.5t-33.5 -13.5h-116q-47 0 -77.5 -0.5t-47.5 -0.5t-24.5 -0.5t-9.5 -0.5l-1 -1v-188h196q19 0 33 -14t14 -33q0 -20 -14 -33.5t-33 -13.5h-196v-247q0 -2 2.5 -3.5t11.5 -1.5h262q20 0 33.5 -13.5t13.5 -33.5t-13.5 -33.5
t-33.5 -13.5h-262q-37 0 -58.5 7.5t-32.5 20.5t-14 31.5t-3 39.5v530q0 21 3.5 38.5t14.5 30.5t32.5 20t57.5 7h262zM314 817q0 -3 0.5 -5.5t0.5 -6.5q0 -16 -9.5 -28.5t-25.5 -16.5q-3 -1 -6 -1h-7q-15 0 -27.5 9t-16.5 25l-21 78q-1 3 -1.5 5.5t-0.5 5.5q0 17 9.5 29.5
t25.5 16.5q4 1 6 1h7q16 0 28.5 -9t16.5 -25z" />
    <glyph glyph-name="Eacute" unicode="&#xc9;" 
d="M430 724q20 0 33.5 -13.5t13.5 -33.5t-13.5 -33.5t-33.5 -13.5h-275l-1 -191h196q19 0 33 -14t14 -33q0 -20 -14 -33.5t-33 -13.5h-196v-247q0 -2 2.5 -3.5t11.5 -1.5h262q20 0 33.5 -13.5t13.5 -33.5t-13.5 -33.5t-33.5 -13.5h-262q-37 0 -58.5 7.5t-32.5 20.5t-14 31.5
t-3 39.5v530q0 21 3.5 38.5t14.5 30.5t32.5 20t57.5 7h262zM242 895q4 16 16.5 25t28.5 9h6q3 0 7 -1q16 -4 25.5 -16.5t9.5 -29.5q0 -3 -0.5 -5.5t-1.5 -5.5l-21 -78q-4 -16 -16.5 -25t-27.5 -9h-7q-3 0 -6 1q-16 4 -25.5 16.5t-9.5 28.5q0 4 0.5 6.5t0.5 5.5z" />
    <glyph glyph-name="Ecircumflex" unicode="&#xca;" 
d="M172 900q14 10 30 9t27 -11q3 -3 5 -4t5 -6q10 -12 9 -28.5t-10 -28.5q-2 -3 -4.5 -4t-5.5 -4l-65 -46q-13 -11 -29 -10t-27 11q-3 2 -5 4.5t-5 4.5q-9 13 -9 28.5t11 28.5q2 3 4 4.5t4 3.5zM346 900q-14 10 -30 9t-27 -11q-3 -3 -5 -4t-5 -6q-10 -12 -9 -28.5t10 -28.5
q2 -3 4.5 -4t5.5 -4l65 -46q13 -11 29 -10t27 11q3 2 5 4.5t5 4.5q9 13 9 28.5t-11 28.5q-2 3 -4 4.5t-4 3.5zM430 724q20 0 33.5 -13.5t13.5 -33.5t-13.5 -33.5t-33.5 -13.5h-275l-1 -191h196q19 0 33 -14t14 -33q0 -20 -14 -33.5t-33 -13.5h-196v-247q0 -2 2.5 -3.5
t11.5 -1.5h262q20 0 33.5 -13.5t13.5 -33.5t-13.5 -33.5t-33.5 -13.5h-262q-37 0 -58.5 7.5t-32.5 20.5t-14 31.5t-3 39.5v530q0 21 3.5 38.5t14.5 30.5t32.5 20t57.5 7h262z" />
    <glyph glyph-name="Edieresis" unicode="&#xcb;" 
d="M165 765q-19 0 -33 14t-14 33q0 20 14 33.5t33 13.5q20 0 34 -13.5t14 -33.5q0 -19 -14 -33t-34 -14zM361 765q-19 0 -33 14t-14 33q0 20 14 33.5t33 13.5q20 0 34 -13.5t14 -33.5q0 -19 -14 -33t-34 -14zM430 724q20 0 33.5 -13.5t13.5 -33.5t-13.5 -33.5t-33.5 -13.5
h-275l-1 -191h196q19 0 33 -14t14 -33q0 -20 -14 -33.5t-33 -13.5h-196v-247q0 -2 2.5 -3.5t11.5 -1.5h262q20 0 33.5 -13.5t13.5 -33.5t-13.5 -33.5t-33.5 -13.5h-262q-37 0 -58.5 7.5t-32.5 20.5t-14 31.5t-3 39.5v530q0 21 3.5 38.5t14.5 30.5t32.5 20t57.5 7h262z" />
    <glyph glyph-name="Igrave" unicode="&#xcc;" horiz-adv-x="215" 
d="M59 678q0 19 14 33t33 14q20 0 33.5 -14t13.5 -33v-630q0 -20 -13.5 -33.5t-33.5 -13.5q-19 0 -33 13.5t-14 33.5v630zM149 817q0 -3 0.5 -5.5t0.5 -6.5q0 -16 -9.5 -28.5t-25.5 -16.5q-3 -1 -6 -1h-7q-15 0 -27.5 9t-16.5 25l-21 78q-1 3 -1.5 5.5t-0.5 5.5
q0 17 9.5 29.5t25.5 16.5q4 1 6 1h7q16 0 28.5 -9t16.5 -25z" />
    <glyph glyph-name="Iacute" unicode="&#xcd;" horiz-adv-x="215" 
d="M59 678q0 19 14 33t33 14q20 0 33.5 -14t13.5 -33v-630q0 -20 -13.5 -33.5t-33.5 -13.5q-19 0 -33 13.5t-14 33.5v630zM85 895q4 16 16.5 25t28.5 9h6q3 0 7 -1q16 -4 25.5 -16.5t9.5 -29.5q0 -3 -0.5 -5.5t-1.5 -5.5l-21 -78q-4 -16 -16.5 -25t-27.5 -9h-7q-3 0 -6 1
q-16 4 -25.5 16.5t-9.5 28.5q0 4 0.5 6.5t0.5 5.5z" />
    <glyph glyph-name="Icircumflex" unicode="&#xce;" horiz-adv-x="215" 
d="M15 900q14 10 30 9t27 -11q3 -3 5 -4t5 -6q10 -12 9 -28.5t-10 -28.5q-2 -3 -4.5 -4t-5.5 -4l-65 -46q-13 -11 -29 -10t-27 11q-3 2 -5 4.5t-5 4.5q-9 13 -9 28.5t11 28.5q2 3 4 4.5t4 3.5zM189 900q-14 10 -30 9t-27 -11q-3 -3 -5 -4t-5 -6q-10 -12 -9 -28.5t10 -28.5
q2 -3 4.5 -4t5.5 -4l65 -46q13 -11 29 -10t27 11q3 2 5 4.5t5 4.5q9 13 9 28.5t-11 28.5q-2 3 -4 4.5t-4 3.5zM59 678q0 19 14 33t33 14q20 0 33.5 -14t13.5 -33v-630q0 -20 -13.5 -33.5t-33.5 -13.5q-19 0 -33 13.5t-14 33.5v630z" />
    <glyph glyph-name="Idieresis" unicode="&#xcf;" horiz-adv-x="215" 
d="M8 765q-19 0 -33 14t-14 33q0 20 14 33.5t33 13.5q20 0 34 -13.5t14 -33.5q0 -19 -14 -33t-34 -14zM204 765q-19 0 -33 14t-14 33q0 20 14 33.5t33 13.5q20 0 34 -13.5t14 -33.5q0 -19 -14 -33t-34 -14zM59 678q0 19 14 33t33 14q20 0 33.5 -14t13.5 -33v-630
q0 -20 -13.5 -33.5t-33.5 -13.5q-19 0 -33 13.5t-14 33.5v630z" />
    <glyph glyph-name="Eth" unicode="&#xd0;" horiz-adv-x="522" 
d="M47 236q-20 0 -34 14t-14 33q0 20 14 33.5t34 13.5h12v291q0 26 10.5 44t28 30t39.5 18t45.5 9.5t46 4t40.5 0.5q40 0 78 -14t66.5 -39.5t46 -61t17.5 -79.5v-337q0 -45 -18 -80.5t-47 -61t-66.5 -39t-76.5 -13.5q-31 0 -68 2t-68.5 12t-52.5 31t-21 59v130h-12zM153 106
q0 -2 12.5 -3.5t30 -3t37.5 -2.5t36 -1q21 0 41.5 7t36.5 20t26 31.5t10 41.5v337q0 26 -11 45t-29 31t-41 18t-47 6q-13 0 -28 -1t-29 -2.5t-26 -3.5t-19 -3v-293h88q19 0 33 -13.5t14 -33.5q0 -19 -14 -33t-33 -14h-88v-130z" />
    <glyph glyph-name="Ntilde" unicode="&#xd1;" horiz-adv-x="540" 
d="M61 675q0 19 13.5 33t33.5 14q14 0 25.5 -8t17.5 -22l232 -452v435q0 19 13.5 33t33.5 14q19 0 33 -14t14 -33v-630q0 -15 -5 -24.5t-11.5 -14.5t-13 -6.5t-10.5 -1.5q-13 0 -21.5 3t-14.5 7.5t-9 8.5l-5 8l-233 455v-435q0 -20 -13.5 -33.5t-32.5 -13.5
q-20 0 -33.5 13.5t-13.5 33.5v630zM291 839q2 -2 9.5 -6t22.5 -4t28.5 8t21.5 25q8 12 21 12q18 0 27 -9.5t9 -27.5q0 -14 -7 -26q-16 -27 -44.5 -41.5t-56.5 -14.5q-35 0 -60 23t-43.5 24t-33 -8.5t-21.5 -26.5q-10 -12 -22 -12q-18 0 -27 9t-9 28q0 14 7 26q17 27 43 41.5
t60.5 13.5t74.5 -34z" />
    <glyph glyph-name="Ograve" unicode="&#xd2;" 
d="M40 514q0 44 15 82t43 66.5t66.5 44.5t85.5 16q42 0 80.5 -16.5t66.5 -44.5t44.5 -66.5t16.5 -82.5v-305q0 -43 -16.5 -80.5t-44.5 -66t-66.5 -45t-80.5 -16.5t-80.5 16.5t-67 44t-45.5 64.5t-17 77v312zM134 206q0 -23 9.5 -43.5t25.5 -35.5t36.5 -24t43.5 -9t43.5 9.5
t36.5 24.5t25.5 35.5t9.5 43.5v307q0 24 -9 45.5t-24.5 37.5t-36.5 25t-45 9t-45 -9t-36.5 -25.5t-24.5 -37.5t-9 -45v-308zM291 817q0 -3 0.5 -5.5t0.5 -6.5q0 -16 -9.5 -28.5t-25.5 -16.5q-3 -1 -6 -1h-7q-15 0 -27.5 9t-16.5 25l-21 78q-1 3 -1.5 5.5t-0.5 5.5
q0 17 9.5 29.5t25.5 16.5q4 1 6 1h7q16 0 28.5 -9t16.5 -25z" />
    <glyph glyph-name="Oacute" unicode="&#xd3;" 
d="M40 514q0 44 15 82t43 66.5t66.5 44.5t85.5 16q42 0 80.5 -16.5t66.5 -44.5t44.5 -66.5t16.5 -82.5v-305q0 -43 -16.5 -80.5t-44.5 -66t-66.5 -45t-80.5 -16.5t-80.5 16.5t-67 44t-45.5 64.5t-17 77v312zM134 206q0 -23 9.5 -43.5t25.5 -35.5t36.5 -24t43.5 -9t43.5 9.5
t36.5 24.5t25.5 35.5t9.5 43.5v307q0 24 -9 45.5t-24.5 37.5t-36.5 25t-45 9t-45 -9t-36.5 -25.5t-24.5 -37.5t-9 -45v-308zM231 895q4 16 16.5 25t28.5 9h6q3 0 7 -1q16 -4 25.5 -16.5t9.5 -29.5q0 -3 -0.5 -5.5t-1.5 -5.5l-21 -78q-4 -16 -16.5 -25t-27.5 -9h-7q-3 0 -6 1
q-16 4 -25.5 16.5t-9.5 28.5q0 4 0.5 6.5t0.5 5.5z" />
    <glyph glyph-name="Ocircumflex" unicode="&#xd4;" 
d="M160 900q14 10 30 9t27 -11q3 -3 5 -4t5 -6q10 -12 9 -28.5t-10 -28.5q-2 -3 -4.5 -4t-5.5 -4l-65 -46q-13 -11 -29 -10t-27 11q-3 2 -5 4.5t-5 4.5q-9 13 -9 28.5t11 28.5q2 3 4 4.5t4 3.5zM334 900q-14 10 -30 9t-27 -11q-3 -3 -5 -4t-5 -6q-10 -12 -9 -28.5t10 -28.5
q2 -3 4.5 -4t5.5 -4l65 -46q13 -11 29 -10t27 11q3 2 5 4.5t5 4.5q9 13 9 28.5t-11 28.5q-2 3 -4 4.5t-4 3.5zM40 514q0 44 15 82t43 66.5t66.5 44.5t85.5 16q42 0 80.5 -16.5t66.5 -44.5t44.5 -66.5t16.5 -82.5v-305q0 -43 -16.5 -80.5t-44.5 -66t-66.5 -45t-80.5 -16.5
t-80.5 16.5t-67 44t-45.5 64.5t-17 77v312zM134 206q0 -23 9.5 -43.5t25.5 -35.5t36.5 -24t43.5 -9t43.5 9.5t36.5 24.5t25.5 35.5t9.5 43.5v307q0 24 -9 45.5t-24.5 37.5t-36.5 25t-45 9t-45 -9t-36.5 -25.5t-24.5 -37.5t-9 -45v-308z" />
    <glyph glyph-name="Otilde" unicode="&#xd5;" 
d="M267 839q2 -2 9.5 -6t22.5 -4t28.5 8t21.5 25q8 12 21 12q18 0 27 -9.5t9 -27.5q0 -14 -7 -26q-16 -27 -44.5 -41.5t-56.5 -14.5q-35 0 -60 23t-43.5 24t-33 -8.5t-21.5 -26.5q-10 -12 -22 -12q-18 0 -27 9t-9 28q0 14 7 26q17 27 43 41.5t60.5 13.5t74.5 -34zM40 514
q0 44 15 82t43 66.5t66.5 44.5t85.5 16q42 0 80.5 -16.5t66.5 -44.5t44.5 -66.5t16.5 -82.5v-305q0 -43 -16.5 -80.5t-44.5 -66t-66.5 -45t-80.5 -16.5t-80.5 16.5t-67 44t-45.5 64.5t-17 77v312zM134 206q0 -23 9.5 -43.5t25.5 -35.5t36.5 -24t43.5 -9t43.5 9.5t36.5 24.5
t25.5 35.5t9.5 43.5v307q0 24 -9 45.5t-24.5 37.5t-36.5 25t-45 9t-45 -9t-36.5 -25.5t-24.5 -37.5t-9 -45v-308z" />
    <glyph glyph-name="Odieresis" unicode="&#xd6;" 
d="M151 765q-19 0 -33 14t-14 33q0 20 14 33.5t33 13.5q20 0 34 -13.5t14 -33.5q0 -19 -14 -33t-34 -14zM347 765q-19 0 -33 14t-14 33q0 20 14 33.5t33 13.5q20 0 34 -13.5t14 -33.5q0 -19 -14 -33t-34 -14zM40 514q0 44 15 82t43 66.5t66.5 44.5t85.5 16q42 0 80.5 -16.5
t66.5 -44.5t44.5 -66.5t16.5 -82.5v-305q0 -43 -16.5 -80.5t-44.5 -66t-66.5 -45t-80.5 -16.5t-80.5 16.5t-67 44t-45.5 64.5t-17 77v312zM134 206q0 -23 9.5 -43.5t25.5 -35.5t36.5 -24t43.5 -9t43.5 9.5t36.5 24.5t25.5 35.5t9.5 43.5v307q0 24 -9 45.5t-24.5 37.5
t-36.5 25t-45 9t-45 -9t-36.5 -25.5t-24.5 -37.5t-9 -45v-308z" />
    <glyph glyph-name="multiply" unicode="&#xd7;" horiz-adv-x="407" 
d="M164 409q0 20 10.5 30t25.5 10t26.5 -10t11.5 -30v-19l12 14q14 14 30 14q15 0 26 -12q5 -5 8.5 -11.5t3.5 -15.5q0 -15 -14 -29l-14 -12h21q19 0 29.5 -11.5t10.5 -26.5t-10.5 -26.5t-29.5 -11.5h-21l14 -12q14 -14 14 -29q0 -14 -12 -26q-5 -6 -11.5 -8.5t-14.5 -2.5
q-16 0 -30 12l-12 14v-19q0 -20 -11.5 -30t-26.5 -10t-25.5 10t-10.5 30v19l-13 -14q-15 -12 -30 -12q-7 0 -13.5 2.5t-12.5 8.5q-10 12 -10 26q0 15 11 29l15 12h-20q-20 0 -30 11.5t-10 26.5t10 26.5t30 11.5h20l-15 12q-11 14 -11 29q0 9 3 15.5t7 11.5q13 12 26 12
q15 0 30 -14l13 -14v19z" />
    <glyph glyph-name="Oslash" unicode="&#xd8;" 
d="M40 514q0 44 15 82t43 66.5t66.5 44.5t85.5 16q42 0 80 -17q16 -7 30 -15l6 11q6 12 17.5 19t24.5 7q22 0 34.5 -14.5t12.5 -32.5q0 -11 -5 -21l-21 -41q7 -11 12 -24q17 -38 17 -82v-305q0 -43 -16.5 -80.5t-44.5 -66t-66.5 -45t-80.5 -16.5t-81 16q-18 8 -34 18l-3 -7
q-6 -12 -17.5 -19t-24.5 -7q-21 0 -34 15t-13 32q0 11 5 21l18 37q-5 9 -9 19q-17 37 -17 77v312zM205 103q21 -9 44 -9t43.5 9.5t36.5 24.5t25.5 35.5t9.5 43.5v282l-186 -370q12 -10 27 -16zM294 622q-21 9 -45 9t-45 -9t-36.5 -25.5t-24.5 -37.5t-9 -45v-274l184 367
q-11 9 -24 15z" />
    <glyph glyph-name="Ugrave" unicode="&#xd9;" horiz-adv-x="540" 
d="M155 211q0 -24 9.5 -45t25 -37t36.5 -25t44 -9t44 9t37 24.5t25 36.5t9 44v469q0 19 13.5 33t33.5 14t33.5 -14t13.5 -33v-469q0 -43 -16.5 -80.5t-45 -66t-66.5 -45t-81 -16.5q-42 0 -80 16t-66.5 44t-45.5 65t-17 79v473q0 19 14 33t34 14q19 0 32.5 -14t13.5 -33v-467
zM315 817q0 -3 0.5 -5.5t0.5 -6.5q0 -16 -9.5 -28.5t-25.5 -16.5q-3 -1 -6 -1h-7q-15 0 -27.5 9t-16.5 25l-21 78q-1 3 -1.5 5.5t-0.5 5.5q0 17 9.5 29.5t25.5 16.5q4 1 6 1h7q16 0 28.5 -9t16.5 -25z" />
    <glyph glyph-name="Uacute" unicode="&#xda;" horiz-adv-x="540" 
d="M155 211q0 -24 9.5 -45t25 -37t36.5 -25t44 -9t44 9t37 24.5t25 36.5t9 44v469q0 19 13.5 33t33.5 14t33.5 -14t13.5 -33v-469q0 -43 -16.5 -80.5t-45 -66t-66.5 -45t-81 -16.5q-42 0 -80 16t-66.5 44t-45.5 65t-17 79v473q0 19 14 33t34 14q19 0 32.5 -14t13.5 -33v-467
zM254 895q4 16 16.5 25t28.5 9h6q3 0 7 -1q16 -4 25.5 -16.5t9.5 -29.5q0 -3 -0.5 -5.5t-1.5 -5.5l-21 -78q-4 -16 -16.5 -25t-27.5 -9h-7q-3 0 -6 1q-16 4 -25.5 16.5t-9.5 28.5q0 4 0.5 6.5t0.5 5.5z" />
    <glyph glyph-name="Ucircumflex" unicode="&#xdb;" horiz-adv-x="540" 
d="M181 900q14 10 30 9t27 -11q3 -3 5 -4t5 -6q10 -12 9 -28.5t-10 -28.5q-2 -3 -4.5 -4t-5.5 -4l-65 -46q-13 -11 -29 -10t-27 11q-3 2 -5 4.5t-5 4.5q-9 13 -9 28.5t11 28.5q2 3 4 4.5t4 3.5zM355 900q-14 10 -30 9t-27 -11q-3 -3 -5 -4t-5 -6q-10 -12 -9 -28.5t10 -28.5
q2 -3 4.5 -4t5.5 -4l65 -46q13 -11 29 -10t27 11q3 2 5 4.5t5 4.5q9 13 9 28.5t-11 28.5q-2 3 -4 4.5t-4 3.5zM155 211q0 -24 9.5 -45t25 -37t36.5 -25t44 -9t44 9t37 24.5t25 36.5t9 44v469q0 19 13.5 33t33.5 14t33.5 -14t13.5 -33v-469q0 -43 -16.5 -80.5t-45 -66
t-66.5 -45t-81 -16.5q-42 0 -80 16t-66.5 44t-45.5 65t-17 79v473q0 19 14 33t34 14q19 0 32.5 -14t13.5 -33v-467z" />
    <glyph glyph-name="Udieresis" unicode="&#xdc;" horiz-adv-x="540" 
d="M171 765q-19 0 -33 14t-14 33q0 20 14 33.5t33 13.5q20 0 34 -13.5t14 -33.5q0 -19 -14 -33t-34 -14zM367 765q-19 0 -33 14t-14 33q0 20 14 33.5t33 13.5q20 0 34 -13.5t14 -33.5q0 -19 -14 -33t-34 -14zM155 211q0 -24 9.5 -45t25 -37t36.5 -25t44 -9t44 9t37 24.5
t25 36.5t9 44v469q0 19 13.5 33t33.5 14t33.5 -14t13.5 -33v-469q0 -43 -16.5 -80.5t-45 -66t-66.5 -45t-81 -16.5q-42 0 -80 16t-66.5 44t-45.5 65t-17 79v473q0 19 14 33t34 14q19 0 32.5 -14t13.5 -33v-467z" />
    <glyph glyph-name="Yacute" unicode="&#xdd;" horiz-adv-x="539" 
d="M477 211q0 -42 -10 -80t-34 -66.5t-65 -45.5t-103 -17q-46 0 -87.5 20.5t-70.5 55.5q-11 15 -11 30q0 18 14 32.5t33 14.5q22 0 36 -17q16 -21 39.5 -31.5t48.5 -10.5q35 0 57.5 6.5t35.5 20.5t18 36t5 52v89q-30 -7 -61 -8.5t-55 -1.5q-40 0 -77.5 14t-66.5 39
t-46.5 60.5t-17.5 78.5v199q0 20 14 33.5t33 13.5q20 0 33.5 -13.5t13.5 -33.5v-198q0 -26 11 -45t29 -31t40.5 -18t45.5 -6q13 0 28.5 1t29.5 2.5t26 3.5t20 3v289q0 20 13.5 33.5t33.5 13.5q19 0 33 -13.5t14 -33.5v-471zM248 895q4 16 16.5 25t28.5 9h6q3 0 7 -1
q16 -4 25.5 -16.5t9.5 -29.5q0 -3 -0.5 -5.5t-1.5 -5.5l-21 -78q-4 -16 -16.5 -25t-27.5 -9h-7q-3 0 -6 1q-16 4 -25.5 16.5t-9.5 28.5q0 4 0.5 6.5t0.5 5.5z" />
    <glyph glyph-name="Thorn" unicode="&#xde;" horiz-adv-x="516" 
d="M477 195v-11q-5 -45 -18.5 -73t-39.5 -52l-6 -6q-29 -24 -66.5 -38t-77.5 -14h-24q-20 0 -45.5 2t-46.5 7v-132q0 -20 -13.5 -33.5t-32.5 -13.5q-20 0 -34 13t-14 33v581v222q0 20 14 33t34 13q19 0 32.5 -13.5t13.5 -33.5v-133q21 5 46 7.5t46 2.5h24q38 0 74 -12.5
t63 -34.5q2 -2 3 -2l10 -9q32 -29 42.5 -61t15.5 -63v-12v-167zM383 362q0 38 -25.5 66t-98.5 34q-44 0 -70.5 -4.5t-35.5 -6.5v-345q21 -6 50.5 -8.5t52.5 -2.5q22 0 43 5t38 15t31 27.5t15 45.5v174z" />
    <glyph glyph-name="germandbls" unicode="&#xdf;" horiz-adv-x="500" 
d="M39 505q0 41 9 80.5t32 70.5t63.5 50t103.5 19q40 0 75.5 -15.5t61.5 -42t40 -62t13 -75.5q-2 -38 -16.5 -73.5t-46.5 -61.5q28 -19 45 -43.5t26 -49t11.5 -47t2.5 -37.5q0 -36 -12.5 -75t-38.5 -71.5t-68 -53t-100 -20.5q-20 0 -34 13.5t-14 33.5q0 21 13 30.5t32 15
t42 10t42 16.5t32 35.5t13 65.5h-1q0 21 -5.5 41t-16.5 36.5t-27 28t-36 15.5q-17 4 -34.5 4t-31.5 3t-23 12t-9 31q0 20 12 30.5t30 16t38.5 10t38.5 13.5t30 26t12 47h-1h1q0 22 -9.5 40t-24.5 31t-35 20t-41 8q-19 -1 -37 -6t-31.5 -15.5t-22 -26.5t-8.5 -38l-2 -497
q0 -20 -13 -33t-33 -13t-34 13t-14 33z" />
    <glyph glyph-name="agrave" unicode="&#xe0;" horiz-adv-x="500" 
d="M310 628q0 -3 0.5 -5.5t0.5 -6.5q0 -16 -9.5 -28.5t-25.5 -16.5q-3 -1 -6 -1h-7q-15 0 -27.5 9t-16.5 25l-21 78q-1 3 -1.5 5.5t-0.5 5.5q0 17 9.5 29.5t25.5 16.5q4 1 6.5 1h6.5q16 0 28.5 -9t16.5 -25zM363 379q-3 18 -9 33t-18.5 25t-33.5 15.5t-53 5.5
q-28 -2 -49.5 -11.5t-38.5 -29.5q-15 -18 -36 -18q-19 0 -33 14.5t-14 32.5q0 8 2.5 16t8.5 14q33 37 74.5 56t91.5 19q55 0 93.5 -16t63 -44t36 -65.5t11.5 -81.5v-239q0 -26 -11 -44t-28.5 -29.5t-40 -18t-46.5 -9.5t-46 -3.5t-41 -0.5q-40 0 -77 14.5t-65.5 40.5
t-45.5 61.5t-17 77.5q0 39 17.5 73t47 58.5t67.5 39t78 14.5h112zM365 285h-114q-21 0 -41 -6.5t-36 -18.5t-27 -29t-12 -37q0 -26 11 -44.5t28.5 -31t40 -18.5t44.5 -6q24 0 53.5 2.5t52.5 8.5v180z" />
    <glyph glyph-name="aacute" unicode="&#xe1;" horiz-adv-x="500" 
d="M363 379q-3 18 -9 33t-18.5 25t-33.5 15.5t-53 5.5q-28 -2 -49.5 -11.5t-38.5 -29.5q-15 -18 -36 -18q-19 0 -33 14.5t-14 32.5q0 8 2.5 16t8.5 14q33 37 74.5 56t91.5 19q55 0 93.5 -16t63 -44t36 -65.5t11.5 -81.5v-239q0 -26 -11 -44t-28.5 -29.5t-40 -18t-46.5 -9.5
t-46 -3.5t-41 -0.5q-40 0 -77 14.5t-65.5 40.5t-45.5 61.5t-17 77.5q0 39 17.5 73t47 58.5t67.5 39t78 14.5h112zM365 285h-114q-21 0 -41 -6.5t-36 -18.5t-27 -29t-12 -37q0 -26 11 -44.5t28.5 -31t40 -18.5t44.5 -6q24 0 53.5 2.5t52.5 8.5v180zM240 706q4 16 16.5 25
t28.5 9h6q3 0 7 -1q16 -4 25.5 -16.5t9.5 -29.5q0 -3 -0.5 -5.5t-1.5 -5.5l-21 -78q-4 -16 -16.5 -25t-27.5 -9h-7q-3 0 -6 1q-16 4 -25.5 16.5t-9.5 28.5q0 4 0.5 6.5t0.5 5.5z" />
    <glyph glyph-name="acircumflex" unicode="&#xe2;" horiz-adv-x="500" 
d="M228 703q14 14 34 14q18 0 33 -14l57 -57q7 -7 10.5 -15.5t3.5 -18.5q0 -19 -14 -33q-7 -7 -15.5 -10t-17.5 -3q-20 0 -33 13l-24 24l-24 -24q-7 -7 -15.5 -10t-17.5 -3q-20 0 -33 13q-14 14 -14 33q0 10 3 18.5t11 15.5zM364 379q-3 18 -9 33t-18.5 25t-33.5 15.5
t-53 5.5q-28 -2 -49.5 -11.5t-38.5 -29.5q-15 -18 -36 -18q-19 0 -33 14.5t-14 32.5q0 8 2.5 16t8.5 14q33 37 74.5 56t91.5 19q55 0 93.5 -16t63 -44t36 -65.5t11.5 -81.5v-239q0 -26 -11 -44t-28.5 -29.5t-40 -18t-46.5 -9.5t-46 -3.5t-41 -0.5q-40 0 -77 14.5t-65.5 40.5
t-45.5 61.5t-17 77.5q0 39 17.5 73t47 58.5t67.5 39t78 14.5h112zM366 285h-114q-21 0 -41 -6.5t-36 -18.5t-27 -29t-12 -37q0 -26 11 -44.5t28.5 -31t40 -18.5t44.5 -6q24 0 53.5 2.5t52.5 8.5v180z" />
    <glyph glyph-name="atilde" unicode="&#xe3;" horiz-adv-x="500" 
d="M284 679q2 -2 9.5 -6t22.5 -4t28.5 8t21.5 25q8 12 21 12q18 0 27 -9.5t9 -27.5q0 -14 -7 -26q-16 -27 -44.5 -41.5t-56.5 -14.5q-35 0 -60 23t-43.5 24t-33 -8.5t-21.5 -26.5q-10 -12 -22 -12q-18 0 -27 9t-9 28q0 14 7 26q17 27 43 41.5t60.5 13.5t74.5 -34zM363 379
q-3 18 -9 33t-18.5 25t-33.5 15.5t-53 5.5q-28 -2 -49.5 -11.5t-38.5 -29.5q-15 -18 -36 -18q-19 0 -33 14.5t-14 32.5q0 8 2.5 16t8.5 14q33 37 74.5 56t91.5 19q55 0 93.5 -16t63 -44t36 -65.5t11.5 -81.5v-239q0 -26 -11 -44t-28.5 -29.5t-40 -18t-46.5 -9.5t-46 -3.5
t-41 -0.5q-40 0 -77 14.5t-65.5 40.5t-45.5 61.5t-17 77.5q0 39 17.5 73t47 58.5t67.5 39t78 14.5h112zM365 285h-114q-21 0 -41 -6.5t-36 -18.5t-27 -29t-12 -37q0 -26 11 -44.5t28.5 -31t40 -18.5t44.5 -6q24 0 53.5 2.5t52.5 8.5v180z" />
    <glyph glyph-name="adieresis" unicode="&#xe4;" horiz-adv-x="500" 
d="M171 623q-20 0 -33.5 14t-13.5 33q0 20 13.5 33.5t33.5 13.5t34 -13.5t14 -33.5q0 -19 -14 -33t-34 -14zM348 623q-20 0 -33.5 14t-13.5 33q0 20 13.5 33.5t33.5 13.5t34 -13.5t14 -33.5q0 -19 -14 -33t-34 -14zM364 379q-3 18 -9 33t-18.5 25t-33.5 15.5t-53 5.5
q-28 -2 -49.5 -11.5t-38.5 -29.5q-15 -18 -36 -18q-19 0 -33 14.5t-14 32.5q0 8 2.5 16t8.5 14q33 37 74.5 56t91.5 19q55 0 93.5 -16t63 -44t36 -65.5t11.5 -81.5v-239q0 -26 -11 -44t-28.5 -29.5t-40 -18t-46.5 -9.5t-46 -3.5t-41 -0.5q-40 0 -77 14.5t-65.5 40.5
t-45.5 61.5t-17 77.5q0 39 17.5 73t47 58.5t67.5 39t78 14.5h112zM366 285h-114q-21 0 -41 -6.5t-36 -18.5t-27 -29t-12 -37q0 -26 11 -44.5t28.5 -31t40 -18.5t44.5 -6q24 0 53.5 2.5t52.5 8.5v180z" />
    <glyph glyph-name="aring" unicode="&#xe5;" horiz-adv-x="500" 
d="M265 781q21 0 38.5 -7.5t31.5 -21t21.5 -31.5t7.5 -39q0 -20 -7.5 -38t-21 -32t-31.5 -21.5t-39 -7.5q-20 0 -38.5 7.5t-31.5 21.5t-21 32t-8 38q0 21 8 39t21.5 31.5t31.5 21t38 7.5zM265 723q-8 0 -15.5 -2.5t-13.5 -9t-9 -14t-3 -15.5q0 -18 12 -29.5t30 -11.5
q8 0 15.5 3t13.5 9t8.5 13.5t2.5 15.5t-2.5 15.5t-9 14t-14 9t-15.5 2.5zM363 379q-3 18 -9 33t-18.5 25t-33.5 15.5t-53 5.5q-28 -2 -49.5 -11.5t-38.5 -29.5q-15 -18 -36 -18q-19 0 -33 14.5t-14 32.5q0 8 2.5 16t8.5 14q33 37 74.5 56t91.5 19q55 0 93.5 -16t63 -44
t36 -65.5t11.5 -81.5v-239q0 -26 -11 -44t-28.5 -29.5t-40 -18t-46.5 -9.5t-46 -3.5t-41 -0.5q-40 0 -77 14.5t-65.5 40.5t-45.5 61.5t-17 77.5q0 39 17.5 73t47 58.5t67.5 39t78 14.5h112zM365 285h-114q-21 0 -41 -6.5t-36 -18.5t-27 -29t-12 -37q0 -26 11 -44.5t28.5 -31
t40 -18.5t44.5 -6q24 0 53.5 2.5t52.5 8.5v180z" />
    <glyph glyph-name="ae" unicode="&#xe6;" horiz-adv-x="852" 
d="M175 418q-7 -8 -16 -12t-19 -4q-20 0 -33.5 14.5t-13.5 32.5q0 7 2 15t8 14q35 36 75 54t82 18q44 0 81.5 -16t66.5 -45q8 -8 15 -17q7 9 15 16q29 29 66.5 45.5t81.5 16.5t82 -17t66.5 -47.5t44.5 -72t16 -89.5q0 -44 -26.5 -69.5t-72.5 -25.5h-225v-21q0 -23 9 -44
t25 -36.5t36.5 -24.5t44.5 -9q33 0 54.5 13t30.5 25q7 8 16 12t19 4q20 0 33.5 -14.5t13.5 -32.5q0 -7 -2 -15t-8 -14q-35 -36 -75 -54t-82 -18q-44 0 -81.5 16t-66.5 44q-8 8 -16 17l-14 -16q-29 -28 -66.5 -44.5t-81.5 -16.5t-82 17t-66.5 47.5t-44.5 72t-16 89.5
q0 44 26.5 69.5t72.5 25.5h225v21q0 23 -9 44t-25 36.5t-36.5 24.5t-44.5 9q-33 0 -54.5 -13t-30.5 -25zM375 227h-230q0 -28 8.5 -52t23 -42t36 -28.5t47.5 -10.5q25 0 45.5 9t36.5 24.5t24.5 36.5t8.5 45v18zM471 323h230q0 28 -8.5 52t-23 42t-36 28.5t-47.5 10.5
q-25 0 -45.5 -9t-36.5 -24.5t-24.5 -36.5t-8.5 -45v-18z" />
    <glyph glyph-name="ccedilla" unicode="&#xe7;" horiz-adv-x="443" 
d="M334 132q14 16 35 16q17 0 30 -10q17 -14 17 -36q0 -18 -12 -32q-29 -34 -69 -52q-13 -6 -27 -10q6 -8 10 -15q14 -24 14 -42q0 -53 -32.5 -84t-77.5 -31q-15 0 -33.5 5t-35 15t-28 25.5t-11.5 36.5q-2 15 6.5 24.5t27 8.5t27 -17.5t28 -24t37.5 3.5t18 38q0 15 -18 35
l-13 15q-31 3 -60 15q-37 16 -66 45q-28 29 -44.5 66.5t-16.5 80.5v134q0 44 16.5 81.5t44.5 65.5t65 44.5t80 16.5h2q35 0 60.5 -8t44.5 -19t31.5 -23t19.5 -20q12 -14 12 -31q0 -9 -4 -18.5t-12 -16.5q-13 -12 -31 -12q-9 0 -18.5 4t-16.5 12l-12 11q-6 7 -15.5 13
t-23.5 10t-35 4q-23 0 -44 -8.5t-37 -24.5t-25 -37t-9 -44v-134q0 -24 9.5 -44t24.5 -37q16 -16 38 -24.5t45 -8.5t45.5 9t38.5 29z" />
    <glyph glyph-name="egrave" unicode="&#xe8;" horiz-adv-x="519" 
d="M309 628q0 -3 0.5 -5.5t0.5 -6.5q0 -16 -9.5 -28.5t-25.5 -16.5q-3 -1 -6 -1h-7q-15 0 -27.5 9t-16.5 25l-21 78q-1 3 -1.5 5.5t-0.5 5.5q0 17 9.5 29.5t25.5 16.5q4 1 6.5 1h6.5q16 0 28.5 -9t16.5 -25zM155 323h96h63.5h37.5h19.5h8.5h5q0 28 -8.5 52t-23 42t-36 28.5
t-47.5 10.5q-25 0 -45.5 -9t-36.5 -24.5t-24.5 -36.5t-8.5 -45v-18zM355 132q7 8 16 12t19 4q20 0 33.5 -14.5t13.5 -32.5q0 -7 -2 -15t-8 -14q-35 -36 -75 -54t-82 -18q-44 0 -81.5 16t-66.5 44.5t-45.5 66.5t-16.5 81v133q0 43 16.5 81t45.5 66.5t66.5 45t81.5 16.5
t82 -17t66.5 -47.5t44.5 -72t16 -89.5q0 -44 -26.5 -69.5t-72.5 -25.5h-225v-21q0 -23 9 -44t25 -36.5t36.5 -24.5t44.5 -9q33 0 54.5 13t30.5 25z" />
    <glyph glyph-name="eacute" unicode="&#xe9;" horiz-adv-x="519" 
d="M244 706q4 16 16.5 25t28.5 9h6.5t6.5 -1q16 -4 25.5 -16.5t9.5 -29.5q0 -3 -0.5 -5.5t-1.5 -5.5l-21 -78q-4 -16 -16.5 -25t-27.5 -9h-7t-6 1q-16 4 -25.5 16.5t-9.5 28.5q0 4 0.5 6.5t0.5 5.5zM155 323h96h63.5h37.5h19.5h8.5h5q0 28 -8.5 52t-23 42t-36 28.5
t-47.5 10.5q-25 0 -45.5 -9t-36.5 -24.5t-24.5 -36.5t-8.5 -45v-18zM355 132q7 8 16 12t19 4q20 0 33.5 -14.5t13.5 -32.5q0 -7 -2 -15t-8 -14q-35 -36 -75 -54t-82 -18q-44 0 -81.5 16t-66.5 44.5t-45.5 66.5t-16.5 81v133q0 43 16.5 81t45.5 66.5t66.5 45t81.5 16.5
t82 -17t66.5 -47.5t44.5 -72t16 -89.5q0 -44 -26.5 -69.5t-72.5 -25.5h-225v-21q0 -23 9 -44t25 -36.5t36.5 -24.5t44.5 -9q33 0 54.5 13t30.5 25z" />
    <glyph glyph-name="ecircumflex" unicode="&#xea;" horiz-adv-x="519" 
d="M231 703q14 14 34 14q18 0 33 -14l57 -57q7 -7 10.5 -15.5t3.5 -18.5q0 -19 -14 -33q-7 -7 -15.5 -10t-17.5 -3q-20 0 -33 13l-24 24l-24 -24q-7 -7 -15.5 -10t-17.5 -3q-20 0 -33 13q-14 14 -14 33q0 10 3 18.5t11 15.5zM155 323h96h63.5h37.5h19.5h8.5h5q0 28 -8.5 52
t-23 42t-36 28.5t-47.5 10.5q-25 0 -45.5 -9t-36.5 -24.5t-24.5 -36.5t-8.5 -45v-18zM355 132q7 8 16 12t19 4q20 0 33.5 -14.5t13.5 -32.5q0 -7 -2 -15t-8 -14q-35 -36 -75 -54t-82 -18q-44 0 -81.5 16t-66.5 44.5t-45.5 66.5t-16.5 81v133q0 43 16.5 81t45.5 66.5t66.5 45
t81.5 16.5t82 -17t66.5 -47.5t44.5 -72t16 -89.5q0 -44 -26.5 -69.5t-72.5 -25.5h-225v-21q0 -23 9 -44t25 -36.5t36.5 -24.5t44.5 -9q33 0 54.5 13t30.5 25z" />
    <glyph glyph-name="edieresis" unicode="&#xeb;" horiz-adv-x="519" 
d="M178 623q-20 0 -33.5 14t-13.5 33q0 20 13.5 33.5t33.5 13.5t34 -13.5t14 -33.5q0 -19 -14 -33t-34 -14zM355 623q-20 0 -33.5 14t-13.5 33q0 20 13.5 33.5t33.5 13.5t34 -13.5t14 -33.5q0 -19 -14 -33t-34 -14zM155 323h96h63.5h37.5h19.5h8.5h5q0 28 -8.5 52t-23 42
t-36 28.5t-47.5 10.5q-25 0 -45.5 -9t-36.5 -24.5t-24.5 -36.5t-8.5 -45v-18zM355 132q7 8 16 12t19 4q20 0 33.5 -14.5t13.5 -32.5q0 -7 -2 -15t-8 -14q-35 -36 -75 -54t-82 -18q-44 0 -81.5 16t-66.5 44.5t-45.5 66.5t-16.5 81v133q0 43 16.5 81t45.5 66.5t66.5 45
t81.5 16.5t82 -17t66.5 -47.5t44.5 -72t16 -89.5q0 -44 -26.5 -69.5t-72.5 -25.5h-225v-21q0 -23 9 -44t25 -36.5t36.5 -24.5t44.5 -9q33 0 54.5 13t30.5 25z" />
    <glyph glyph-name="igrave" unicode="&#xec;" horiz-adv-x="218" 
d="M60 504q0 20 14 33.5t33 13.5q20 0 33.5 -13.5t13.5 -33.5v-457q0 -20 -13.5 -33.5t-33.5 -13.5q-19 0 -33 13.5t-14 33.5v457zM154 628q0 -3 0.5 -5.5t0.5 -6.5q0 -16 -9.5 -28.5t-25.5 -16.5q-3 -1 -6 -1h-7q-15 0 -27.5 9t-16.5 25l-21 78q-1 3 -1.5 5.5t-0.5 5.5
q0 17 9.5 29.5t25.5 16.5q4 1 6.5 1h6.5q16 0 28.5 -9t16.5 -25z" />
    <glyph glyph-name="iacute" unicode="&#xed;" horiz-adv-x="218" 
d="M60 504q0 20 14 33.5t33 13.5q20 0 33.5 -13.5t13.5 -33.5v-457q0 -20 -13.5 -33.5t-33.5 -13.5q-19 0 -33 13.5t-14 33.5v457zM83 706q4 16 16.5 25t28.5 9h6.5t6.5 -1q16 -4 25.5 -16.5t9.5 -29.5q0 -3 -0.5 -5.5t-1.5 -5.5l-21 -78q-4 -16 -16.5 -25t-27.5 -9h-7t-6 1
q-16 4 -25.5 16.5t-9.5 28.5q0 4 0.5 6.5t0.5 5.5z" />
    <glyph glyph-name="icircumflex" unicode="&#xee;" horiz-adv-x="218" 
d="M60 504q0 20 14 33.5t33 13.5q20 0 33.5 -13.5t13.5 -33.5v-457q0 -20 -13.5 -33.5t-33.5 -13.5q-19 0 -33 13.5t-14 33.5v457zM72 703q14 14 34 14q18 0 33 -14l57 -57q7 -7 10.5 -15.5t3.5 -18.5q0 -19 -14 -33q-7 -7 -15.5 -10t-17.5 -3q-20 0 -33 13l-24 24l-24 -24
q-7 -7 -15.5 -10t-17.5 -3q-20 0 -33 13q-14 14 -14 33q0 10 3 18.5t11 15.5z" />
    <glyph glyph-name="idieresis" unicode="&#xef;" horiz-adv-x="218" 
d="M20 623q-20 0 -33.5 14t-13.5 33q0 20 13.5 33.5t33.5 13.5t34 -13.5t14 -33.5q0 -19 -14 -33t-34 -14zM60 504q0 20 14 33.5t33 13.5q20 0 33.5 -13.5t13.5 -33.5v-457q0 -20 -13.5 -33.5t-33.5 -13.5q-19 0 -33 13.5t-14 33.5v457zM197 623q-20 0 -33.5 14t-13.5 33
q0 20 13.5 33.5t33.5 13.5t34 -13.5t14 -33.5q0 -19 -14 -33t-34 -14z" />
    <glyph glyph-name="eth" unicode="&#xf0;" horiz-adv-x="510" 
d="M184 579q-13 0 -24.5 7.5t-16.5 19.5q-10 19 -1.5 37t23.5 26q10 4 21 4h31v8q0 18 12.5 32.5t34.5 14.5q13 0 24.5 -7t17.5 -19l14 -29l57 1q13 -1 24 -8.5t16 -19.5q10 -19 2 -36.5t-24 -25.5q-10 -4 -21 -4h-6l80 -154q4 -8 5 -17q11 -32 11 -69v-130q0 -43 -16 -81.5
t-44.5 -67t-67 -45t-81.5 -16.5t-81 16.5t-66.5 45t-45 67t-16.5 81.5v130q0 44 16.5 82.5t45 66.5t66.5 44.5t81 16.5q12 0 24 -1l-16 30h-79zM140 210q0 -24 9 -45t24.5 -37t36.5 -25t45 -9q23 0 43.5 9t37 25t26 37t9.5 45v131q0 25 -9.5 46.5t-25 37t-36.5 23.5t-45 8
q-23 0 -43.5 -8t-36.5 -23.5t-25.5 -37t-9.5 -47.5v-130z" />
    <glyph glyph-name="ntilde" unicode="&#xf1;" horiz-adv-x="542" 
d="M293 679q2 -2 9.5 -6t22.5 -4t28.5 8t21.5 25q8 12 21 12q18 0 27 -9.5t9 -27.5q0 -14 -7 -26q-16 -27 -44.5 -41.5t-56.5 -14.5q-35 0 -60 23t-43.5 24t-33 -8.5t-21.5 -26.5q-10 -12 -22 -12q-18 0 -27 9t-9 28q0 14 7 26q17 27 43 41.5t60.5 13.5t74.5 -34zM155 49
q0 -20 -13.5 -33.5t-33.5 -13.5t-34 13.5t-14 33.5v403q0 25 10.5 43t28 29.5t40 18t46 9.5t46 3.5t39.5 0.5q42 0 79.5 -14t66 -39.5t45.5 -61t17 -78.5v-312q0 -20 -13.5 -34t-33.5 -14q-19 0 -32.5 14t-13.5 34v312q0 25 -12 44t-30 31.5t-41.5 18.5t-47.5 6
q-13 0 -27.5 -1t-28 -3t-25 -3.5t-18.5 -3.5v-403z" />
    <glyph glyph-name="ograve" unicode="&#xf2;" 
d="M293 628q0 -3 0.5 -5.5t0.5 -6.5q0 -16 -9.5 -28.5t-25.5 -16.5q-3 -1 -6 -1h-7q-15 0 -27.5 9t-16.5 25l-21 78q-1 3 -1.5 5.5t-0.5 5.5q0 17 9.5 29.5t25.5 16.5q4 1 6.5 1h6.5q16 0 28.5 -9t16.5 -25zM39 340q0 44 16.5 82.5t45 66.5t66.5 44.5t81 16.5t81.5 -16.5
t67 -44.5t44.5 -66.5t16 -82.5v-130q0 -43 -16 -81.5t-44.5 -67t-67 -45t-81.5 -16.5t-81 16.5t-66.5 45t-45 67t-16.5 81.5v130zM133 210q0 -24 9 -45t24.5 -37t36.5 -25t45 -9q23 0 43.5 9t37 25t26 37t9.5 45v131q0 25 -9.5 46.5t-25 37t-36.5 23.5t-45 8q-23 0 -43.5 -8
t-36.5 -23.5t-25.5 -37t-9.5 -47.5v-130z" />
    <glyph glyph-name="oacute" unicode="&#xf3;" 
d="M222 706q4 16 16.5 25t28.5 9h6.5t6.5 -1q16 -4 25.5 -16.5t9.5 -29.5q0 -3 -0.5 -5.5t-1.5 -5.5l-21 -78q-4 -16 -16.5 -25t-27.5 -9h-7t-6 1q-16 4 -25.5 16.5t-9.5 28.5q0 4 0.5 6.5t0.5 5.5zM39 340q0 44 16.5 82.5t45 66.5t66.5 44.5t81 16.5t81.5 -16.5t67 -44.5
t44.5 -66.5t16 -82.5v-130q0 -43 -16 -81.5t-44.5 -67t-67 -45t-81.5 -16.5t-81 16.5t-66.5 45t-45 67t-16.5 81.5v130zM133 210q0 -24 9 -45t24.5 -37t36.5 -25t45 -9q23 0 43.5 9t37 25t26 37t9.5 45v131q0 25 -9.5 46.5t-25 37t-36.5 23.5t-45 8q-23 0 -43.5 -8
t-36.5 -23.5t-25.5 -37t-9.5 -47.5v-130z" />
    <glyph glyph-name="ocircumflex" unicode="&#xf4;" 
d="M213 703q14 14 34 14q18 0 29 -14l61 -57q7 -7 10.5 -15.5t3.5 -18.5q0 -19 -14 -33q-7 -7 -15.5 -10t-17.5 -3q-20 0 -33 13l-24 24l-24 -24q-7 -7 -15.5 -10t-17.5 -3q-20 0 -33 13q-14 14 -14 33q0 10 3 18.5t11 15.5zM39 340q0 44 16.5 82.5t45 66.5t66.5 44.5
t81 16.5t81.5 -16.5t67 -44.5t44.5 -66.5t16 -82.5v-130q0 -43 -16 -81.5t-44.5 -67t-67 -45t-81.5 -16.5t-81 16.5t-66.5 45t-45 67t-16.5 81.5v130zM133 210q0 -24 9 -45t24.5 -37t36.5 -25t45 -9q23 0 43.5 9t37 25t26 37t9.5 45v131q0 25 -9.5 46.5t-25 37t-36.5 23.5
t-45 8q-23 0 -43.5 -8t-36.5 -23.5t-25.5 -37t-9.5 -47.5v-130z" />
    <glyph glyph-name="otilde" unicode="&#xf5;" 
d="M269 679q2 -2 9.5 -6t22.5 -4t28.5 8t21.5 25q8 12 21 12q18 0 27 -9.5t9 -27.5q0 -14 -7 -26q-16 -27 -44.5 -41.5t-56.5 -14.5q-35 0 -60 23t-43.5 24t-33 -8.5t-21.5 -26.5q-10 -12 -22 -12q-18 0 -27 9t-9 28q0 14 7 26q17 27 43 41.5t60.5 13.5t74.5 -34zM39 340
q0 44 16.5 82.5t45 66.5t66.5 44.5t81 16.5t81.5 -16.5t67 -44.5t44.5 -66.5t16 -82.5v-130q0 -43 -16 -81.5t-44.5 -67t-67 -45t-81.5 -16.5t-81 16.5t-66.5 45t-45 67t-16.5 81.5v130zM133 210q0 -24 9 -45t24.5 -37t36.5 -25t45 -9q23 0 43.5 9t37 25t26 37t9.5 45v131
q0 25 -9.5 46.5t-25 37t-36.5 23.5t-45 8q-23 0 -43.5 -8t-36.5 -23.5t-25.5 -37t-9.5 -47.5v-130z" />
    <glyph glyph-name="odieresis" unicode="&#xf6;" 
d="M160 623q-20 0 -33.5 14t-13.5 33q0 20 13.5 33.5t33.5 13.5t34 -13.5t14 -33.5q0 -19 -14 -33t-34 -14zM337 623q-20 0 -33.5 14t-13.5 33q0 20 13.5 33.5t33.5 13.5t34 -13.5t14 -33.5q0 -19 -14 -33t-34 -14zM39 340q0 44 16.5 82.5t45 66.5t66.5 44.5t81 16.5
t81.5 -16.5t67 -44.5t44.5 -66.5t16 -82.5v-130q0 -43 -16 -81.5t-44.5 -67t-67 -45t-81.5 -16.5t-81 16.5t-66.5 45t-45 67t-16.5 81.5v130zM133 210q0 -24 9 -45t24.5 -37t36.5 -25t45 -9q23 0 43.5 9t37 25t26 37t9.5 45v131q0 25 -9.5 46.5t-25 37t-36.5 23.5t-45 8
q-23 0 -43.5 -8t-36.5 -23.5t-25.5 -37t-9.5 -47.5v-130z" />
    <glyph glyph-name="divide" unicode="&#xf7;" horiz-adv-x="177" 
d="M-134 236q-20 0 -34 14t-14 33q0 20 14 33.5t34 13.5h466q20 0 33.5 -13.5t13.5 -33.5q0 -19 -13.5 -33t-33.5 -14h-466zM90 1q-20 0 -33.5 14t-13.5 33q0 20 13.5 33.5t33.5 13.5t34 -13.5t14 -33.5q0 -19 -14 -33t-34 -14zM90 470q-20 0 -33.5 14t-13.5 33
q0 20 13.5 33.5t33.5 13.5t34 -13.5t14 -33.5q0 -19 -14 -33t-34 -14z" />
    <glyph glyph-name="oslash" unicode="&#xf8;" 
d="M39 340q0 44 16.5 82.5t45 66.5t66.5 44.5t81 16.5q42 0 79 -16q6 7 13 12q12 7 25 7q22 0 34.5 -14.5t12.5 -32.5q0 -11 -5 -21l-3 -5q23 -25 37 -58q16 -38 16 -82v-130q0 -43 -16 -81.5t-44.5 -67t-67 -45t-81.5 -16.5q-42 0 -79 15q-4 -5 -11 -9q-11 -7 -24 -7
q-21 0 -34 15t-13 32q0 11 5 21l1 2q-23 26 -38 59q-16 39 -16 82v130zM133 210q0 -24 8 -44l143 285q-17 5 -36 5q-23 0 -43.5 -8t-36.5 -23.5t-25.5 -37t-9.5 -47.5v-130zM248 94q23 0 43.5 9t37 25t26 37t9.5 45v131q0 23 -8 43l-143 -285q16 -5 35 -5z" />
    <glyph glyph-name="ugrave" unicode="&#xf9;" horiz-adv-x="540" 
d="M316 628q0 -3 0.5 -5.5t0.5 -6.5q0 -16 -9.5 -28.5t-25.5 -16.5q-3 -1 -6 -1h-7q-15 0 -27.5 9t-16.5 25l-21 78q-1 3 -1.5 5.5t-0.5 5.5q0 17 9.5 29.5t25.5 16.5q4 1 6.5 1h6.5q16 0 28.5 -9t16.5 -25zM382 509q0 19 13.5 32.5t33.5 13.5t34 -13.5t14 -32.5v-404
q0 -39 -23 -60t-56 -31t-69 -11.5t-62 -1.5q-42 0 -79.5 14t-66 39.5t-45.5 61.5t-17 79v311q0 21 13.5 34.5t33.5 13.5q19 0 32.5 -13.5t13.5 -34.5v-311q0 -26 12 -45t30 -31t41.5 -18t47.5 -6q13 0 27.5 1t28 2.5t25 3.5t18.5 3v404z" />
    <glyph glyph-name="uacute" unicode="&#xfa;" horiz-adv-x="540" 
d="M248 706q4 16 16.5 25t28.5 9h6.5t6.5 -1q16 -4 25.5 -16.5t9.5 -29.5q0 -3 -0.5 -5.5t-1.5 -5.5l-21 -78q-4 -16 -16.5 -25t-27.5 -9h-7t-6 1q-16 4 -25.5 16.5t-9.5 28.5q0 4 0.5 6.5t0.5 5.5zM382 509q0 19 13.5 32.5t33.5 13.5t34 -13.5t14 -32.5v-404q0 -39 -23 -60
t-56 -31t-69 -11.5t-62 -1.5q-42 0 -79.5 14t-66 39.5t-45.5 61.5t-17 79v311q0 21 13.5 34.5t33.5 13.5q19 0 32.5 -13.5t13.5 -34.5v-311q0 -26 12 -45t30 -31t41.5 -18t47.5 -6q13 0 27.5 1t28 2.5t25 3.5t18.5 3v404z" />
    <glyph glyph-name="ucircumflex" unicode="&#xfb;" horiz-adv-x="540" 
d="M242 703q14 14 34 14q18 0 33 -14l57 -57q7 -7 10.5 -15.5t3.5 -18.5q0 -19 -14 -33q-7 -7 -15.5 -10t-17.5 -3q-20 0 -33 13l-24 24l-24 -24q-7 -7 -15.5 -10t-17.5 -3q-20 0 -33 13q-14 14 -14 33q0 10 3 18.5t11 15.5zM382 509q0 19 13.5 32.5t33.5 13.5t34 -13.5
t14 -32.5v-404q0 -39 -23 -60t-56 -31t-69 -11.5t-62 -1.5q-42 0 -79.5 14t-66 39.5t-45.5 61.5t-17 79v311q0 21 13.5 34.5t33.5 13.5q19 0 32.5 -13.5t13.5 -34.5v-311q0 -26 12 -45t30 -31t41.5 -18t47.5 -6q13 0 27.5 1t28 2.5t25 3.5t18.5 3v404z" />
    <glyph glyph-name="udieresis" unicode="&#xfc;" horiz-adv-x="540" 
d="M178 618q-20 0 -33.5 14t-13.5 33q0 20 13.5 33.5t33.5 13.5t34 -13.5t14 -33.5q0 -19 -14 -33t-34 -14zM355 618q-20 0 -33.5 14t-13.5 33q0 20 13.5 33.5t33.5 13.5t34 -13.5t14 -33.5q0 -19 -14 -33t-34 -14zM382 509q0 19 13.5 32.5t33.5 13.5t34 -13.5t14 -32.5
v-404q0 -39 -23 -60t-56 -31t-69 -11.5t-62 -1.5q-42 0 -79.5 14t-66 39.5t-45.5 61.5t-17 79v311q0 21 13.5 34.5t33.5 13.5q19 0 32.5 -13.5t13.5 -34.5v-311q0 -26 12 -45t30 -31t41.5 -18t47.5 -6q13 0 27.5 1t28 2.5t25 3.5t18.5 3v404z" />
    <glyph glyph-name="yacute" unicode="&#xfd;" horiz-adv-x="540" 
d="M477 36q0 -48 -12 -86.5t-37.5 -65.5t-65 -42t-94.5 -15q-37 0 -69 11.5t-54.5 28t-35.5 34.5t-13 32q0 18 14 33t33 15q15 0 27.5 -9.5t26 -20.5t31 -20.5t40.5 -9.5q33 0 54.5 6.5t34 18t18 28t7.5 36.5q-30 -7 -60.5 -8t-53.5 -1q-42 0 -79.5 14t-66 39t-45.5 61
t-17 79v314q0 19 13.5 32t33.5 13q19 0 32.5 -13t13.5 -32v-314q0 -26 11 -45t29 -31t40.5 -17.5t46.5 -5.5t52.5 2.5t50.5 7.5v403q0 19 13.5 32t33.5 13t33.5 -13t13.5 -32v-472zM248 706q4 16 16.5 25t28.5 9h6q3 0 7 -1q16 -4 25.5 -16.5t9.5 -29.5q0 -3 -0.5 -5.5
t-1.5 -5.5l-21 -78q-4 -16 -16.5 -25t-27.5 -9h-7q-3 0 -6 1q-16 4 -25.5 16.5t-9.5 28.5q0 4 0.5 6.5t0.5 5.5z" />
    <glyph glyph-name="ydieresis" unicode="&#xff;" horiz-adv-x="540" 
d="M184 623q-20 0 -33.5 14t-13.5 33q0 20 13.5 33.5t33.5 13.5t34 -13.5t14 -33.5q0 -19 -14 -33t-34 -14zM361 623q-20 0 -33.5 14t-13.5 33q0 20 13.5 33.5t33.5 13.5t34 -13.5t14 -33.5q0 -19 -14 -33t-34 -14zM477 36q0 -48 -12 -86.5t-37.5 -65.5t-65 -42t-94.5 -15
q-37 0 -69 11.5t-54.5 28t-35.5 34.5t-13 32q0 18 14 33t33 15q15 0 27.5 -9.5t26 -20.5t31 -20.5t40.5 -9.5q33 0 54.5 6.5t34 18t18 28t7.5 36.5q-30 -7 -60.5 -8t-53.5 -1q-42 0 -79.5 14t-66 39t-45.5 61t-17 79v314q0 19 13.5 32t33.5 13q19 0 32.5 -13t13.5 -32v-314
q0 -26 11 -45t29 -31t40.5 -17.5t46.5 -5.5t52.5 2.5t50.5 7.5v403q0 19 13.5 32t33.5 13t33.5 -13t13.5 -32v-472z" />
    <glyph glyph-name="Amacron.001" unicode="&#x100;" horiz-adv-x="460" 
d="M136 765q-20 0 -34 14t-14 34q0 19 14 33t34 14h186q19 0 33 -14t14 -33q0 -20 -14 -34t-33 -14h-186zM438 59q1 -3 1 -6v-6q0 -18 -12.5 -32.5t-33.5 -14.5q-15 0 -28.5 10t-17.5 26l-49 192h-134l-49 -192q-5 -16 -17.5 -26t-29.5 -10q-20 0 -33 14.5t-13 32.5v5.5
t2 6.5l161 630q5 15 17.5 25t29.5 10q15 0 27.5 -10.5t16.5 -24.5zM273 322l-43 167l-42 -167h85z" />
    <glyph glyph-name="amacron.001" unicode="&#x101;" horiz-adv-x="502" 
d="M174 621q-20 0 -34 14t-14 34q0 19 14 33t34 14h186q20 0 33.5 -14t13.5 -33q0 -20 -13.5 -34t-33.5 -14h-186zM362 379q-3 18 -9 33t-18.5 25t-33 15.5t-53.5 5.5q-28 -2 -49.5 -11.5t-38.5 -29.5q-15 -18 -36 -18q-19 0 -33 14.5t-14 32.5q0 8 3 16t8 14q33 37 74.5 56
t91.5 19q55 0 93.5 -16t63 -44t36 -65.5t11.5 -81.5v-239q0 -26 -11 -44t-28.5 -29.5t-40 -18t-46 -9.5t-46.5 -3.5t-40 -0.5q-41 0 -78 14.5t-65.5 40.5t-45.5 61.5t-17 77.5q0 39 17.5 73t47 58.5t67.5 39t78 14.5h112zM364 285h-114q-21 0 -41 -6.5t-36 -18.5t-26.5 -29
t-12.5 -37q0 -26 11 -44.5t28.5 -31t40 -18.5t44.5 -6q25 0 54.5 2.5t51.5 8.5v180z" />
    <glyph glyph-name="Abreve" unicode="&#x102;" 
d="M455 61q1 -3 1.5 -6t0.5 -6q0 -18 -13 -32.5t-34 -14.5q-15 0 -28.5 10t-17.5 26l-49 192h-134l-49 -192q-4 -16 -17 -26t-29 -10q-21 0 -34 14.5t-13 32.5v5q0 3 2 7l161 630q5 15 18 25t29 10q15 0 27.5 -10.5t16.5 -24.5zM248 835q24 0 44.5 8t32.5 27q12 14 32 14
q15 0 27 -9q14 -12 14 -32q0 -16 -11 -29q-24 -29 -60.5 -45.5t-78.5 -16.5q-39 0 -75.5 16.5t-61.5 45.5q-11 13 -11 29q0 20 14 32q14 9 27 9q19 0 33 -14q11 -19 31.5 -27t42.5 -8zM291 324l-44 167l-42 -167h86z" />
    <glyph glyph-name="abreve" unicode="&#x103;" horiz-adv-x="500" 
d="M265 666q24 0 44.5 8t32.5 27q12 14 32 14q15 0 27 -9q14 -12 14 -32q0 -16 -11 -29q-24 -29 -60.5 -45.5t-78.5 -16.5q-39 0 -75.5 16.5t-61.5 45.5q-11 13 -11 29q0 20 14 32q14 9 27 9q19 0 33 -14q11 -19 31.5 -27t42.5 -8zM363 379q-3 18 -9 33t-18.5 25t-33.5 15.5
t-53 5.5q-28 -2 -49.5 -11.5t-38.5 -29.5q-15 -18 -36 -18q-19 0 -33 14.5t-14 32.5q0 8 2.5 16t8.5 14q33 37 74.5 56t91.5 19q55 0 93.5 -16t63 -44t36 -65.5t11.5 -81.5v-239q0 -26 -11 -44t-28.5 -29.5t-40 -18t-46.5 -9.5t-46 -3.5t-41 -0.5q-40 0 -77 14.5t-65.5 40.5
t-45.5 61.5t-17 77.5q0 39 17.5 73t47 58.5t67.5 39t78 14.5h112zM365 285h-114q-21 0 -41 -6.5t-36 -18.5t-27 -29t-12 -37q0 -26 11 -44.5t28.5 -31t40 -18.5t44.5 -6q24 0 53.5 2.5t52.5 8.5v180z" />
    <glyph glyph-name="Aogonek" unicode="&#x104;" 
d="M455 61q1 -3 1.5 -6t0.5 -6q0 -12 -6 -22q0 -2 -1 -3l-1 -1q-2 -3 -5 -7q-5 -5 -10 -8q-10 -10 -20 -22q-17 -20 -17 -35q0 -27 18 -38t37.5 -3.5t28 24t27 17.5t27 -8.5t6.5 -24.5q0 -21 -11.5 -36.5t-28 -25.5t-35 -15t-33.5 -5q-45 0 -77.5 31t-32.5 84q0 18 13 42
q12 20 30 38q-1 3 -2 7l-49 192h-134l-49 -192q-4 -16 -17 -26t-29 -10q-21 0 -34 14.5t-13 32.5v5q0 3 2 7l161 630q5 15 18 25t29 10q15 0 27.5 -10.5t16.5 -24.5zM291 324l-44 167l-42 -167h86z" />
    <glyph glyph-name="aogonek" unicode="&#x105;" horiz-adv-x="500" 
d="M363 379q-3 18 -9 33t-18.5 25t-33.5 15.5t-53 5.5q-28 -2 -49.5 -11.5t-38.5 -29.5q-15 -18 -36 -18q-19 0 -33 14.5t-14 32.5q0 8 2.5 16t8.5 14q33 37 74.5 56t91.5 19q55 0 93.5 -16t63 -44t36 -65.5t11.5 -81.5v-239q0 -26 -11 -44t-29 -30l-6 -4q0 -1 -2 -3
q-18 -18 -35.5 -38t-17.5 -35q0 -27 18 -38t37.5 -3.5t28 24t27 17.5t27 -8.5t6.5 -24.5q0 -21 -11.5 -36.5t-28 -25.5t-35 -15t-33.5 -5q-45 0 -77.5 31t-32.5 84q0 18 13 42q3 4 5 8q-8 -1 -15 -1h-41q-40 0 -77 14.5t-65.5 40.5t-45.5 61.5t-17 77.5q0 39 17.5 73
t47 58.5t67.5 39t78 14.5h112zM365 285h-114q-21 0 -41 -6.5t-36 -18.5t-27 -29t-12 -37q0 -26 11 -44.5t28.5 -31t40 -18.5t44.5 -6q24 0 53.5 2.5t52.5 8.5v180z" />
    <glyph glyph-name="Cacute" unicode="&#x106;" horiz-adv-x="480" 
d="M355 133q14 15 35 15t33.5 -14.5t12.5 -33.5q0 -17 -11 -29q-30 -34 -70 -52.5t-86 -18.5q-44 0 -81.5 16.5t-66 45t-45 66t-16.5 80.5v309q0 43 16.5 81t45 66t66 44.5t81.5 16.5q54 0 90 -18.5t66 -52.5q12 -13 12 -30q0 -18 -13.5 -32.5t-33.5 -14.5q-16 0 -26.5 8.5
t-22.5 19t-28.5 18.5t-43.5 8q-23 0 -43.5 -8t-36.5 -23.5t-25.5 -36t-9.5 -46.5v-309q0 -20 7.5 -40t22.5 -36.5t36 -27t49 -10.5t51 13t35 26zM226 902q4 16 16.5 25t28.5 9h6q3 0 7 -1q16 -4 25.5 -16.5t9.5 -29.5q0 -3 -0.5 -5.5t-1.5 -5.5l-21 -78q-4 -16 -16.5 -25
t-27.5 -9h-7q-3 0 -6 1q-16 4 -25.5 16.5t-9.5 28.5q0 4 0.5 6.5t0.5 5.5z" />
    <glyph glyph-name="cacute" unicode="&#x107;" horiz-adv-x="443" 
d="M334 132q14 16 35 16q17 0 30 -10q17 -14 17 -36q0 -18 -12 -32q-29 -34 -69 -52t-87 -18q-43 0 -80.5 16t-66.5 45q-28 29 -44.5 66.5t-16.5 80.5v134q0 44 16.5 81.5t44.5 65.5t65 44.5t80 16.5h2q35 0 60.5 -8t44.5 -19t31.5 -23t19.5 -20q12 -14 12 -31
q0 -9 -4 -18.5t-12 -16.5q-13 -12 -31 -12q-9 0 -18.5 4t-16.5 12l-12 11q-6 7 -15.5 13t-23.5 10t-35 4q-23 0 -44 -8.5t-37 -24.5t-25 -37t-9 -44v-134q0 -24 9.5 -44t24.5 -37q16 -16 38 -24.5t45 -8.5t45.5 9t38.5 29zM210 706q4 16 16.5 25t28.5 9h6q3 0 7 -1
q16 -4 25.5 -16.5t9.5 -29.5q0 -3 -0.5 -5.5t-1.5 -5.5l-21 -78q-4 -16 -16.5 -25t-27.5 -9h-7q-3 0 -6 1q-16 4 -25.5 16.5t-9.5 28.5q0 4 0.5 6.5t0.5 5.5z" />
    <glyph glyph-name="Ccircumflex" unicode="&#x108;" horiz-adv-x="480" 
d="M179 900q14 10 30 9t27 -11q3 -3 5 -4t5 -6q10 -12 9 -28.5t-10 -28.5q-2 -3 -4.5 -4t-5.5 -4l-65 -46q-13 -11 -29 -10t-27 11q-3 2 -5 4.5t-5 4.5q-9 13 -9 28.5t11 28.5q2 3 4 4.5t4 3.5zM353 900q-14 10 -30 9t-27 -11q-3 -3 -5 -4t-5 -6q-10 -12 -9 -28.5t10 -28.5
q2 -3 4.5 -4t5.5 -4l65 -46q13 -11 29 -10t27 11q3 2 5 4.5t5 4.5q9 13 9 28.5t-11 28.5q-2 3 -4 4.5t-4 3.5zM355 133q14 15 35 15t33.5 -14.5t12.5 -33.5q0 -17 -11 -29q-30 -34 -70 -52.5t-86 -18.5q-44 0 -81.5 16.5t-66 45t-45 66t-16.5 80.5v309q0 43 16.5 81t45 66
t66 44.5t81.5 16.5q54 0 90 -18.5t66 -52.5q12 -13 12 -30q0 -18 -13.5 -32.5t-33.5 -14.5q-16 0 -26.5 8.5t-22.5 19t-28.5 18.5t-43.5 8q-23 0 -43.5 -8t-36.5 -23.5t-25.5 -36t-9.5 -46.5v-309q0 -20 7.5 -40t22.5 -36.5t36 -27t49 -10.5t51 13t35 26z" />
    <glyph glyph-name="ccircumflex" unicode="&#x109;" horiz-adv-x="443" 
d="M212 703q14 14 34 14q18 0 33 -14l57 -57q7 -7 10.5 -15.5t3.5 -18.5q0 -19 -14 -33q-7 -7 -15.5 -10t-17.5 -3q-20 0 -33 13l-24 24l-24 -24q-7 -7 -15.5 -10t-17.5 -3q-20 0 -33 13q-14 14 -14 33q0 10 3 18.5t11 15.5zM334 132q14 16 35 16q17 0 30 -10q17 -14 17 -36
q0 -18 -12 -32q-29 -34 -69 -52t-87 -18q-43 0 -80.5 16t-66.5 45q-28 29 -44.5 66.5t-16.5 80.5v134q0 44 16.5 81.5t44.5 65.5t65 44.5t80 16.5h2q35 0 60.5 -8t44.5 -19t31.5 -23t19.5 -20q12 -14 12 -31q0 -9 -4 -18.5t-12 -16.5q-13 -12 -31 -12q-9 0 -18.5 4t-16.5 12
l-11.5 11.5t-16 12.5t-23.5 10t-35 4q-23 0 -44 -8.5t-37 -24.5t-25 -37t-9 -44v-134q0 -24 9.5 -44t24.5 -37q16 -16 38 -24.5t45 -8.5t45.5 9t38.5 29z" />
    <glyph glyph-name="Cdotaccent" unicode="&#x10a;" horiz-adv-x="480" 
d="M270 765q-19 0 -33 14t-14 33q0 20 14 33.5t33 13.5q20 0 34 -13.5t14 -33.5q0 -19 -14 -33t-34 -14zM355 133q14 15 35 15t33.5 -14.5t12.5 -33.5q0 -17 -11 -29q-30 -34 -70 -52.5t-86 -18.5q-44 0 -81.5 16.5t-66 45t-45 66t-16.5 80.5v309q0 43 16.5 81t45 66
t66 44.5t81.5 16.5q54 0 90 -18.5t66 -52.5q12 -13 12 -30q0 -18 -13.5 -32.5t-33.5 -14.5q-16 0 -26.5 8.5t-22.5 19t-28.5 18.5t-43.5 8q-23 0 -43.5 -8t-36.5 -23.5t-25.5 -36t-9.5 -46.5v-309q0 -20 7.5 -40t22.5 -36.5t36 -27t49 -10.5t51 13t35 26z" />
    <glyph glyph-name="cdotaccent" unicode="&#x10b;" horiz-adv-x="443" 
d="M334 132q14 16 35 16q17 0 30 -10q17 -14 17 -36q0 -18 -12 -32q-29 -34 -69 -52t-87 -18q-43 0 -80.5 16t-66.5 45q-28 29 -44.5 66.5t-16.5 80.5v134q0 44 16.5 81.5t44.5 65.5t65 44.5t80 16.5h2q35 0 60.5 -8t44.5 -19t31.5 -23t19.5 -20q12 -14 12 -31
q0 -9 -4 -18.5t-12 -16.5q-13 -12 -31 -12q-9 0 -18.5 4t-16.5 12l-12 11q-6 7 -15.5 13t-23.5 10t-35 4q-23 0 -44 -8.5t-37 -24.5t-25 -37t-9 -44v-134q0 -24 9.5 -44t24.5 -37q16 -16 38 -24.5t45 -8.5t45.5 9t38.5 29zM250 625q-19 0 -33 14t-14 33q0 20 14 33.5
t33 13.5q20 0 34 -13.5t14 -33.5q0 -19 -14 -33t-34 -14z" />
    <glyph glyph-name="Ccaron" unicode="&#x10c;" horiz-adv-x="441" 
d="M158 830q-8 7 -11 16t-3 18q0 19 14 33q13 14 32 14q10 0 18.5 -3.5t15.5 -10.5l24 -23l24 23q13 14 33 14q9 0 17.5 -3.5t15.5 -10.5q13 -14 13 -33q0 -9 -3 -18t-10 -16l-57 -56q-15 -14 -33 -14q-20 0 -34 14zM334 133q14 15 35 15t33.5 -14.5t12.5 -33.5
q0 -17 -11 -29q-30 -34 -70 -52.5t-86 -18.5q-43 0 -81 16.5t-66.5 45t-45 66t-16.5 80.5v309q0 43 16.5 81t45 66t66.5 44.5t81 16.5q55 0 91 -18.5t65 -52.5q12 -13 12 -30q0 -18 -13 -32.5t-34 -14.5q-16 0 -26.5 8.5t-22.5 19t-28.5 18.5t-43.5 8q-22 0 -43 -8
t-36.5 -23.5t-25.5 -36t-10 -46.5v-309q0 -20 8 -40t22.5 -36.5t36 -27t48.5 -10.5q29 0 52 13t34 26z" />
    <glyph glyph-name="ccaron" unicode="&#x10d;" horiz-adv-x="440" 
d="M334 132q14 16 35 16q17 0 30 -10q17 -14 17 -36q0 -18 -12 -32q-29 -34 -69 -52t-87 -18q-43 0 -80.5 16t-66.5 45q-28 29 -44.5 66.5t-16.5 80.5v134q0 44 16.5 81.5t44.5 65.5t65 44.5t80 16.5h2q35 0 60.5 -8t44.5 -19t31.5 -23t19.5 -20q12 -14 12 -31
q0 -9 -4 -18.5t-12 -16.5q-13 -12 -31 -12q-9 0 -18.5 4t-16.5 12l-12 11q-6 7 -15.5 13t-23.5 10t-35 4q-23 0 -44 -8.5t-37 -24.5t-25 -37t-9 -44v-134q0 -24 9.5 -44t24.5 -37q16 -16 38 -24.5t45 -8.5t45.5 9t38.5 29zM157 637q-8 7 -11 15.5t-3 18.5q0 19 14 33
q13 13 33 13q9 0 17.5 -3t15.5 -10l24 -24l24 24q13 13 33 13q9 0 17.5 -3t15.5 -10q14 -14 14 -33q0 -10 -3.5 -18.5t-10.5 -15.5l-57 -57q-15 -14 -33 -14q-20 0 -34 14z" />
    <glyph glyph-name="Dcaron" unicode="&#x10e;" horiz-adv-x="522" 
d="M174 830q-8 7 -11 16t-3 18q0 19 14 33q13 14 32 14q10 0 18.5 -3.5t15.5 -10.5l24 -23l24 23q13 14 33 14q9 0 17.5 -3.5t15.5 -10.5q13 -14 13 -33q0 -9 -3 -18t-10 -16l-57 -56q-15 -14 -33 -14q-20 0 -34 14zM153 106q0 -2 12.5 -3.5t30 -3t37.5 -2.5t36 -1
q21 0 41.5 7t36.5 20t26 31.5t10 41.5v337q0 26 -11 45t-29 31t-41 18t-47 6q-13 0 -28 -1t-29 -2.5t-26 -3.5t-19 -3v-517zM59 621q0 26 10.5 44t28 30t39.5 18t45.5 9.5t46 4t40.5 0.5q40 0 78 -14t66.5 -39.5t46 -61t17.5 -79.5v-337q0 -45 -18 -80.5t-47 -61t-66.5 -39
t-76.5 -13.5q-31 0 -68 2t-68.5 12t-52.5 31t-21 59v515z" />
    <glyph glyph-name="dcaron" unicode="&#x10f;" horiz-adv-x="589" 
d="M42 361q0 43 17 78.5t46 61t66.5 39.5t78.5 14q23 0 53.5 -1t61.5 -8v133q0 19 14 32.5t33 13.5q20 0 34 -14t14 -33v-575q0 -25 -9.5 -42t-25.5 -28.5t-36.5 -18t-43 -9.5t-45 -3.5t-41.5 -0.5h-9q-41 0 -78.5 14t-66.5 39t-46 61t-17 79v168zM136 193q0 -22 9.5 -40.5
t25.5 -31.5t36.5 -20t42.5 -7h22q17 0 35.5 1.5t35 3t22.5 5.5v345q-28 6 -57 8.5t-59 2.5q-22 0 -42.5 -7.5t-36 -20.5t-25 -31.5t-9.5 -40.5v-167zM518 690q4 16 16.5 25t28.5 9h6q3 0 7 -1q16 -4 25.5 -16.5t9.5 -29.5q0 -3 -0.5 -5.5t-1.5 -5.5l-21 -78
q-4 -16 -16.5 -25t-27.5 -9h-7q-3 0 -6 1q-16 4 -25.5 16.5t-9.5 28.5q0 4 0.5 6.5t0.5 5.5z" />
    <glyph glyph-name="Dcroat" unicode="&#x110;" horiz-adv-x="522" 
d="M59 621q0 26 10.5 44t28 30t39.5 18t45.5 9.5t46 4t40.5 0.5q40 0 78 -14t66.5 -39.5t46 -61t17.5 -79.5v-337q0 -45 -18 -80.5t-47 -61t-66.5 -39t-76.5 -13.5q-31 0 -68 2t-68.5 12t-52.5 31t-21 59v131h-19q-20 0 -34 14t-14 33q0 20 14 33.5t34 13.5h19v290zM153 106
q0 -2 12.5 -3.5t30 -3t37.5 -2.5t36 -1q21 0 41.5 7t36.5 20t26 31.5t10 41.5v337q0 26 -11 45t-29 31t-41 18t-47 6q-13 0 -28 -1t-29 -2.5t-26 -3.5t-19 -3v-292h76q19 0 33 -13.5t14 -33.5q0 -19 -14 -33t-33 -14h-76v-131z" />
    <glyph glyph-name="dcroat" unicode="&#x111;" horiz-adv-x="522" 
d="M42 361q0 43 17 78.5t46 61t66.5 39.5t78.5 14q23 0 53.5 -1t61.5 -8v31h-17q-19 0 -33 14t-14 34q0 19 14 33t33 14h17v7q0 19 14 32.5t33 13.5q20 0 34 -14t14 -33v-6h14q19 0 33 -14t14 -33q0 -20 -14 -34t-33 -14h-14v-474q0 -25 -9.5 -42t-25.5 -28.5t-36.5 -18
t-43 -9.5t-45 -3.5t-41.5 -0.5h-9q-41 0 -78.5 14t-66.5 39t-46 61t-17 79v168zM136 193q0 -22 9.5 -40.5t25.5 -31.5t36.5 -20t42.5 -7h22q17 0 35.5 1.5t35 3t22.5 5.5v345q-28 6 -57 8.5t-59 2.5q-22 0 -42.5 -7.5t-36 -20.5t-25 -31.5t-9.5 -40.5v-167z" />
    <glyph glyph-name="Emacron" unicode="&#x112;" 
d="M178 761q-20 0 -34 14t-14 34q0 19 14 32.5t34 13.5h186q20 0 33.5 -13.5t13.5 -32.5q0 -20 -13.5 -34t-33.5 -14h-186zM430 724q20 0 33.5 -13.5t13.5 -33.5t-13.5 -33.5t-33.5 -13.5h-275l-1 -191h196q19 0 33 -14t14 -33q0 -20 -14 -33.5t-33 -13.5h-196v-247
q0 -2 2.5 -3.5t11.5 -1.5h262q20 0 33.5 -13.5t13.5 -33.5t-13.5 -33.5t-33.5 -13.5h-262q-37 0 -58.5 7.5t-32.5 20.5t-14 31.5t-3 39.5v530q0 21 3.5 38.5t14.5 30.5t32.5 20t57.5 7h262z" />
    <glyph glyph-name="emacron" unicode="&#x113;" horiz-adv-x="480" 
d="M157 623q-20 0 -34 14t-14 34q0 19 14 33t34 14h186q20 0 33.5 -14t13.5 -33q0 -20 -13.5 -34t-33.5 -14h-186zM136 324h96h63.5h37.5h19h8.5h4.5q0 28 -8 52t-22.5 42t-36 28.5t-47.5 10.5q-25 0 -45.5 -9t-36.5 -24.5t-24.5 -36.5t-8.5 -45v-18zM336 133q7 8 16 12
t19 4q20 0 33.5 -14.5t13.5 -32.5q0 -7 -2 -15t-8 -14q-36 -36 -75.5 -54t-81.5 -18q-44 0 -81.5 16t-66.5 44.5t-45.5 66.5t-16.5 81v133q0 43 16.5 81t45.5 66.5t66.5 45t81.5 16.5t82 -17t66.5 -47.5t44.5 -72t16 -89.5q0 -44 -26.5 -69.5t-72.5 -25.5h-225v-21
q0 -23 9 -44t25 -36.5t36.5 -24.5t44.5 -9q33 0 54.5 13t30.5 25z" />
    <glyph glyph-name="Ebreve" unicode="&#x114;" 
d="M273 835q24 0 44.5 8t32.5 27q12 14 32 14q15 0 27 -9q14 -12 14 -32q0 -16 -11 -29q-24 -29 -60.5 -45.5t-78.5 -16.5q-39 0 -75.5 16.5t-61.5 45.5q-11 13 -11 29q0 20 14 32q14 9 27 9q19 0 33 -14q11 -19 31.5 -27t42.5 -8zM430 724q20 0 33.5 -13.5t13.5 -33.5
t-13.5 -33.5t-33.5 -13.5h-275l-1 -191h196q19 0 33 -14t14 -33q0 -20 -14 -33.5t-33 -13.5h-196v-247q0 -2 2.5 -3.5t11.5 -1.5h262q20 0 33.5 -13.5t13.5 -33.5t-13.5 -33.5t-33.5 -13.5h-262q-37 0 -58.5 7.5t-32.5 20.5t-14 31.5t-3 39.5v530q0 21 3.5 38.5t14.5 30.5
t32.5 20t57.5 7h262z" />
    <glyph glyph-name="ebreve" unicode="&#x115;" horiz-adv-x="519" 
d="M355 132q7 8 16 12t19 4q20 0 33.5 -14.5t13.5 -32.5q0 -7 -2 -15t-8 -14q-35 -36 -75 -54t-82 -18q-44 0 -81.5 16t-66.5 44.5t-45.5 66.5t-16.5 81v133q0 43 16.5 81t45.5 66.5t66.5 45t81.5 16.5t82 -17t66.5 -47.5t44.5 -72t16 -89.5q0 -44 -26.5 -69.5t-72.5 -25.5
h-225v-21q0 -23 9 -44t25 -36.5t36.5 -24.5t44.5 -9q33 0 54.5 13t30.5 25zM265 666q24 0 44.5 8t32.5 27q12 14 32 14q15 0 27 -9q14 -12 14 -32q0 -16 -11 -29q-24 -29 -60.5 -45.5t-78.5 -16.5q-39 0 -75.5 16.5t-61.5 45.5q-11 13 -11 29q0 20 14 32q14 9 27 9
q19 0 33 -14q11 -19 31.5 -27t42.5 -8zM155 323h230q0 28 -8.5 52t-23 42t-36 28.5t-47.5 10.5q-25 0 -45.5 -9t-36.5 -24.5t-24.5 -36.5t-8.5 -45v-18z" />
    <glyph glyph-name="Edotaccent" unicode="&#x116;" 
d="M272 765q-19 0 -33 14t-14 33q0 20 14 33.5t33 13.5q20 0 34 -13.5t14 -33.5q0 -19 -14 -33t-34 -14zM430 724q20 0 33.5 -13.5t13.5 -33.5t-13.5 -33.5t-33.5 -13.5h-275l-1 -191h196q19 0 33 -14t14 -33q0 -20 -14 -33.5t-33 -13.5h-196v-247q0 -2 2.5 -3.5t11.5 -1.5
h262q20 0 33.5 -13.5t13.5 -33.5t-13.5 -33.5t-33.5 -13.5h-262q-37 0 -58.5 7.5t-32.5 20.5t-14 31.5t-3 39.5v530q0 21 3.5 38.5t14.5 30.5t32.5 20t57.5 7h262z" />
    <glyph glyph-name="edotaccent" unicode="&#x117;" horiz-adv-x="519" 
d="M355 132q7 8 16 12t19 4q20 0 33.5 -14.5t13.5 -32.5q0 -7 -2 -15t-8 -14q-35 -36 -75 -54t-82 -18q-44 0 -81.5 16t-66.5 44.5t-45.5 66.5t-16.5 81v133q0 43 16.5 81t45.5 66.5t66.5 45t81.5 16.5t82 -17t66.5 -47.5t44.5 -72t16 -89.5q0 -44 -26.5 -69.5t-72.5 -25.5
h-225v-21q0 -23 9 -44t25 -36.5t36.5 -24.5t44.5 -9q33 0 54.5 13t30.5 25zM155 323h230q0 28 -8.5 52t-23 42t-36 28.5t-47.5 10.5q-25 0 -45.5 -9t-36.5 -24.5t-24.5 -36.5t-8.5 -45v-18zM268 623q-19 0 -33 14t-14 33q0 20 14 33.5t33 13.5q20 0 34 -13.5t14 -33.5
q0 -19 -14 -33t-34 -14z" />
    <glyph glyph-name="Eogonek" unicode="&#x118;" 
d="M430 724q20 0 33.5 -13.5t13.5 -33.5t-13.5 -33.5t-33.5 -13.5h-275l-1 -191h196q19 0 33 -14t14 -33q0 -20 -14 -33.5t-33 -13.5h-196v-247q0 -2 2.5 -3.5t11.5 -1.5h262q20 0 33.5 -13.5t13.5 -33.5t-13.5 -33.5t-33.5 -13.5h-49l-11 -13q-17 -20 -17 -35q0 -27 18 -38
t37.5 -3.5t28 24t27 17.5t27 -8.5t6.5 -24.5q0 -21 -11.5 -36.5t-28 -25.5t-35 -15t-33.5 -5q-45 0 -77.5 31t-32.5 84q0 18 13 42l4 6h-128q-37 0 -58.5 7.5t-32.5 20.5t-14 31.5t-3 39.5v530q0 21 3.5 38.5t14.5 30.5t32.5 20t57.5 7h262z" />
    <glyph glyph-name="eogonek" unicode="&#x119;" horiz-adv-x="519" 
d="M355 132q7 8 16 12t19 4q20 0 33.5 -14.5t13.5 -32.5q0 -7 -2 -15t-8 -14q-35 -36 -75 -54q-24 -11 -48 -15l-15 -17q-17 -20 -17 -35q0 -27 18 -38t37.5 -3.5t28 24t27 17.5t27 -8.5t6.5 -24.5q0 -21 -11.5 -36.5t-28 -25.5t-35 -15t-33.5 -5q-45 0 -77.5 31t-32.5 84
q0 18 13 42l8 12q-16 4 -31 11q-37 16 -66 44.5t-45.5 66.5t-16.5 81v133q0 43 16.5 81t45.5 66.5t66.5 45t81.5 16.5t82 -17t66.5 -47.5t44.5 -72t16 -89.5q0 -44 -26.5 -69.5t-72.5 -25.5h-225v-21q0 -23 9 -44t25 -36.5t36.5 -24.5t44.5 -9q33 0 54.5 13t30.5 25z
M155 323h230q0 28 -8.5 52t-23 42t-36 28.5t-47.5 10.5q-25 0 -45.5 -9t-36.5 -24.5t-24.5 -36.5t-8.5 -45v-18z" />
    <glyph glyph-name="Ecaron" unicode="&#x11a;" 
d="M183 830q-8 7 -11 16t-3 18q0 19 14 33q13 14 32 14q10 0 18.5 -3.5t15.5 -10.5l24 -23l24 23q13 14 33 14q9 0 17.5 -3.5t15.5 -10.5q13 -14 13 -33q0 -9 -3 -18t-10 -16l-57 -56q-15 -14 -33 -14q-20 0 -34 14zM430 724q20 0 33.5 -13.5t13.5 -33.5t-13.5 -33.5
t-33.5 -13.5h-275l-1 -191h196q19 0 33 -14t14 -33q0 -20 -14 -33.5t-33 -13.5h-196v-247q0 -2 2.5 -3.5t11.5 -1.5h262q20 0 33.5 -13.5t13.5 -33.5t-13.5 -33.5t-33.5 -13.5h-262q-37 0 -58.5 7.5t-32.5 20.5t-14 31.5t-3 39.5v530q0 21 3.5 38.5t14.5 30.5t32.5 20
t57.5 7h262z" />
    <glyph glyph-name="ecaron" unicode="&#x11b;" horiz-adv-x="519" 
d="M355 132q7 8 16 12t19 4q20 0 33.5 -14.5t13.5 -32.5q0 -7 -2 -15t-8 -14q-35 -36 -75 -54t-82 -18q-44 0 -81.5 16t-66.5 44.5t-45.5 66.5t-16.5 81v133q0 43 16.5 81t45.5 66.5t66.5 45t81.5 16.5t82 -17t66.5 -47.5t44.5 -72t16 -89.5q0 -44 -26.5 -69.5t-72.5 -25.5
h-225v-21q0 -23 9 -44t25 -36.5t36.5 -24.5t44.5 -9q33 0 54.5 13t30.5 25zM155 323h230q0 28 -8.5 52t-23 42t-36 28.5t-47.5 10.5q-25 0 -45.5 -9t-36.5 -24.5t-24.5 -36.5t-8.5 -45v-18zM178 637q-8 7 -11 15.5t-3 18.5q0 19 14 33q13 13 33 13q9 0 17.5 -3t15.5 -10
l24 -24l24 24q13 13 33 13q9 0 17.5 -3t15.5 -10q14 -14 14 -33q0 -10 -3.5 -18.5t-10.5 -15.5l-57 -57q-15 -14 -33 -14q-20 0 -34 14z" />
    <glyph glyph-name="Gcircumflex" unicode="&#x11c;" horiz-adv-x="539" 
d="M190 900q14 10 30 9t27 -11q3 -3 5 -4t5 -6q10 -12 9 -28.5t-10 -28.5q-2 -3 -4.5 -4t-5.5 -4l-65 -46q-13 -11 -29 -10t-27 11q-3 2 -5 4.5t-5 4.5q-9 13 -9 28.5t11 28.5q2 3 4 4.5t4 3.5zM364 900q-14 10 -30 9t-27 -11q-3 -3 -5 -4t-5 -6q-10 -12 -9 -28.5t10 -28.5
q2 -3 4.5 -4t5.5 -4l65 -46q13 -11 29 -10t27 11q3 2 5 4.5t5 4.5q9 13 9 28.5t-11 28.5q-2 3 -4 4.5t-4 3.5zM467 650q11 -13 11 -30q0 -21 -16 -35q-13 -12 -31 -12q-22 0 -36 16q-6 7 -16 14.5t-24.5 13.5t-35 10t-47.5 4h-3q-23 0 -43 -7t-36 -20t-26 -31.5t-10 -41.5
v-337q0 -11 7 -28t21.5 -33t35.5 -27.5t51 -11.5t60 2.5t55 7.5v240h-115q-20 0 -33.5 14t-13.5 33q0 20 13.5 33.5t33.5 13.5h162q20 0 33.5 -13.5t13.5 -33.5v-287q0 -35 -20.5 -56t-51 -31.5t-64.5 -13.5t-61 -3h-12q-46 0 -84 17t-66 45t-43.5 62.5t-15.5 69.5v337
q0 44 17.5 79.5t46 60.5t66.5 39t79 14q42 0 74.5 -6t56 -16.5t40 -24t27.5 -27.5z" />
    <glyph glyph-name="gcircumflex" unicode="&#x11d;" horiz-adv-x="522" 
d="M228 703q14 14 34 14q18 0 33 -14l57 -57q7 -7 10.5 -15.5t3.5 -18.5q0 -19 -14 -33q-7 -7 -15.5 -10t-17.5 -3q-20 0 -33 13l-24 24l-24 -24q-7 -7 -15.5 -10t-17.5 -3q-20 0 -33 13q-14 14 -14 33q0 10 3 18.5t11 15.5zM363 105v345q-22 5 -50.5 7.5t-52.5 2.5h-12
q-22 0 -42.5 -7t-36.5 -20t-25.5 -31.5t-9.5 -40.5v-167q0 -24 9.5 -42.5t25.5 -31.5t36.5 -19.5t42.5 -6.5h10q25 0 54 2.5t51 8.5zM457 37q0 -40 -8.5 -76.5t-32.5 -66.5q-25 -30 -65 -47.5t-103 -17.5q-26 0 -50 6.5t-44.5 17t-37 24t-28.5 27.5q-6 7 -9 15t-3 15
q0 22 18 36q6 6 14 8.5t16 2.5q22 0 36 -16q4 -6 12 -13t19.5 -13.5t26 -11t30.5 -4.5q38 0 60.5 8t34.5 22q9 10 13.5 24.5t5.5 31.5q-30 -7 -60.5 -8t-53.5 -1q-41 0 -78.5 14t-66.5 39.5t-46 61t-17 79.5v167q0 45 17 80.5t46 60.5t66.5 38.5t78.5 13.5q17 0 39.5 -0.5
t45.5 -4t45.5 -9.5t40 -17.5t28 -29t10.5 -41.5v-415z" />
    <glyph glyph-name="Gbreve" unicode="&#x11e;" horiz-adv-x="539" 
d="M276 835q24 0 44.5 8t32.5 27q12 14 32 14q15 0 27 -9q14 -12 14 -32q0 -16 -11 -29q-24 -29 -60.5 -45.5t-78.5 -16.5q-39 0 -75.5 16.5t-61.5 45.5q-11 13 -11 29q0 20 14 32q14 9 27 9q19 0 33 -14q11 -19 31.5 -27t42.5 -8zM467 650q11 -13 11 -30q0 -21 -16 -35
q-13 -12 -31 -12q-22 0 -36 16q-6 7 -16 14.5t-24.5 13.5t-35 10t-47.5 4h-3q-23 0 -43 -7t-36 -20t-26 -31.5t-10 -41.5v-337q0 -11 7 -28t21.5 -33t35.5 -27.5t51 -11.5t60 2.5t55 7.5v240h-115q-20 0 -33.5 14t-13.5 33q0 20 13.5 33.5t33.5 13.5h162q20 0 33.5 -13.5
t13.5 -33.5v-287q0 -35 -20.5 -56t-51 -31.5t-64.5 -13.5t-61 -3h-12q-46 0 -84 17t-66 45t-43.5 62.5t-15.5 69.5v337q0 44 17.5 79.5t46 60.5t66.5 39t79 14q42 0 74.5 -6t56 -16.5t40 -24t27.5 -27.5z" />
    <glyph glyph-name="gbreve" unicode="&#x11f;" horiz-adv-x="522" 
d="M262 666q24 0 44.5 8t32.5 27q12 14 32 14q15 0 27 -9q14 -12 14 -32q0 -16 -11 -29q-24 -29 -60.5 -45.5t-78.5 -16.5q-39 0 -75.5 16.5t-61.5 45.5q-11 13 -11 29q0 20 14 32q14 9 27 9q19 0 33 -14q11 -19 31.5 -27t42.5 -8zM363 105v345q-22 5 -50.5 7.5t-52.5 2.5
h-12q-22 0 -42.5 -7t-36.5 -20t-25.5 -31.5t-9.5 -40.5v-167q0 -24 9.5 -42.5t25.5 -31.5t36.5 -19.5t42.5 -6.5h10q25 0 54 2.5t51 8.5zM457 37q0 -40 -8.5 -76.5t-32.5 -66.5q-25 -30 -65 -47.5t-103 -17.5q-26 0 -50 6.5t-44.5 17t-37 24t-28.5 27.5q-6 7 -9 15t-3 15
q0 22 18 36q6 6 14 8.5t16 2.5q22 0 36 -16q4 -6 12 -13t19.5 -13.5t26 -11t30.5 -4.5q38 0 60.5 8t34.5 22q9 10 13.5 24.5t5.5 31.5q-30 -7 -60.5 -8t-53.5 -1q-41 0 -78.5 14t-66.5 39.5t-46 61t-17 79.5v167q0 45 17 80.5t46 60.5t66.5 38.5t78.5 13.5q17 0 39.5 -0.5
t45.5 -4t45.5 -9.5t40 -17.5t28 -29t10.5 -41.5v-415z" />
    <glyph glyph-name="Gdotaccent" unicode="&#x120;" horiz-adv-x="539" 
d="M271 765q-19 0 -33 14t-14 33q0 20 14 33.5t33 13.5q20 0 34 -13.5t14 -33.5q0 -19 -14 -33t-34 -14zM467 650q11 -13 11 -30q0 -21 -16 -35q-13 -12 -31 -12q-22 0 -36 16q-6 7 -16 14.5t-24.5 13.5t-35 10t-47.5 4h-3q-23 0 -43 -7t-36 -20t-26 -31.5t-10 -41.5v-337
q0 -11 7 -28t21.5 -33t35.5 -27.5t51 -11.5t60 2.5t55 7.5v240h-115q-20 0 -33.5 14t-13.5 33q0 20 13.5 33.5t33.5 13.5h162q20 0 33.5 -13.5t13.5 -33.5v-287q0 -35 -20.5 -56t-51 -31.5t-64.5 -13.5t-61 -3h-12q-46 0 -84 17t-66 45t-43.5 62.5t-15.5 69.5v337
q0 44 17.5 79.5t46 60.5t66.5 39t79 14q42 0 74.5 -6t56 -16.5t40 -24t27.5 -27.5z" />
    <glyph glyph-name="gdotaccent" unicode="&#x121;" horiz-adv-x="522" 
d="M254 624q-19 0 -33 14t-14 33q0 20 14 33.5t33 13.5q20 0 34 -13.5t14 -33.5q0 -19 -14 -33t-34 -14zM363 105v345q-22 5 -50.5 7.5t-52.5 2.5h-12q-22 0 -42.5 -7t-36.5 -20t-25.5 -31.5t-9.5 -40.5v-167q0 -24 9.5 -42.5t25.5 -31.5t36.5 -19.5t42.5 -6.5h10
q25 0 54 2.5t51 8.5zM457 37q0 -40 -8.5 -76.5t-32.5 -66.5q-25 -30 -65 -47.5t-103 -17.5q-26 0 -50 6.5t-44.5 17t-37 24t-28.5 27.5q-6 7 -9 15t-3 15q0 22 18 36q6 6 14 8.5t16 2.5q22 0 36 -16q4 -6 12 -13t19.5 -13.5t26 -11t30.5 -4.5q38 0 60.5 8t34.5 22
q9 10 13.5 24.5t5.5 31.5q-30 -7 -60.5 -8t-53.5 -1q-41 0 -78.5 14t-66.5 39.5t-46 61t-17 79.5v167q0 45 17 80.5t46 60.5t66.5 38.5t78.5 13.5q17 0 39.5 -0.5t45.5 -4t45.5 -9.5t40 -17.5t28 -29t10.5 -41.5v-415z" />
    <glyph glyph-name="Gcommaaccent" unicode="&#x122;" horiz-adv-x="540" 
d="M180 830q-8 7 -11 16t-3 18q0 19 14 33q13 14 33 14q9 0 17.5 -3.5t15.5 -10.5l24 -23l24 23q13 14 33 14q9 0 17.5 -3.5t15.5 -10.5q14 -14 14 -33q0 -9 -3.5 -18t-10.5 -16l-56 -56q-16 -14 -34 -14q-20 0 -34 14zM467 650q11 -13 11 -30q0 -21 -16 -35
q-13 -12 -31 -12q-22 0 -36 16q-6 7 -16 14.5t-24.5 13.5t-35 10t-47.5 4h-3q-23 0 -43 -7t-36 -20t-26 -31.5t-10 -41.5v-337q0 -11 7 -28t21.5 -33t35.5 -27.5t51 -11.5t60 2.5t55 7.5v240h-115q-20 0 -33.5 14t-13.5 33q0 20 13.5 33.5t33.5 13.5h162q20 0 33.5 -13.5
t13.5 -33.5v-287q0 -35 -20.5 -56t-51 -31.5t-64.5 -13.5t-61 -3h-12q-46 0 -84 17t-66 45t-43.5 62.5t-15.5 69.5v337q0 44 17.5 79.5t46 60.5t66.5 39t79 14q42 0 74.5 -6t56 -16.5t40 -24t27.5 -27.5z" />
    <glyph glyph-name="gcommaaccent" unicode="&#x123;" horiz-adv-x="519" 
d="M165 639q-8 7 -11 15.5t-3 18.5q0 19 14 33q13 13 33 13q9 0 17.5 -3t15.5 -10l24 -24l24 24q13 13 33 13q9 0 17.5 -3t15.5 -10q14 -14 14 -33q0 -10 -3.5 -18.5t-10.5 -15.5l-57 -57q-15 -14 -33 -14q-20 0 -34 14zM363 106v345q-22 5 -50.5 7.5t-52.5 2.5h-12
q-22 0 -42.5 -7t-36.5 -20t-25.5 -31.5t-9.5 -40.5v-167q0 -24 9.5 -42.5t25.5 -31.5t36.5 -19.5t42.5 -6.5h10q25 0 54 2.5t51 8.5zM457 38q0 -40 -8.5 -76.5t-32.5 -66.5q-25 -30 -65 -47.5t-103 -17.5q-26 0 -50 6.5t-44.5 17t-37 24t-28.5 27.5q-6 7 -9 15t-3 15
q0 22 18 36q6 6 14 8.5t16 2.5q22 0 36 -16q4 -6 12 -13t19.5 -13.5t26 -11t30.5 -4.5q38 0 60.5 8t34.5 22q9 10 13.5 24.5t5.5 31.5q-30 -7 -60.5 -8t-53.5 -1q-41 0 -78.5 14t-66.5 39.5t-46 61t-17 79.5v167q0 45 17 80.5t46 60.5t66.5 38.5t78.5 13.5q17 0 39.5 -0.5
t45.5 -4t45.5 -9.5t40 -17.5t28 -29t10.5 -41.5v-415z" />
    <glyph glyph-name="Hcircumflex" unicode="&#x124;" horiz-adv-x="541" 
d="M181 900q14 10 30 9t27 -11q3 -3 5 -4t5 -6q10 -12 9 -28.5t-10 -28.5q-2 -3 -4.5 -4t-5.5 -4l-65 -46q-13 -11 -29 -10t-27 11q-3 2 -5 4.5t-5 4.5q-9 13 -9 28.5t11 28.5q2 3 4 4.5t4 3.5zM355 900q-14 10 -30 9t-27 -11q-3 -3 -5 -4t-5 -6q-10 -12 -9 -28.5t10 -28.5
q2 -3 4.5 -4t5.5 -4l65 -46q13 -11 29 -10t27 11q3 2 5 4.5t5 4.5q9 13 9 28.5t-11 28.5q-2 3 -4 4.5t-4 3.5zM61 677q0 19 13.5 33t32.5 14q20 0 33.5 -14t13.5 -33v-239h229v239q0 19 13.5 33t32.5 14q20 0 33.5 -14t13.5 -33v-630q0 -20 -13.5 -33.5t-33.5 -13.5
q-19 0 -32.5 13.5t-13.5 33.5v297h-229v-297q0 -20 -13.5 -33.5t-33.5 -13.5q-19 0 -32.5 13.5t-13.5 33.5v630z" />
    <glyph glyph-name="hcircumflex" unicode="&#x125;" horiz-adv-x="540" 
d="M228 836q14 14 34 14q18 0 33 -14l57 -57q7 -7 10.5 -15.5t3.5 -18.5q0 -19 -14 -33q-7 -7 -15.5 -10t-17.5 -3q-20 0 -33 13l-24 24l-24 -24q-7 -7 -15.5 -10t-17.5 -3q-20 0 -33 13q-14 14 -14 33q0 10 3 18.5t11 15.5zM60 674q0 20 14 33.5t34 13.5q19 0 32.5 -13.5
t13.5 -33.5v-132q32 7 62.5 8t53.5 1q41 0 78.5 -14t66.5 -39.5t46 -61t17 -79.5v-313q0 -19 -13.5 -32.5t-33.5 -13.5t-33.5 13.5t-13.5 32.5v313q0 26 -10.5 44.5t-27.5 30.5t-39 18.5t-45 6.5q-24 0 -54 -3t-54 -8v-402q0 -21 -13.5 -33.5t-32.5 -12.5q-20 0 -34 12.5
t-14 33.5v630z" />
    <glyph glyph-name="Hbar" unicode="&#x126;" horiz-adv-x="541" 
d="M61 677q0 19 13.5 33t32.5 14q20 0 33.5 -14t13.5 -33v-84q10 7 23 7h187q10 0 19 -5v82q0 19 13.5 33t32.5 14q20 0 33.5 -14t13.5 -33v-630q0 -20 -13.5 -33.5t-33.5 -13.5q-19 0 -32.5 13.5t-13.5 33.5v297h-229v-297q0 -20 -13.5 -33.5t-33.5 -13.5q-19 0 -32.5 13.5
t-13.5 33.5v630zM177 505q-13 0 -23 5v-72h229v71q-9 -4 -19 -4h-187z" />
    <glyph glyph-name="hbar" unicode="&#x127;" horiz-adv-x="540" 
d="M46 576q-19 0 -33 14t-14 34q0 19 14 33t33 14h14v3q0 20 14 33.5t34 13.5q19 0 32.5 -13.5t13.5 -33.5v-3h79q19 0 33 -14t14 -33q0 -20 -14 -34t-33 -14h-79v-34q32 7 62.5 8t53.5 1q41 0 78.5 -14t66.5 -39.5t46 -61t17 -79.5v-313q0 -19 -13.5 -32.5t-33.5 -13.5
t-33.5 13.5t-13.5 32.5v313q0 26 -10.5 44.5t-27.5 30.5t-39 18.5t-45 6.5q-24 0 -54 -3t-54 -8v-402q0 -21 -13.5 -33.5t-32.5 -12.5q-20 0 -34 12.5t-14 33.5v532h-14z" />
    <glyph glyph-name="Itilde" unicode="&#x128;" horiz-adv-x="215" 
d="M125 839q2 -2 9.5 -6t22.5 -4t28.5 8t21.5 25q8 12 21 12q18 0 27 -9.5t9 -27.5q0 -14 -7 -26q-16 -27 -44.5 -41.5t-56.5 -14.5q-35 0 -60 23t-43.5 24t-33 -8.5t-21.5 -26.5q-10 -12 -22 -12q-18 0 -27 9t-9 28q0 14 7 26q17 27 43 41.5t60.5 13.5t74.5 -34zM59 678
q0 19 14 33t33 14q20 0 33.5 -14t13.5 -33v-630q0 -20 -13.5 -33.5t-33.5 -13.5q-19 0 -33 13.5t-14 33.5v630z" />
    <glyph glyph-name="itilde" unicode="&#x129;" horiz-adv-x="218" 
d="M60 504q0 20 14 33.5t33 13.5q20 0 33.5 -13.5t13.5 -33.5v-457q0 -20 -13.5 -33.5t-33.5 -13.5q-19 0 -33 13.5t-14 33.5v457zM126 679q2 -2 9.5 -6t22.5 -4t28.5 8t21.5 25q8 12 21 12q18 0 27 -9.5t9 -27.5q0 -14 -7 -26q-16 -27 -44.5 -41.5t-56.5 -14.5
q-35 0 -60 23t-43.5 24t-33 -8.5t-21.5 -26.5q-10 -12 -22 -12q-18 0 -27 9t-9 28q0 14 7 26q17 27 43 41.5t60.5 13.5t74.5 -34z" />
    <glyph glyph-name="Imcaron" unicode="&#x12a;" horiz-adv-x="256" 
d="M35 760q-19 0 -33 14t-14 34q0 19 14 33t33 14h187q19 0 33 -14t14 -33q0 -20 -14 -34t-33 -14h-187zM78 678q0 19 14 33t33 14q20 0 33.5 -14t13.5 -33v-630q0 -20 -13.5 -33.5t-33.5 -13.5q-19 0 -33 13.5t-14 33.5v630z" />
    <glyph glyph-name="imacron.001" unicode="&#x12b;" horiz-adv-x="258" 
d="M79 505q0 20 13.5 33.5t33.5 13.5q19 0 33 -13.5t14 -33.5v-457q0 -20 -14 -33.5t-33 -13.5q-20 0 -33.5 13.5t-13.5 33.5v457zM35 623q-20 0 -34 14t-14 34q0 19 14 33t34 14h186q19 0 33 -14t14 -33q0 -20 -14 -34t-33 -14h-186z" />
    <glyph glyph-name="Ibreve" unicode="&#x12c;" horiz-adv-x="215" 
d="M106 835q24 0 44.5 8t32.5 27q12 14 32 14q15 0 27 -9q14 -12 14 -32q0 -16 -11 -29q-24 -29 -60.5 -45.5t-78.5 -16.5q-39 0 -75.5 16.5t-61.5 45.5q-11 13 -11 29q0 20 14 32q14 9 27 9q19 0 33 -14q11 -19 31.5 -27t42.5 -8zM59 678q0 19 14 33t33 14q20 0 33.5 -14
t13.5 -33v-630q0 -20 -13.5 -33.5t-33.5 -13.5q-19 0 -33 13.5t-14 33.5v630z" />
    <glyph glyph-name="Iogonek" unicode="&#x12e;" horiz-adv-x="215" 
d="M59 678q0 19 14 33t33 14q20 0 33.5 -14t13.5 -33v-630q0 -20 -14 -34q-5 -5 -11 -8q-9 -9 -18 -20q-17 -20 -17 -35q0 -27 18 -38t37.5 -3.5t28 24t27 17.5t27 -8.5t6.5 -24.5q0 -21 -11.5 -36.5t-28 -25.5t-35 -15t-33.5 -5q-45 0 -77.5 31t-32.5 84q0 18 13 42
q12 20 29 38q-2 8 -2 17v630z" />
    <glyph glyph-name="iogonek" unicode="&#x12f;" horiz-adv-x="218" 
d="M60 504q0 20 14 33.5t33 13.5q20 0 33.5 -13.5t13.5 -33.5v-457q0 -9 -3 -17q1 -3 -2 -6l-1 -1q-3 -5 -7.5 -9.5t-8.5 -7.5q-10 -9 -19 -20q-17 -20 -17 -35q0 -27 18 -38t37.5 -3.5t28 24t27 17.5t27 -8.5t6.5 -24.5q0 -21 -11.5 -36.5t-28 -25.5t-35 -15t-33.5 -5
q-45 0 -77.5 31t-32.5 84q0 18 13 42q11 19 28 36q-3 8 -3 18v457zM107 623q-20 0 -33.5 14t-13.5 33q0 20 13.5 33.5t33.5 13.5t34 -13.5t14 -33.5q0 -19 -14 -33t-34 -14z" />
    <glyph glyph-name="Idotaccent" unicode="&#x130;" horiz-adv-x="215" 
d="M106 765q-19 0 -33 14t-14 33q0 20 14 33.5t33 13.5q20 0 34 -13.5t14 -33.5q0 -19 -14 -33t-34 -14zM59 678q0 19 14 33t33 14q20 0 33.5 -14t13.5 -33v-630q0 -20 -13.5 -33.5t-33.5 -13.5q-19 0 -33 13.5t-14 33.5v630z" />
    <glyph glyph-name="dotlessi" unicode="&#x131;" horiz-adv-x="218" 
d="M60 504q0 20 14 33.5t33 13.5q20 0 33.5 -13.5t13.5 -33.5v-457q0 -20 -13.5 -33.5t-33.5 -13.5q-19 0 -33 13.5t-14 33.5v457z" />
    <glyph glyph-name="IJ" unicode="&#x132;" horiz-adv-x="608" 
d="M59 678q0 19 14 33t33 14q3 0 6 -1q3 1 7 1h327q36 0 57.5 -7t33 -19.5t15 -30.5t3.5 -39v-421q0 -43 -16.5 -80.5t-45 -66t-66.5 -45t-81 -16.5q-32 0 -59 10t-48 22.5t-34 24t-16 15.5q-11 13 -11 29q0 22 18 38q12 9 29 9q22 0 35 -15q20 -20 41 -29.5t45 -9.5
q23 0 44 9t37 25t25 36.5t9 43.5v138h-196q-19 0 -33 13.5t-14 33.5q0 19 14 33t33 14h195v189q0 2 -3 2h-304v-583q0 -20 -13.5 -33.5t-33.5 -13.5q-19 0 -33 13.5t-14 33.5v630z" />
    <glyph glyph-name="ij" unicode="&#x133;" horiz-adv-x="479" 
d="M107 623q-20 0 -33.5 14t-13.5 33q0 20 13.5 33.5t33.5 13.5t34 -13.5t14 -33.5q0 -19 -14 -33t-34 -14zM60 504q0 20 14 33.5t33 13.5q20 0 33.5 -13.5t13.5 -33.5v-457q0 -20 -13.5 -33.5t-33.5 -13.5q-19 0 -33 13.5t-14 33.5v457zM357 46q0 -40 -8.5 -76.5
t-32.5 -66.5q-25 -31 -66 -48.5t-103 -17.5q-20 0 -33.5 14t-13.5 33q0 20 13.5 33.5t33.5 13.5q39 0 61.5 8.5t33.5 22.5q12 15 16.5 37t4.5 47v412h-33q-20 0 -33.5 14t-13.5 34t13.5 33.5t33.5 13.5h80q20 0 34 -13.5t14 -33.5zM310 620q-20 0 -33.5 14t-13.5 33
q0 20 13.5 34t33.5 14q21 0 35 -14t14 -34q0 -19 -14 -33t-35 -14z" />
    <glyph glyph-name="Jcircumflex" unicode="&#x134;" horiz-adv-x="480" 
d="M67 631q-20 0 -33.5 13.5t-13.5 33.5t13.5 33.5t33.5 13.5h261q36 0 57.5 -7t33 -19.5t15 -30.5t3.5 -39v-421q0 -43 -16.5 -80.5t-45 -66t-66.5 -45t-81 -16.5q-32 0 -59 10t-48 22.5t-34 24t-16 15.5q-11 13 -11 29q0 22 18 38q12 9 29 9q22 0 35 -15q20 -20 41 -29.5
t45 -9.5q23 0 44 9t37 25t25 36.5t9 43.5v138h-196q-19 0 -33 13.5t-14 33.5q0 19 14 33t33 14h195v189q0 2 -3 2h-272zM382 852q2 -2 4 -3.5t4 -4.5q11 -13 11 -28.5t-9 -28.5q-3 -2 -5 -4.5t-5 -4.5q-11 -10 -27 -11t-29 10l-65 46q-3 3 -5.5 4t-4.5 4q-9 12 -10 28.5
t9 28.5q3 5 5 6t5 4q11 10 27 11t30 -9zM143 900q14 10 30 9t27 -11q3 -3 5 -4t5 -6q10 -12 9 -28.5t-10 -28.5q-2 -3 -4.5 -4t-5.5 -4l-65 -46q-13 -11 -29 -10t-27 11q-3 2 -5 4.5t-5 4.5q-9 13 -9 28.5t11 28.5q2 3 4 4.5t4 3.5z" />
    <glyph glyph-name="jcircumflex" unicode="&#x135;" horiz-adv-x="261" 
d="M195 46q0 -40 -8.5 -76.5t-32.5 -66.5q-25 -31 -66 -48.5t-103 -17.5q-20 0 -33.5 14t-13.5 33q0 20 13.5 33.5t33.5 13.5q39 0 61.5 8.5t33.5 22.5q12 15 16.5 37t4.5 47v412h-33q-20 0 -33.5 14t-13.5 34t13.5 33.5t33.5 13.5h80q20 0 34 -13.5t14 -33.5zM78 703
q14 14 34 14q18 0 33 -14l57 -57q7 -7 10.5 -15.5t3.5 -18.5q0 -19 -14 -33q-7 -7 -15.5 -10t-17.5 -3q-20 0 -33 13l-24 24l-24 -24q-7 -7 -15.5 -10t-17.5 -3q-20 0 -33 13q-14 14 -14 33q0 10 3 18.5t11 15.5z" />
    <glyph glyph-name="Kcommaaccent" unicode="&#x136;" 
d="M232 -34q3 16 15.5 25t28.5 9h6.5t6.5 -1q16 -5 25.5 -17.5t9.5 -28.5q0 -3 -0.5 -5.5t-0.5 -6.5l-21 -78q-5 -16 -17.5 -25t-27.5 -9h-6.5t-6.5 2q-16 4 -25.5 16.5t-9.5 28.5q0 4 0.5 6l1.5 6zM154 48q0 -21 -13.5 -34.5t-33.5 -13.5t-34 13.5t-14 34.5v630
q0 19 14 32.5t34 13.5t33.5 -13.5t13.5 -32.5v-242h85l151 265q6 12 17.5 18t22.5 6q13 0 24 -6t17.5 -17.5t6.5 -23.5t-6 -24l-131 -230q29 -10 54 -27t43.5 -40.5t28.5 -52t10 -60.5v-196q0 -20 -13.5 -33.5t-33.5 -13.5q-19 0 -32.5 13.5t-13.5 33.5v195q0 23 -10 41.5
t-26 31t-36.5 19.5t-42.5 7h-115v-294z" />
    <glyph glyph-name="kcommaaccent" unicode="&#x137;" 
d="M236 -34q3 16 15.5 25t29.5 9h6t6 -1q16 -5 25.5 -17.5t9.5 -28.5q0 -3 -0.5 -5.5t-0.5 -6.5l-21 -78q-5 -16 -17.5 -25t-27.5 -9h-6.5t-6.5 2q-16 4 -25.5 16.5t-9.5 28.5q0 4 0.5 6l1.5 6zM154 48q0 -21 -13.5 -34.5t-32.5 -13.5q-20 0 -34 13.5t-14 34.5v457
q0 20 14 34t34 14q19 0 32.5 -14t13.5 -34v-183h90l149 211q7 10 17.5 15t21.5 5q14 0 26 -9q10 -7 15 -17t5 -22q0 -14 -8 -26l-121 -172q28 -10 52 -27t40.5 -40t26.5 -51t10 -60v-81q0 -21 -13.5 -34.5t-33.5 -13.5t-33.5 13.5t-13.5 34.5v81q0 23 -9.5 41.5t-25 31
t-36 19.5t-42.5 7h-117v-180z" />
    <glyph glyph-name="Lacute" unicode="&#x139;" 
d="M431 94q20 0 33.5 -13.5t13.5 -32.5q0 -21 -13.5 -34.5t-33.5 -13.5h-262q-38 0 -59 7.5t-32.5 20.5t-14 31.5t-2.5 39.5v579q0 20 13.5 33.5t33.5 13.5q19 0 32.5 -13.5t13.5 -33.5v-579q0 -2 2.5 -3.5t12.5 -1.5h262zM88 902q4 16 16.5 25t28.5 9h6q3 0 7 -1
q16 -4 25.5 -16.5t9.5 -29.5q0 -3 -0.5 -5.5t-1.5 -5.5l-21 -78q-4 -16 -16.5 -25t-27.5 -9h-7q-3 0 -6 1q-16 4 -25.5 16.5t-9.5 28.5q0 4 0.5 6.5t0.5 5.5z" />
    <glyph glyph-name="lacute" unicode="&#x13a;" horiz-adv-x="221" 
d="M86 706q4 16 16.5 25t28.5 9h6.5t6.5 -1q16 -4 25.5 -16.5t9.5 -29.5q0 -3 -0.5 -5.5t-1.5 -5.5l-21 -78q-4 -16 -16.5 -25t-27.5 -9h-7t-6 1q-16 4 -25.5 16.5t-9.5 28.5q0 4 0.5 6.5t0.5 5.5zM60 504q0 20 14 33.5t33 13.5q20 0 33.5 -13.5t13.5 -33.5v-457
q0 -20 -13.5 -33.5t-33.5 -13.5q-19 0 -33 13.5t-14 33.5v457z" />
    <glyph glyph-name="Lcommaaccent" unicode="&#x13b;" horiz-adv-x="501" 
d="M233 -34q3 16 15.5 25t28.5 9h6.5t6.5 -1q16 -5 25.5 -17.5t9.5 -28.5q0 -3 -0.5 -5.5t-0.5 -6.5l-21 -78q-5 -16 -17.5 -25t-27.5 -9h-6.5t-6.5 2q-16 4 -25.5 16.5t-9.5 28.5q0 4 0.5 6l1.5 6zM430 94q20 0 33.5 -13.5t13.5 -32.5q0 -21 -13.5 -34.5t-33.5 -13.5h-262
q-38 0 -59 7.5t-32.5 20.5t-14 31.5t-2.5 39.5v579q0 20 13.5 33.5t33.5 13.5q19 0 32.5 -13.5t13.5 -33.5v-579q0 -2 2.5 -3.5t12.5 -1.5h262z" />
    <glyph glyph-name="lcommaaccent" unicode="&#x13c;" horiz-adv-x="240" 
d="M91 -33q4 16 16.5 25t28.5 9h6.5t6.5 -1q16 -5 25.5 -17.5t9.5 -28.5q0 -3 -0.5 -5.5t-1.5 -6.5l-21 -78q-4 -16 -16.5 -25t-27.5 -9h-7t-6 2q-16 4 -25.5 16.5t-9.5 28.5q0 4 0.5 6t0.5 6zM166 95q20 0 33.5 -14t13.5 -33q0 -20 -13.5 -33.5t-33.5 -13.5q-31 0 -52 9.5
t-33.5 24.5t-17.5 34t-5 39v571q0 19 13.5 32.5t33.5 13.5q19 0 32.5 -13.5t13.5 -32.5v-564q0 -8 3.5 -14t11.5 -6z" />
    <glyph glyph-name="Lcaron" unicode="&#x13d;" 
d="M18 830q-8 7 -11 16t-3 18q0 19 14 33q13 14 32 14q10 0 18.5 -3.5t15.5 -10.5l24 -23l24 23q13 14 33 14q9 0 17.5 -3.5t15.5 -10.5q13 -14 13 -33q0 -9 -3 -18t-10 -16l-57 -56q-15 -14 -33 -14q-20 0 -34 14zM431 94q20 0 33.5 -13.5t13.5 -32.5q0 -21 -13.5 -34.5
t-33.5 -13.5h-262q-38 0 -59 7.5t-32.5 20.5t-14 31.5t-2.5 39.5v579q0 20 13.5 33.5t33.5 13.5q19 0 32.5 -13.5t13.5 -33.5v-579q0 -2 2.5 -3.5t12.5 -1.5h262z" />
    <glyph glyph-name="lcaron" unicode="&#x13e;" horiz-adv-x="308" 
d="M167 94q20 0 33.5 -14t13.5 -33q0 -20 -13.5 -33.5t-33.5 -13.5q-31 0 -52 9.5t-33.5 24.5t-17.5 34t-5 39v571q0 19 13.5 32.5t33.5 13.5q19 0 32.5 -13.5t13.5 -32.5v-564q0 -8 3.5 -14t11.5 -6zM239 690q4 16 16.5 25t28.5 9h6q3 0 7 -1q16 -4 25.5 -16.5t9.5 -29.5
q0 -3 -0.5 -5.5t-1.5 -5.5l-21 -78q-4 -16 -16.5 -25t-27.5 -9h-7q-3 0 -6 1q-16 4 -25.5 16.5t-9.5 28.5q0 4 0.5 6.5t0.5 5.5z" />
    <glyph glyph-name="Ldot" unicode="&#x13f;" 
d="M425 297q-19 0 -33 14t-14 33q0 20 14 33.5t33 13.5q20 0 34 -13.5t14 -33.5q0 -19 -14 -33t-34 -14zM431 94q20 0 33.5 -13.5t13.5 -32.5q0 -21 -13.5 -34.5t-33.5 -13.5h-262q-38 0 -59 7.5t-32.5 20.5t-14 31.5t-2.5 39.5v579q0 20 13.5 33.5t33.5 13.5
q19 0 32.5 -13.5t13.5 -33.5v-579q0 -2 2.5 -3.5t12.5 -1.5h262z" />
    <glyph glyph-name="ldot" unicode="&#x140;" horiz-adv-x="312" 
d="M261 297q-19 0 -33 14t-14 33q0 20 14 33.5t33 13.5q20 0 34 -13.5t14 -33.5q0 -19 -14 -33t-34 -14zM167 94q20 0 33.5 -14t13.5 -33q0 -20 -13.5 -33.5t-33.5 -13.5q-31 0 -52 9.5t-33.5 24.5t-17.5 34t-5 39v571q0 19 13.5 32.5t33.5 13.5q19 0 32.5 -13.5t13.5 -32.5
v-564q0 -8 3.5 -14t11.5 -6z" />
    <glyph glyph-name="Lslash" unicode="&#x141;" 
d="M61 678q0 20 13.5 33.5t33.5 13.5q19 0 32.5 -13.5t13.5 -33.5v-319q15 12 34.5 8.5t30.5 -19.5q11 -17 7.5 -36t-20.5 -30l-52 -38v-145q0 -2 2.5 -3.5t12.5 -1.5h262q20 0 33.5 -13.5t13.5 -32.5q0 -21 -13.5 -34.5t-33.5 -13.5h-262q-38 0 -59 7.5t-32.5 20.5
t-14 31.5t-2.5 39.5v79q-11 -4 -24 -2q-19 3 -30 20q-11 15 -7.5 34.5t19.5 30.5l42 30v387z" />
    <glyph glyph-name="lslash" unicode="&#x142;" horiz-adv-x="251" 
d="M185 94q20 0 33.5 -14t13.5 -33q0 -20 -13.5 -33.5t-33.5 -13.5q-31 0 -52 9.5t-33.5 24.5t-17.5 34t-5 39v174l-9 -4q-19 -9 -37.5 -1.5t-25.5 24.5q-9 18 -1.5 36t25.5 26l48 22v294q0 19 13.5 32.5t33.5 13.5q19 0 32.5 -13.5t13.5 -32.5v-251l10 5q18 7 36 0.5
t27 -24.5q7 -17 0 -35.5t-24 -26.5l-49 -23v-209q0 -8 3.5 -14t11.5 -6z" />
    <glyph glyph-name="Nacute" unicode="&#x143;" horiz-adv-x="540" 
d="M61 675q0 19 13.5 33t33.5 14q14 0 25.5 -8t17.5 -22l232 -452v435q0 19 13.5 33t33.5 14q19 0 33 -14t14 -33v-630q0 -15 -5 -24.5t-11.5 -14.5t-13 -6.5t-10.5 -1.5q-13 0 -21.5 3t-14.5 7.5t-9 8.5l-5 8l-233 455v-435q0 -20 -13.5 -33.5t-32.5 -13.5
q-20 0 -33.5 13.5t-13.5 33.5v630zM248 895q4 16 16.5 25t28.5 9h6q3 0 7 -1q16 -4 25.5 -16.5t9.5 -29.5q0 -3 -0.5 -5.5t-1.5 -5.5l-21 -78q-4 -16 -16.5 -25t-27.5 -9h-7q-3 0 -6 1q-16 4 -25.5 16.5t-9.5 28.5q0 4 0.5 6.5t0.5 5.5z" />
    <glyph glyph-name="nacute" unicode="&#x144;" horiz-adv-x="542" 
d="M155 49q0 -20 -13.5 -33.5t-33.5 -13.5t-34 13.5t-14 33.5v403q0 25 10.5 43t28 29.5t40 18t46 9.5t46 3.5t39.5 0.5q42 0 79.5 -14t66 -39.5t45.5 -61t17 -78.5v-312q0 -20 -13.5 -34t-33.5 -14q-19 0 -32.5 14t-13.5 34v312q0 25 -12 44t-30 31.5t-41.5 18.5t-47.5 6
q-13 0 -27.5 -1t-28 -3t-25 -3.5t-18.5 -3.5v-403zM233 706q4 16 16.5 25t28.5 9h6q3 0 7 -1q16 -4 25.5 -16.5t9.5 -29.5q0 -3 -0.5 -5.5t-1.5 -5.5l-21 -78q-4 -16 -16.5 -25t-27.5 -9h-7q-3 0 -6 1q-16 4 -25.5 16.5t-9.5 28.5q0 4 0.5 6.5t0.5 5.5z" />
    <glyph glyph-name="Ncommaaccent" unicode="&#x145;" horiz-adv-x="537" 
d="M233 -33q3 16 15.5 25t28.5 9h6.5t6.5 -1q16 -5 25.5 -17.5t9.5 -28.5q0 -3 -0.5 -5.5t-0.5 -6.5l-21 -78q-5 -16 -17.5 -25t-27.5 -9h-6.5t-6.5 2q-16 4 -25.5 16.5t-9.5 28.5q0 4 0.5 6l1.5 6zM60 678q0 19 13.5 33t33.5 14q14 0 25.5 -8t17.5 -22l232 -452v435
q0 19 13.5 33t33.5 14q19 0 33 -14t14 -33v-630q0 -15 -5 -24.5t-11.5 -14.5t-13 -6.5t-10.5 -1.5q-13 0 -21.5 3t-14.5 7.5t-9 9l-5 7.5l-233 455v-435q0 -20 -13.5 -33.5t-32.5 -13.5q-20 0 -33.5 13.5t-13.5 33.5v630z" />
    <glyph glyph-name="ncommaaccent" unicode="&#x146;" horiz-adv-x="539" 
d="M235 -35q3 16 15.5 25t28.5 9h6.5t6.5 -1q16 -5 25.5 -17.5t9.5 -28.5q0 -3 -0.5 -5.5t-0.5 -6.5l-21 -78q-5 -16 -17.5 -25t-27.5 -9h-6.5t-6.5 2q-16 4 -25.5 16.5t-9.5 28.5q0 4 0.5 6l1.5 6zM155 46q0 -20 -13.5 -33.5t-33.5 -13.5t-34 13.5t-14 33.5v403
q0 25 10.5 43t28 29.5t40 18t46 9.5t46 3.5t39.5 0.5q42 0 79.5 -14t66 -39.5t45.5 -61t17 -78.5v-312q0 -20 -13.5 -34t-33.5 -14q-19 0 -33 14t-14 34v312q0 25 -11.5 44t-29.5 31.5t-41.5 18.5t-47.5 6q-13 0 -27.5 -1t-28 -3t-25 -3.5t-18.5 -3.5v-403z" />
    <glyph glyph-name="Ncaron" unicode="&#x147;" horiz-adv-x="540" 
d="M61 675q0 19 13.5 33t33.5 14q14 0 25.5 -8t17.5 -22l232 -452v435q0 19 13.5 33t33.5 14q19 0 33 -14t14 -33v-630q0 -15 -5 -24.5t-11.5 -14.5t-13 -6.5t-10.5 -1.5q-13 0 -21.5 3t-14.5 7.5t-9 8.5l-5 8l-233 455v-435q0 -20 -13.5 -33.5t-32.5 -13.5
q-20 0 -33.5 13.5t-13.5 33.5v630zM176 830q-8 7 -11 16t-3 18q0 19 14 33q13 14 32 14q10 0 18.5 -3.5t15.5 -10.5l24 -23l24 23q13 14 33 14q9 0 17.5 -3.5t15.5 -10.5q13 -14 13 -33q0 -9 -3 -18t-10 -16l-57 -56q-15 -14 -33 -14q-20 0 -34 14z" />
    <glyph glyph-name="ncaron" unicode="&#x148;" horiz-adv-x="542" 
d="M177 637q-8 7 -11 15.5t-3 18.5q0 19 14 33q13 13 33 13q9 0 17.5 -3t15.5 -10l24 -24l24 24q13 13 33 13q9 0 17.5 -3t15.5 -10q14 -14 14 -33q0 -10 -3.5 -18.5t-10.5 -15.5l-57 -57q-15 -14 -33 -14q-20 0 -34 14zM155 49q0 -20 -13.5 -33.5t-33.5 -13.5t-34 13.5
t-14 33.5v403q0 25 10.5 43t28 29.5t40 18t46 9.5t46 3.5t39.5 0.5q42 0 79.5 -14t66 -39.5t45.5 -61t17 -78.5v-312q0 -20 -13.5 -34t-33.5 -14q-19 0 -32.5 14t-13.5 34v312q0 25 -12 44t-30 31.5t-41.5 18.5t-47.5 6q-13 0 -27.5 -1t-28 -3t-25 -3.5t-18.5 -3.5v-403z
" />
    <glyph glyph-name="napostrophe" unicode="&#x149;" horiz-adv-x="536" 
d="M149 49q0 -20 -13.5 -33.5t-33.5 -13.5t-34 13.5t-14 33.5v403q0 25 10.5 43t28 29.5t40 18t46 9.5t46 3.5t39.5 0.5q42 0 79.5 -14t66 -39.5t45.5 -61t17 -78.5v-312q0 -20 -13.5 -34t-33.5 -14q-19 0 -32.5 14t-13.5 34v312q0 25 -12 44t-30 31.5t-41.5 18.5t-47.5 6
q-13 0 -27.5 -1t-28 -3t-25 -3.5t-18.5 -3.5v-403zM33 690q4 16 16.5 25t28.5 9h6q3 0 7 -1q16 -4 25.5 -16.5t9.5 -29.5q0 -3 -0.5 -5.5t-1.5 -5.5l-21 -78q-4 -16 -16.5 -25t-27.5 -9h-7q-3 0 -6 1q-16 4 -25.5 16.5t-9.5 28.5q0 4 0.5 6.5t0.5 5.5z" />
    <glyph glyph-name="Eng" unicode="&#x14a;" horiz-adv-x="540" 
d="M61 675q0 19 13.5 33t33.5 14q14 0 25.5 -8t17.5 -22l232 -452v435q0 19 13.5 33t33.5 14q19 0 33 -14t14 -33v-636q0 -46 -9 -78.5t-31 -62.5q-25 -33 -64.5 -50.5t-103.5 -17.5q-20 0 -34 14t-14 34q0 19 14 32.5t34 13.5q38 0 60 8t38 30.5t16 41.5v29l-229 447v-435
q0 -20 -13.5 -33.5t-32.5 -13.5q-20 0 -33.5 13.5t-13.5 33.5v630z" />
    <glyph glyph-name="eng" unicode="&#x14b;" horiz-adv-x="542" 
d="M385 363q0 25 -12 44t-30 31.5t-41.5 18.5t-47.5 6q-13 0 -27.5 -1t-28 -3t-25 -3.5t-18.5 -3.5v-403q0 -20 -13.5 -33.5t-33.5 -13.5t-34 13.5t-14 33.5v403q0 25 10.5 43t28 29.5t40 18t46 9.5t46 3.5t39.5 0.5q42 0 79.5 -14t66 -39.5t45.5 -61t17 -78.5v-330
q-1 -42 -9 -72q-9 -33 -31 -63q-25 -33 -64.5 -50.5t-103.5 -17.5q-20 0 -34 14t-14 34q0 19 14 32.5t34 13.5q38 0 60 8t38 30.5t16 41.5z" />
    <glyph glyph-name="Omacron" unicode="&#x14c;" 
d="M154 772q-19 0 -33 14t-14 34q0 19 14 33t33 14h186q20 0 33.5 -14t13.5 -33q0 -20 -13.5 -34t-33.5 -14h-186zM40 514q0 44 15 82t43 66.5t66.5 44.5t85.5 16q42 0 80.5 -16.5t66.5 -44.5t44.5 -66.5t16.5 -82.5v-305q0 -43 -16.5 -80.5t-44.5 -66t-66.5 -45
t-80.5 -16.5t-80.5 16.5t-67 44t-45.5 64.5t-17 77v312zM134 206q0 -23 9.5 -43.5t25.5 -35.5t36.5 -24t43.5 -9t43.5 9.5t36.5 24.5t25.5 35.5t9.5 43.5v307q0 24 -9 45.5t-24.5 37.5t-36.5 25t-45 9t-45 -9t-36.5 -25.5t-24.5 -37.5t-9 -45v-308z" />
    <glyph glyph-name="omacron" unicode="&#x14d;" 
d="M39 340q0 44 16.5 82.5t45 66.5t66.5 44.5t81 16.5t81.5 -16.5t67 -44.5t44.5 -66.5t16 -82.5v-130q0 -43 -16 -81.5t-44.5 -67t-67 -45t-81.5 -16.5t-81 16.5t-66.5 45t-45 67t-16.5 81.5v130zM133 210q0 -24 9 -45t24.5 -37t36.5 -25t45 -9q23 0 43.5 9t37 25t26 37
t9.5 45v131q0 25 -9.5 46.5t-25 37t-36.5 23.5t-45 8q-23 0 -43.5 -8t-36.5 -23.5t-25.5 -37t-9.5 -47.5v-130zM163 622q-19 0 -33 14t-14 34q0 19 14 33t33 14h187q19 0 33 -14t14 -33q0 -20 -14 -34t-33 -14h-187z" />
    <glyph glyph-name="Obreve" unicode="&#x14e;" 
d="M249 835q24 0 44.5 8t32.5 27q12 14 32 14q15 0 27 -9q14 -12 14 -32q0 -16 -11 -29q-24 -29 -60.5 -45.5t-78.5 -16.5q-39 0 -75.5 16.5t-61.5 45.5q-11 13 -11 29q0 20 14 32q14 9 27 9q19 0 33 -14q11 -19 31.5 -27t42.5 -8zM40 514q0 44 15 82t43 66.5t66.5 44.5
t85.5 16q42 0 80.5 -16.5t66.5 -44.5t44.5 -66.5t16.5 -82.5v-305q0 -43 -16.5 -80.5t-44.5 -66t-66.5 -45t-80.5 -16.5t-80.5 16.5t-67 44t-45.5 64.5t-17 77v312zM134 206q0 -23 9.5 -43.5t25.5 -35.5t36.5 -24t43.5 -9t43.5 9.5t36.5 24.5t25.5 35.5t9.5 43.5v307
q0 24 -9 45.5t-24.5 37.5t-36.5 25t-45 9t-45 -9t-36.5 -25.5t-24.5 -37.5t-9 -45v-308z" />
    <glyph glyph-name="obreve" unicode="&#x14f;" 
d="M247 666q24 0 44.5 8t32.5 27q12 14 32 14q15 0 27 -9q14 -12 14 -32q0 -16 -11 -29q-24 -29 -60.5 -45.5t-78.5 -16.5q-39 0 -75.5 16.5t-61.5 45.5q-11 13 -11 29q0 20 14 32q14 9 27 9q19 0 33 -14q11 -19 31.5 -27t42.5 -8zM39 340q0 44 16.5 82.5t45 66.5t66.5 44.5
t81 16.5t81.5 -16.5t67 -44.5t44.5 -66.5t16 -82.5v-130q0 -43 -16 -81.5t-44.5 -67t-67 -45t-81.5 -16.5t-81 16.5t-66.5 45t-45 67t-16.5 81.5v130zM133 210q0 -24 9 -45t24.5 -37t36.5 -25t45 -9q23 0 43.5 9t37 25t26 37t9.5 45v131q0 25 -9.5 46.5t-25 37t-36.5 23.5
t-45 8q-23 0 -43.5 -8t-36.5 -23.5t-25.5 -37t-9.5 -47.5v-130z" />
    <glyph glyph-name="Ohungarumlaut" unicode="&#x150;" 
d="M40 514q0 44 15 82t43 66.5t66.5 44.5t85.5 16q42 0 80.5 -16.5t66.5 -44.5t44.5 -66.5t16.5 -82.5v-305q0 -43 -16.5 -80.5t-44.5 -66t-66.5 -45t-80.5 -16.5t-80.5 16.5t-67 44t-45.5 64.5t-17 77v312zM134 206q0 -23 9.5 -43.5t25.5 -35.5t36.5 -24t43.5 -9t43.5 9.5
t36.5 24.5t25.5 35.5t9.5 43.5v307q0 24 -9 45.5t-24.5 37.5t-36.5 25t-45 9t-45 -9t-36.5 -25.5t-24.5 -37.5t-9 -45v-308zM145 895q4 16 16.5 25t28.5 9h6q3 0 7 -1q16 -4 25.5 -16.5t9.5 -29.5q0 -3 -0.5 -5.5t-1.5 -5.5l-21 -78q-4 -16 -16.5 -25t-27.5 -9h-7q-3 0 -6 1
q-16 4 -25.5 16.5t-9.5 28.5q0 4 0.5 6.5t0.5 5.5zM284 895q4 16 16.5 25t28.5 9h6q3 0 7 -1q16 -4 25.5 -16.5t9.5 -29.5q0 -3 -0.5 -5.5t-1.5 -5.5l-21 -78q-4 -16 -16.5 -25t-27.5 -9h-7q-3 0 -6 1q-16 4 -25.5 16.5t-9.5 28.5q0 4 0.5 6.5t0.5 5.5z" />
    <glyph glyph-name="ohungarumlaut" unicode="&#x151;" 
d="M39 340q0 44 16.5 82.5t45 66.5t66.5 44.5t81 16.5t81.5 -16.5t67 -44.5t44.5 -66.5t16 -82.5v-130q0 -43 -16 -81.5t-44.5 -67t-67 -45t-81.5 -16.5t-81 16.5t-66.5 45t-45 67t-16.5 81.5v130zM133 210q0 -24 9 -45t24.5 -37t36.5 -25t45 -9q23 0 43.5 9t37 25t26 37
t9.5 45v131q0 25 -9.5 46.5t-25 37t-36.5 23.5t-45 8q-23 0 -43.5 -8t-36.5 -23.5t-25.5 -37t-9.5 -47.5v-130zM151 714q4 16 16.5 25t28.5 9h6q3 0 7 -1q16 -4 25.5 -16.5t9.5 -29.5q0 -3 -0.5 -5.5t-1.5 -5.5l-21 -78q-4 -16 -16.5 -25t-27.5 -9h-7q-3 0 -6 1
q-16 4 -25.5 16.5t-9.5 28.5q0 4 0.5 6.5t0.5 5.5zM290 714q4 16 16.5 25t28.5 9h6q3 0 7 -1q16 -4 25.5 -16.5t9.5 -29.5q0 -3 -0.5 -5.5t-1.5 -5.5l-21 -78q-4 -16 -16.5 -25t-27.5 -9h-7q-3 0 -6 1q-16 4 -25.5 16.5t-9.5 28.5q0 4 0.5 6.5t0.5 5.5z" />
    <glyph glyph-name="OE" unicode="&#x152;" horiz-adv-x="839" 
d="M734 724q20 0 33.5 -13.5t13.5 -33.5t-13.5 -33.5t-33.5 -13.5h-116q-47 0 -77.5 -0.5t-47.5 -0.5t-24.5 -0.5t-9.5 -0.5l-1 -1v-188h196q19 0 33 -14t14 -33q0 -20 -14 -33.5t-33 -13.5h-196v-247q0 -2 2.5 -3.5t11.5 -1.5h262q20 0 33.5 -13.5t13.5 -33.5t-13.5 -33.5
t-33.5 -13.5h-262q-37 0 -58.5 7.5t-32.5 20.5q-5 6 -9 13q-19 -14 -42 -24q-38 -16 -80 -16t-80.5 16.5t-67 44t-45.5 64.5t-17 77v312q0 44 15 82t43 66.5t66.5 44.5t85.5 16q42 0 80 -17q23 -10 42 -23q4 7 10 14q11 13 32.5 20t57.5 7h262zM134 206q0 -23 9.5 -43.5
t25.5 -35.5t36.5 -24t43.5 -9t43.5 9.5t36.5 24.5t25.5 35.5t9.5 43.5v307q0 24 -9 45.5t-24.5 37.5t-36.5 25t-45 9t-45 -9t-36.5 -25.5t-24.5 -37.5t-9 -45v-308z" />
    <glyph glyph-name="oe" unicode="&#x153;" horiz-adv-x="821" 
d="M658 132q7 8 16 12t19 4q20 0 33.5 -14.5t13.5 -32.5q0 -7 -2 -15t-8 -14q-35 -36 -75 -54t-82 -18q-44 0 -81.5 16t-66.5 44q-8 8 -15 16q-7 -8 -14 -15q-28 -28 -66.5 -44.5t-81.5 -16.5t-81 16.5t-66.5 45t-45 67t-16.5 81.5v130q0 44 16.5 82.5t45 66.5t66.5 44.5
t81 16.5t81.5 -16.5t66.5 -44.5q8 -8 14 -16q7 8 15 15q29 29 66.5 45.5t81.5 16.5t82 -17t66.5 -47.5t44.5 -72t16 -89.5q0 -44 -26.5 -69.5t-72.5 -25.5h-225v-21q0 -23 9 -44t25 -36.5t36.5 -24.5t44.5 -9q33 0 54.5 13t30.5 25zM133 210q0 -24 9 -45t24.5 -37t36.5 -25
t45 -9q23 0 43.5 9t37 25t25.5 37q7 14 9 30v13v133v14q-2 17 -9 32q-9 22 -24.5 37.5t-36.5 23.5t-45 8q-23 0 -43.5 -8t-36.5 -23.5t-25.5 -37t-9.5 -47.5v-130zM458 323h230q0 28 -8.5 52t-23 42t-36 28.5t-47.5 10.5q-25 0 -45.5 -9t-36.5 -24.5t-24.5 -36.5t-8.5 -45
v-18z" />
    <glyph glyph-name="Racute" unicode="&#x154;" horiz-adv-x="519" 
d="M154 286v-238q0 -20 -13.5 -33.5t-33.5 -13.5q-19 0 -33 13.5t-14 33.5v573q0 38 22 59t54 31t68 12.5t66 2.5q40 0 78 -14t66.5 -40t45.5 -61.5t17 -78.5v-53q0 -47 -19 -83.5t-51 -62.5q32 -25 51.5 -62.5t19.5 -83.5v-139q0 -20 -14 -33.5t-33 -13.5q-20 0 -33.5 13.5
t-13.5 33.5v139q0 23 -10 41.5t-26 31.5t-36.5 19.5t-41.5 6.5h-116zM270 380q21 0 42 7t37 20t25.5 31.5t9.5 41.5v52q0 26 -11.5 45t-29 31.5t-40 18t-45.5 5.5q-12 0 -28 -1l-31 -2q-15 -1 -27 -3.5t-18 -4.5v-241h116zM239 895q4 16 16.5 25t28.5 9h6q3 0 7 -1
q16 -4 25.5 -16.5t9.5 -29.5q0 -3 -0.5 -5.5t-1.5 -5.5l-21 -78q-4 -16 -16.5 -25t-27.5 -9h-7q-3 0 -6 1q-16 4 -25.5 16.5t-9.5 28.5q0 4 0.5 6.5t0.5 5.5z" />
    <glyph glyph-name="racute" unicode="&#x155;" horiz-adv-x="340" 
d="M152 47q0 -20 -14 -33.5t-33 -13.5q-20 0 -33.5 13.5t-13.5 33.5v403q0 25 10.5 43t28 29.5t39.5 18t45 9.5t46 3.5t40 0.5q20 0 33.5 -13.5t13.5 -33.5t-13.5 -33.5t-33.5 -13.5q-25 0 -57.5 -2t-57.5 -8v-403zM163 702q4 16 16.5 25t28.5 9h6q3 0 7 -1
q16 -4 25.5 -16.5t9.5 -29.5q0 -3 -0.5 -5.5t-1.5 -5.5l-21 -78q-4 -16 -16.5 -25t-27.5 -9h-7q-3 0 -6 1q-16 4 -25.5 16.5t-9.5 28.5q0 4 0.5 6.5t0.5 5.5z" />
    <glyph glyph-name="Rcommaaccent" unicode="&#x156;" horiz-adv-x="519" 
d="M154 286v-238q0 -20 -13.5 -33.5t-33.5 -13.5q-19 0 -33 13.5t-14 33.5v573q0 38 22 59t54 31t68 12.5t66 2.5q40 0 78 -14t66.5 -40t45.5 -61.5t17 -78.5v-53q0 -47 -19 -83.5t-51 -62.5q32 -25 51.5 -62.5t19.5 -83.5v-139q0 -20 -14 -33.5t-33 -13.5q-20 0 -33.5 13.5
t-13.5 33.5v139q0 23 -10 41.5t-26 31.5t-36.5 19.5t-41.5 6.5h-116zM270 380q21 0 42 7t37 20t25.5 31.5t9.5 41.5v52q0 26 -11.5 45t-29 31.5t-40 18t-45.5 5.5q-12 0 -28 -1l-31 -2q-15 -1 -27 -3.5t-18 -4.5v-241h116zM230 -33q3 16 15.5 25t28.5 9h7q2 0 6 -1
q16 -5 25.5 -17.5t9.5 -28.5q0 -3 -0.5 -5.5t-0.5 -6.5l-21 -78q-5 -16 -17.5 -25t-27.5 -9h-6q-3 0 -7 2q-16 4 -25.5 16.5t-9.5 28.5q0 4 1 6l1 6z" />
    <glyph glyph-name="rcommaaccent" unicode="&#x157;" horiz-adv-x="340" 
d="M152 47q0 -20 -14 -34q-13 -12 -29 -13q2 0 4 -1q16 -5 25.5 -17.5t9.5 -28.5q0 -3 -0.5 -5.5t-0.5 -6.5l-21 -78q-5 -16 -17.5 -25t-27.5 -9h-7q-2 0 -6 2q-16 4 -25.5 16.5t-9.5 28.5v6l2 6l21 78q3 16 15 25t29 9q-17 1 -29 13q-13 14 -13 34v403q0 25 10.5 43
t28 29.5t39.5 18t45 9.5t46 3.5t40 0.5q20 0 33.5 -13.5t13.5 -33.5t-13.5 -33.5t-33.5 -13.5q-25 0 -57.5 -2t-57.5 -8v-403z" />
    <glyph glyph-name="Rcaron" unicode="&#x158;" horiz-adv-x="519" 
d="M154 286v-238q0 -20 -13.5 -33.5t-33.5 -13.5q-19 0 -33 13.5t-14 33.5v573q0 38 22 59t54 31t68 12.5t66 2.5q40 0 78 -14t66.5 -40t45.5 -61.5t17 -78.5v-53q0 -47 -19 -83.5t-51 -62.5q32 -25 51.5 -62.5t19.5 -83.5v-139q0 -20 -14 -33.5t-33 -13.5q-20 0 -33.5 13.5
t-13.5 33.5v139q0 23 -10 41.5t-26 31.5t-36.5 19.5t-41.5 6.5h-116zM270 380q21 0 42 7t37 20t25.5 31.5t9.5 41.5v52q0 26 -11.5 45t-29 31.5t-40 18t-45.5 5.5q-12 0 -28 -1l-31 -2q-15 -1 -27 -3.5t-18 -4.5v-241h116zM170 830q-8 7 -11 16t-3 18q0 19 14 33
q13 14 32 14q10 0 18.5 -3.5t15.5 -10.5l24 -23l24 23q13 14 33 14q9 0 17.5 -3.5t15.5 -10.5q13 -14 13 -33q0 -9 -3 -18t-10 -16l-57 -56q-15 -14 -33 -14q-20 0 -34 14z" />
    <glyph glyph-name="rcaron" unicode="&#x159;" horiz-adv-x="340" 
d="M94 637q-8 7 -11 15.5t-3 18.5q0 19 14 33q13 13 33 13q9 0 17.5 -3t15.5 -10l24 -24l24 24q13 13 33 13q9 0 17.5 -3t15.5 -10q14 -14 14 -33q0 -10 -3.5 -18.5t-10.5 -15.5l-57 -57q-15 -14 -33 -14q-20 0 -34 14zM152 47q0 -20 -14 -33.5t-33 -13.5q-20 0 -33.5 13.5
t-13.5 33.5v403q0 25 10.5 43t28 29.5t39.5 18t45 9.5t46 3.5t40 0.5q20 0 33.5 -13.5t13.5 -33.5t-13.5 -33.5t-33.5 -13.5q-25 0 -57.5 -2t-57.5 -8v-403z" />
    <glyph glyph-name="Sacute" unicode="&#x15a;" horiz-adv-x="463" 
d="M439 580q2 -8 2 -15q0 -18 -13 -32.5t-34 -14.5q-15 0 -27 9t-17 24q-7 18 -19.5 33.5t-29 26t-35.5 16t-38 5.5q-18 0 -37.5 -6.5t-35.5 -17.5t-27 -26.5t-11 -33.5q0 -19 15.5 -38.5t39.5 -40.5t53 -41.5t57 -40.5q29 -21 57.5 -43t51 -46.5t36.5 -52.5t14 -61
q0 -41 -17.5 -74.5t-46.5 -57.5t-66.5 -37.5t-78.5 -13.5q-34 0 -66.5 11t-60 30.5t-48.5 46.5t-31 58q-3 7 -3 15q0 18 13 32.5t34 14.5q14 0 27 -9t18 -23q6 -18 18 -32.5t27 -25.5t33.5 -17.5t37.5 -6.5q18 0 38.5 5.5t37.5 16t29 26.5t12 37t-14.5 40.5t-36.5 38.5
t-47 36.5t-47 33.5q-30 22 -62 45t-58.5 48.5t-43 56t-16.5 69.5q0 41 19 74t49 56t67 35.5t74 12.5q34 0 66.5 -11t60.5 -30.5t48.5 -46t31.5 -58.5zM213 895q4 16 16.5 25t28.5 9h6q3 0 7 -1q16 -4 25.5 -16.5t9.5 -29.5q0 -3 -0.5 -5.5t-1.5 -5.5l-21 -78
q-4 -16 -16.5 -25t-27.5 -9h-7q-3 0 -6 1q-16 4 -25.5 16.5t-9.5 28.5q0 4 0.5 6.5t0.5 5.5z" />
    <glyph glyph-name="sacute" unicode="&#x15b;" horiz-adv-x="482" 
d="M440 425q2 -4 2.5 -9t0.5 -9q0 -18 -12.5 -32.5t-33.5 -14.5q-12 0 -20 5.5t-14 14t-12 19t-17 22.5q-19 18 -42.5 28.5t-47.5 10.5q-20 0 -40 -6.5t-35.5 -18.5t-25.5 -27t-10 -32q0 -6 8.5 -10.5t23 -8.5t33 -7t38.5 -7q39 -8 78 -18.5t70 -28t50 -45.5t19 -70
q0 -13 -3.5 -27.5t-8.5 -27.5t-10.5 -23.5t-10.5 -17.5q-14 -19 -34 -34t-43 -26t-48 -17t-50 -6q-38 0 -72 12.5t-61 35.5t-46 53.5t-26 65.5q-1 2 -1 4v5q0 19 13 33t34 14q16 0 29 -10.5t17 -26.5q4 -20 14 -37t25 -29t33.5 -19t39.5 -7t41.5 6t37 17.5t26.5 27t10 34.5
q0 17 -13.5 29t-36 20t-51.5 14t-58.5 12t-58.5 15t-51.5 22.5t-36 33.5t-13.5 49q0 41 18.5 74t47.5 56t66.5 35.5t74.5 12.5q33 0 62.5 -9.5t55 -27t45 -40.5t30.5 -52zM227 706q4 16 16.5 25t28.5 9h6q3 0 7 -1q16 -4 25.5 -16.5t9.5 -29.5q0 -3 -0.5 -5.5t-1.5 -5.5
l-21 -78q-4 -16 -16.5 -25t-27.5 -9h-7q-3 0 -6 1q-16 4 -25.5 16.5t-9.5 28.5q0 4 0.5 6.5t0.5 5.5z" />
    <glyph glyph-name="Scircumflex" unicode="&#x15c;" horiz-adv-x="463" 
d="M160 900q14 10 30 9t27 -11q3 -3 5 -4t5 -6q10 -12 9 -28.5t-10 -28.5q-2 -3 -4.5 -4t-5.5 -4l-65 -46q-13 -11 -29 -10t-27 11q-3 2 -5 4.5t-5 4.5q-9 13 -9 28.5t11 28.5q2 3 4 4.5t4 3.5zM334 900q-14 10 -30 9t-27 -11q-3 -3 -5 -4t-5 -6q-10 -12 -9 -28.5t10 -28.5
q2 -3 4.5 -4t5.5 -4l65 -46q13 -11 29 -10t27 11q3 2 5 4.5t5 4.5q9 13 9 28.5t-11 28.5q-2 3 -4 4.5t-4 3.5zM439 580q2 -8 2 -15q0 -18 -13 -32.5t-34 -14.5q-15 0 -27 9t-17 24q-7 18 -19.5 33.5t-29 26t-35.5 16t-38 5.5q-18 0 -37.5 -6.5t-35.5 -17.5t-27 -26.5
t-11 -33.5q0 -19 15.5 -38.5t39.5 -40.5t53 -41.5t57 -40.5q29 -21 57.5 -43t51 -46.5t36.5 -52.5t14 -61q0 -41 -17.5 -74.5t-46.5 -57.5t-66.5 -37.5t-78.5 -13.5q-34 0 -66.5 11t-60 30.5t-48.5 46.5t-31 58q-3 7 -3 15q0 18 13 32.5t34 14.5q14 0 27 -9t18 -23
q6 -18 18 -32.5t27 -25.5t33.5 -17.5t37.5 -6.5q18 0 38.5 5.5t37.5 16t29 26.5t12 37t-14.5 40.5t-36.5 38.5t-47 36.5t-47 33.5q-30 22 -62 45t-58.5 48.5t-43 56t-16.5 69.5q0 41 19 74t49 56t67 35.5t74 12.5q34 0 66.5 -11t60.5 -30.5t48.5 -46t31.5 -58.5z" />
    <glyph glyph-name="scircumflex" unicode="&#x15d;" horiz-adv-x="482" 
d="M440 425q2 -4 2.5 -9t0.5 -9q0 -18 -12.5 -32.5t-33.5 -14.5q-12 0 -20 5.5t-14 14t-12 19t-17 22.5q-19 18 -42.5 28.5t-47.5 10.5q-20 0 -40 -6.5t-35.5 -18.5t-25.5 -27t-10 -32q0 -6 8.5 -10.5t23 -8.5t33 -7t38.5 -7q39 -8 78 -18.5t70 -28t50 -45.5t19 -70
q0 -13 -3.5 -27.5t-8.5 -27.5t-10.5 -23.5t-10.5 -17.5q-14 -19 -34 -34t-43 -26t-48 -17t-50 -6q-38 0 -72 12.5t-61 35.5t-46 53.5t-26 65.5q-1 2 -1 4v5q0 19 13 33t34 14q16 0 29 -10.5t17 -26.5q4 -20 14 -37t25 -29t33.5 -19t39.5 -7t41.5 6t37 17.5t26.5 27t10 34.5
q0 17 -13.5 29t-36 20t-51.5 14t-58.5 12t-58.5 15t-51.5 22.5t-36 33.5t-13.5 49q0 41 18.5 74t47.5 56t66.5 35.5t74.5 12.5q33 0 62.5 -9.5t55 -27t45 -40.5t30.5 -52zM208 703q14 14 34 14q18 0 33 -14l57 -57q7 -7 10.5 -15.5t3.5 -18.5q0 -19 -14 -33q-7 -7 -15.5 -10
t-17.5 -3q-20 0 -33 13l-24 24l-24 -24q-7 -7 -15.5 -10t-17.5 -3q-20 0 -33 13q-14 14 -14 33q0 10 3 18.5t11 15.5z" />
    <glyph glyph-name="Scedilla" unicode="&#x15e;" horiz-adv-x="463" 
d="M439 580q2 -8 2 -15q0 -18 -13 -32.5t-34 -14.5q-15 0 -27 9t-17 24q-7 18 -19.5 33.5t-29 26t-35.5 16t-38 5.5q-18 0 -37.5 -6.5t-35.5 -17.5t-27 -26.5t-11 -33.5q0 -19 15.5 -38.5t39.5 -40.5t53 -41.5t57 -40.5q29 -21 57.5 -43t51 -46.5t36.5 -52.5t14 -61
q0 -41 -17.5 -74.5t-46.5 -57.5t-66.5 -37.5t-78.5 -13.5q-34 0 -66.5 11t-60 30.5t-48.5 46.5t-31 58q-3 7 -3 15q0 18 13 32.5t34 14.5q14 0 27 -9t18 -23q6 -18 18 -32.5t27 -25.5t33.5 -17.5t37.5 -6.5q18 0 38.5 5.5t37.5 16t29 26.5t12 37t-14.5 40.5t-36.5 38.5
t-47 36.5t-47 33.5q-30 22 -62 45t-58.5 48.5t-43 56t-16.5 69.5q0 41 19 74t49 56t67 35.5t74 12.5q34 0 66.5 -11t60.5 -30.5t48.5 -46t31.5 -58.5zM211 -34q3 16 15.5 25t28.5 9h6q3 0 7 -1q16 -5 25.5 -17.5t9.5 -28.5q0 -3 -0.5 -5.5t-0.5 -6.5l-21 -78
q-5 -16 -17.5 -25t-27.5 -9h-7q-2 0 -6 2q-16 4 -25.5 16.5t-9.5 28.5v6l2 6z" />
    <glyph glyph-name="scedilla" unicode="&#x15f;" horiz-adv-x="482" 
d="M440 425q2 -4 2.5 -9t0.5 -9q0 -18 -12.5 -32.5t-33.5 -14.5q-12 0 -20 5.5t-14 14t-12 19t-17 22.5q-19 18 -42.5 28.5t-47.5 10.5q-20 0 -40 -6.5t-35.5 -18.5t-25.5 -27t-10 -32q0 -6 8.5 -10.5t23 -8.5t33 -7t38.5 -7q39 -8 78 -18.5t70 -28t50 -45.5t19 -70
q0 -13 -3.5 -27.5t-8.5 -27.5t-10.5 -23.5t-10.5 -17.5q-14 -19 -34 -34t-43 -26t-48 -17t-50 -6q-38 0 -72 12.5t-61 35.5t-46 53.5t-26 65.5q-1 2 -1 4v5q0 19 13 33t34 14q16 0 29 -10.5t17 -26.5q4 -20 14 -37t25 -29t33.5 -19t39.5 -7t41.5 6t37 17.5t26.5 27t10 34.5
q0 17 -13.5 29t-36 20t-51.5 14t-58.5 12t-58.5 15t-51.5 22.5t-36 33.5t-13.5 49q0 41 18.5 74t47.5 56t66.5 35.5t74.5 12.5q33 0 62.5 -9.5t55 -27t45 -40.5t30.5 -52zM203 -73q4 16 16.5 25t28.5 9h6q3 0 7 -1q16 -4 25.5 -16.5t9.5 -29.5q0 -3 -0.5 -5.5t-1.5 -5.5
l-21 -78q-4 -16 -16.5 -25t-27.5 -9h-7q-3 0 -6 1q-16 4 -25.5 16.5t-9.5 28.5q0 4 0.5 6.5t0.5 5.5z" />
    <glyph glyph-name="Scaron" unicode="&#x160;" 
d="M160 832q-8 7 -11.5 16t-3.5 18q0 19 15 33q13 14 32 14q10 0 18.5 -3.5t15.5 -10.5l24 -23l24 23q13 14 32 14q10 0 18.5 -3.5t15.5 -10.5q13 -14 13 -33q0 -9 -3 -18t-10 -16l-57 -56q-15 -14 -33 -14q-20 0 -34 14zM457 581q2 -8 2 -15q0 -18 -12.5 -32.5t-33.5 -14.5
q-15 0 -27.5 9t-17.5 24q-6 18 -18.5 33.5t-29 26t-35.5 16t-39 5.5q-17 0 -36.5 -6.5t-36 -17.5t-27 -26.5t-10.5 -33.5q0 -19 15.5 -38.5t39.5 -40.5t53 -41.5t56 -40.5q30 -21 58 -43t51 -46.5t36.5 -52.5t13.5 -61q0 -41 -17.5 -74.5t-46 -57.5t-66.5 -37.5t-78 -13.5
q-34 0 -66.5 11t-60 30.5t-48.5 46.5t-32 58q-3 7 -3 15q0 18 13 32.5t34 14.5q15 0 28 -9t18 -23q5 -18 17 -32.5t27.5 -25.5t33.5 -17.5t37 -6.5q18 0 39 5.5t38 16t28.5 26.5t11.5 37t-14.5 40.5t-36 38.5t-46.5 36.5t-47 33.5q-31 22 -63 45t-58 48.5t-42.5 56
t-16.5 69.5q0 41 18.5 74t48.5 56t67 35.5t75 12.5q34 0 66.5 -11t60 -30.5t48.5 -46t31 -58.5z" />
    <glyph glyph-name="scaron" unicode="&#x161;" horiz-adv-x="497" 
d="M155 637q-8 7 -11 15.5t-3 18.5q0 19 14 33q13 13 33 13q9 0 17.5 -3t15.5 -10l24 -24l24 24q13 13 33 13q9 0 17.5 -3t15.5 -10q14 -14 14 -33q0 -10 -3.5 -18.5t-10.5 -15.5l-57 -57q-15 -14 -33 -14q-20 0 -34 14zM441 423q2 -4 2.5 -9t0.5 -9q0 -18 -12.5 -32.5
t-33.5 -14.5q-12 0 -20 5.5t-14 14t-12 19t-17 22.5q-19 18 -42.5 28.5t-47.5 10.5q-20 0 -40 -6.5t-35.5 -18.5t-25.5 -27t-10 -32q0 -6 8.5 -10.5t23 -8.5t33 -7t38.5 -7q39 -8 78 -18.5t70 -28t50 -45.5t19 -70q0 -13 -3.5 -27.5t-8.5 -27.5t-10.5 -23.5t-10.5 -17.5
q-14 -19 -34 -34t-43 -26t-48 -17t-50 -6q-38 0 -72 12.5t-61 35.5t-46 53.5t-26 65.5q-1 2 -1 4.5v4.5q0 19 13 33t34 14q16 0 29 -10.5t17 -26.5q4 -20 14 -37t25 -29t33.5 -19t39.5 -7t41.5 6t37 17.5t26.5 27t10 34.5q0 17 -13.5 29t-36 20t-51.5 14t-58.5 12t-58.5 15
t-51.5 22.5t-36 33.5t-13.5 49q0 41 18.5 74t47.5 56t66.5 35.5t74.5 12.5q33 0 62.5 -9.5t55 -27t45 -40.5t30.5 -52z" />
    <glyph glyph-name="Tcommaaccent" unicode="&#x162;" horiz-adv-x="460" 
d="M178 -34q3 16 15.5 25t28.5 9h6.5t6.5 -1q16 -5 25.5 -17.5t9.5 -28.5q0 -3 -0.5 -5.5t-0.5 -6.5l-21 -78q-5 -16 -17.5 -25t-27.5 -9h-6.5t-6.5 2q-16 4 -25.5 16.5t-9.5 28.5q0 4 0.5 6l1.5 6zM276 631v-584q0 -20 -13.5 -33.5t-33.5 -13.5q-19 0 -33 13.5t-14 33.5
v584h-114q-19 0 -33 14t-14 33q0 20 14 33.5t33 13.5h324q19 0 33 -13.5t14 -33.5q0 -19 -14 -33t-33 -14h-116z" />
    <glyph glyph-name="tcommaaccent" unicode="&#x163;" horiz-adv-x="340" 
d="M131 -34q3 16 15.5 25t29.5 9h6t6 -1q16 -5 25.5 -17.5t9.5 -28.5q0 -3 -0.5 -5.5t-0.5 -6.5l-21 -78q-5 -16 -17.5 -25t-27.5 -9h-6.5t-6.5 2q-16 4 -25.5 16.5t-9.5 28.5q0 4 0.5 6l1.5 6zM59 678q0 20 13.5 33.5t33.5 13.5q19 0 33 -13.5t14 -33.5v-125h115
q20 0 33.5 -13.5t13.5 -34.5q0 -19 -13.5 -32.5t-33.5 -13.5h-115v-251q0 -24 9 -44.5t24.5 -36t37 -24.5t45.5 -9q19 0 32.5 -14t13.5 -34q0 -19 -14 -32.5t-33 -13.5q-44 0 -81.5 16.5t-66 45t-45 66t-16.5 80.5v470z" />
    <glyph glyph-name="Tcaron" unicode="&#x164;" horiz-adv-x="460" 
d="M138 830q-8 7 -11 16t-3 18q0 19 14 33q13 14 32 14q10 0 18.5 -3.5t15.5 -10.5l24 -23l24 23q13 14 33 14q9 0 17.5 -3.5t15.5 -10.5q13 -14 13 -33q0 -9 -3 -18t-10 -16l-57 -56q-15 -14 -33 -14q-20 0 -34 14zM276 631v-584q0 -20 -13.5 -33.5t-33.5 -13.5
q-19 0 -33 13.5t-14 33.5v584h-114q-19 0 -33 14t-14 33q0 20 14 33.5t33 13.5h324q19 0 33 -13.5t14 -33.5q0 -19 -14 -33t-33 -14h-116z" />
    <glyph glyph-name="tcaron" unicode="&#x165;" horiz-adv-x="357" 
d="M287 690q4 16 16.5 25t28.5 9h6.5t6.5 -1q16 -4 25.5 -16.5t9.5 -29.5q0 -3 -0.5 -5.5t-1.5 -5.5l-21 -78q-4 -16 -16.5 -25t-27.5 -9h-7t-6 1q-16 4 -25.5 16.5t-9.5 28.5q0 4 0.5 6.5t0.5 5.5zM59 678q0 20 13.5 33.5t33.5 13.5q19 0 33 -13.5t14 -33.5v-125h115
q20 0 33.5 -13.5t13.5 -34.5q0 -19 -13.5 -32.5t-33.5 -13.5h-115v-251q0 -24 9 -44.5t24.5 -36t37 -24.5t45.5 -9q19 0 32.5 -14t13.5 -34q0 -19 -14 -32.5t-33 -13.5q-44 0 -81.5 16.5t-66 45t-45 66t-16.5 80.5v470z" />
    <glyph glyph-name="Tbar" unicode="&#x166;" horiz-adv-x="460" 
d="M276 631v-236h44q20 0 33.5 -14t13.5 -33q0 -20 -13.5 -34t-33.5 -14h-44v-253q0 -20 -13.5 -33.5t-33.5 -13.5q-19 0 -33 13.5t-14 33.5v253h-48q-19 0 -33 14t-14 34q0 19 14 33t33 14h48v236h-114q-19 0 -33 14t-14 33q0 20 14 33.5t33 13.5h324q19 0 33 -13.5
t14 -33.5q0 -19 -14 -33t-33 -14h-116z" />
    <glyph glyph-name="tbar" unicode="&#x167;" horiz-adv-x="340" 
d="M59 678q0 20 13.5 33.5t33.5 13.5q19 0 33 -13.5t14 -33.5v-125h115q20 0 33.5 -13.5t13.5 -34.5q0 -19 -13.5 -32.5t-33.5 -13.5h-115v-251q0 -24 9 -44.5t24.5 -36t37 -24.5t45.5 -9q19 0 32.5 -14t13.5 -34q0 -19 -14 -32.5t-33 -13.5q-44 0 -81.5 16.5t-66 45t-45 66
t-16.5 80.5v470z" />
    <glyph glyph-name="Utilde" unicode="&#x168;" horiz-adv-x="540" 
d="M290 839q2 -2 9.5 -6t22.5 -4t28.5 8t21.5 25q8 12 21 12q18 0 27 -9.5t9 -27.5q0 -14 -7 -26q-16 -27 -44.5 -41.5t-56.5 -14.5q-35 0 -60 23t-43.5 24t-33 -8.5t-21.5 -26.5q-10 -12 -22 -12q-18 0 -27 9t-9 28q0 14 7 26q17 27 43 41.5t60.5 13.5t74.5 -34zM155 211
q0 -24 9.5 -45t25 -37t36.5 -25t44 -9t44 9t37 24.5t25 36.5t9 44v469q0 19 13.5 33t33.5 14t33.5 -14t13.5 -33v-469q0 -43 -16.5 -80.5t-45 -66t-66.5 -45t-81 -16.5q-42 0 -80 16t-66.5 44t-45.5 65t-17 79v473q0 19 14 33t34 14q19 0 32.5 -14t13.5 -33v-467z" />
    <glyph glyph-name="utilde" unicode="&#x169;" horiz-adv-x="540" 
d="M295 679q2 -2 9.5 -6t22.5 -4t28.5 8t21.5 25q8 12 21 12q18 0 27 -9.5t9 -27.5q0 -14 -7 -26q-16 -27 -44.5 -41.5t-56.5 -14.5q-35 0 -60 23t-43.5 24t-33 -8.5t-21.5 -26.5q-10 -12 -22 -12q-18 0 -27 9t-9 28q0 14 7 26q17 27 43 41.5t60.5 13.5t74.5 -34zM382 509
q0 19 13.5 32.5t33.5 13.5t34 -13.5t14 -32.5v-404q0 -39 -23 -60t-56 -31t-69 -11.5t-62 -1.5q-42 0 -79.5 14t-66 39.5t-45.5 61.5t-17 79v311q0 21 13.5 34.5t33.5 13.5q19 0 32.5 -13.5t13.5 -34.5v-311q0 -26 12 -45t30 -31t41.5 -18t47.5 -6q13 0 27.5 1t28 2.5
t25 3.5t18.5 3v404z" />
    <glyph glyph-name="Umacron" unicode="&#x16a;" horiz-adv-x="537" 
d="M176 772q-19 0 -33 14t-14 34q0 19 14 33t33 14h186q20 0 33.5 -14t13.5 -33q0 -20 -13.5 -34t-33.5 -14h-186zM152 212q0 -24 9.5 -45t24.5 -37t36 -25t45 -9q23 0 44 9t37 24.5t25 36.5t9 44v469q0 19 13.5 33t33.5 14t33.5 -14t13.5 -33v-469q0 -43 -16.5 -80.5
t-45 -66t-66.5 -45t-81 -16.5q-42 0 -80 16t-67 44t-45.5 65t-16.5 79v473q0 19 14 33t34 14q19 0 32.5 -14t13.5 -33v-467z" />
    <glyph glyph-name="umacron" unicode="&#x16b;" horiz-adv-x="539" 
d="M178 622q-19 0 -33 14t-14 34q0 19 14 33t33 14h187q19 0 33 -14t14 -33q0 -20 -14 -34t-33 -14h-187zM382 508q0 19 13.5 32.5t33.5 13.5t34 -13.5t14 -32.5v-404q0 -39 -23 -60t-56 -31t-69 -11.5t-62 -1.5q-42 0 -79.5 14t-66 39.5t-45.5 61.5t-17 79v311
q0 21 13.5 34.5t33.5 13.5q19 0 32.5 -13.5t13.5 -34.5v-311q0 -26 12 -45t30 -31t41.5 -18t47.5 -6q13 0 27.5 1t28 2.5t25 3.5t18.5 3v404z" />
    <glyph glyph-name="Ubreve" unicode="&#x16c;" horiz-adv-x="540" 
d="M271 835q24 0 44.5 8t32.5 27q12 14 32 14q15 0 27 -9q14 -12 14 -32q0 -16 -11 -29q-24 -29 -60.5 -45.5t-78.5 -16.5q-39 0 -75.5 16.5t-61.5 45.5q-11 13 -11 29q0 20 14 32q14 9 27 9q19 0 33 -14q11 -19 31.5 -27t42.5 -8zM155 211q0 -24 9.5 -45t25 -37t36.5 -25
t44 -9t44 9t37 24.5t25 36.5t9 44v469q0 19 13.5 33t33.5 14t33.5 -14t13.5 -33v-469q0 -43 -16.5 -80.5t-45 -66t-66.5 -45t-81 -16.5q-42 0 -80 16t-66.5 44t-45.5 65t-17 79v473q0 19 14 33t34 14q19 0 32.5 -14t13.5 -33v-467z" />
    <glyph glyph-name="ubreve" unicode="&#x16d;" horiz-adv-x="540" 
d="M265 666q24 0 44.5 8t32.5 27q12 14 32 14q15 0 27 -9q14 -12 14 -32q0 -16 -11 -29q-24 -29 -60.5 -45.5t-78.5 -16.5q-39 0 -75.5 16.5t-61.5 45.5q-11 13 -11 29q0 20 14 32q14 9 27 9q19 0 33 -14q11 -19 31.5 -27t42.5 -8zM382 509q0 19 13.5 32.5t33.5 13.5
t34 -13.5t14 -32.5v-404q0 -39 -23 -60t-56 -31t-69 -11.5t-62 -1.5q-42 0 -79.5 14t-66 39.5t-45.5 61.5t-17 79v311q0 21 13.5 34.5t33.5 13.5q19 0 32.5 -13.5t13.5 -34.5v-311q0 -26 12 -45t30 -31t41.5 -18t47.5 -6q13 0 27.5 1t28 2.5t25 3.5t18.5 3v404z" />
    <glyph glyph-name="Uring" unicode="&#x16e;" horiz-adv-x="540" 
d="M187 830q-8 7 -11 16t-3 18q0 19 14 33q13 14 32 14q10 0 18.5 -3.5t15.5 -10.5l24 -23l24 23q13 14 33 14q9 0 17.5 -3.5t15.5 -10.5q13 -14 13 -33q0 -9 -3 -18t-10 -16l-57 -56q-15 -14 -33 -14q-20 0 -34 14zM155 211q0 -24 9.5 -45t25 -37t36.5 -25t44 -9t44 9
t37 24.5t25 36.5t9 44v469q0 19 13.5 33t33.5 14t33.5 -14t13.5 -33v-469q0 -43 -16.5 -80.5t-45 -66t-66.5 -45t-81 -16.5q-42 0 -80 16t-66.5 44t-45.5 65t-17 79v473q0 19 14 33t34 14q19 0 32.5 -14t13.5 -33v-467z" />
    <glyph glyph-name="uring" unicode="&#x16f;" horiz-adv-x="540" 
d="M269 780q21 0 38.5 -7.5t31.5 -21t21.5 -31.5t7.5 -39q0 -20 -7.5 -38t-21 -32t-31.5 -21.5t-39 -7.5q-20 0 -38.5 7.5t-31.5 21.5t-21 32t-8 38q0 21 8 39t21.5 31.5t31.5 21t38 7.5zM269 722q-8 0 -15.5 -2.5t-13.5 -9t-9 -14t-3 -15.5q0 -18 12 -29.5t30 -11.5
q8 0 15.5 3t13.5 9t8.5 13.5t2.5 15.5t-2.5 15.5t-9 14t-14 9t-15.5 2.5zM382 509q0 19 13.5 32.5t33.5 13.5t34 -13.5t14 -32.5v-404q0 -39 -23 -60t-56 -31t-69 -11.5t-62 -1.5q-42 0 -79.5 14t-66 39.5t-45.5 61.5t-17 79v311q0 21 13.5 34.5t33.5 13.5q19 0 32.5 -13.5
t13.5 -34.5v-311q0 -26 12 -45t30 -31t41.5 -18t47.5 -6q13 0 27.5 1t28 2.5t25 3.5t18.5 3v404z" />
    <glyph glyph-name="Uhungarumlaut" unicode="&#x170;" horiz-adv-x="540" 
d="M155 211q0 -24 9.5 -45t25 -37t36.5 -25t44 -9t44 9t37 24.5t25 36.5t9 44v469q0 19 13.5 33t33.5 14t33.5 -14t13.5 -33v-469q0 -43 -16.5 -80.5t-45 -66t-66.5 -45t-81 -16.5q-42 0 -80 16t-66.5 44t-45.5 65t-17 79v473q0 19 14 33t34 14q19 0 32.5 -14t13.5 -33v-467
zM177 895q4 16 16.5 25t28.5 9h6q3 0 7 -1q16 -4 25.5 -16.5t9.5 -29.5q0 -3 -0.5 -5.5t-1.5 -5.5l-21 -78q-4 -16 -16.5 -25t-27.5 -9h-7q-3 0 -6 1q-16 4 -25.5 16.5t-9.5 28.5q0 4 0.5 6.5t0.5 5.5zM316 895q4 16 16.5 25t28.5 9h6q3 0 7 -1q16 -4 25.5 -16.5t9.5 -29.5
q0 -3 -0.5 -5.5t-1.5 -5.5l-21 -78q-4 -16 -16.5 -25t-27.5 -9h-7q-3 0 -6 1q-16 4 -25.5 16.5t-9.5 28.5q0 4 0.5 6.5t0.5 5.5z" />
    <glyph glyph-name="uhungarumlaut" unicode="&#x171;" horiz-adv-x="540" 
d="M382 509q0 19 13.5 32.5t33.5 13.5t34 -13.5t14 -32.5v-404q0 -39 -23 -60t-56 -31t-69 -11.5t-62 -1.5q-42 0 -79.5 14t-66 39.5t-45.5 61.5t-17 79v311q0 21 13.5 34.5t33.5 13.5q19 0 32.5 -13.5t13.5 -34.5v-311q0 -26 12 -45t30 -31t41.5 -18t47.5 -6q13 0 27.5 1
t28 2.5t25 3.5t18.5 3v404zM173 706q4 16 16.5 25t28.5 9h6q3 0 7 -1q16 -4 25.5 -16.5t9.5 -29.5q0 -3 -0.5 -5.5t-1.5 -5.5l-21 -78q-4 -16 -16.5 -25t-27.5 -9h-7q-3 0 -6 1q-16 4 -25.5 16.5t-9.5 28.5q0 4 0.5 6.5t0.5 5.5zM312 706q4 16 16.5 25t28.5 9h6q3 0 7 -1
q16 -4 25.5 -16.5t9.5 -29.5q0 -3 -0.5 -5.5t-1.5 -5.5l-21 -78q-4 -16 -16.5 -25t-27.5 -9h-7q-3 0 -6 1q-16 4 -25.5 16.5t-9.5 28.5q0 4 0.5 6.5t0.5 5.5z" />
    <glyph glyph-name="Uogonek" unicode="&#x172;" horiz-adv-x="540" 
d="M155 211q0 -24 9.5 -45t25 -37t36.5 -25t44 -9t44 9t37 24.5t25 36.5t9 44v469q0 19 13.5 33t33.5 14t33.5 -14t13.5 -33v-469q0 -43 -16.5 -80.5t-45 -66t-66.5 -45.5q-15 -6 -30 -10q-9 -10 -19 -21q-17 -20 -17 -35q0 -27 18 -38t37.5 -3.5t28 24t27 17.5t27 -8.5
t6.5 -24.5q0 -21 -11.5 -36.5t-28 -25.5t-35 -15t-33.5 -5q-45 0 -77.5 31t-32.5 84q0 18 13 42q4 6 7 11q-21 4 -41 13q-38 16 -66.5 44t-45.5 65t-17 79v473q0 19 14 33t34 14q19 0 32.5 -14t13.5 -33v-467z" />
    <glyph glyph-name="uogonek" unicode="&#x173;" horiz-adv-x="540" 
d="M382 509q0 19 13.5 32.5t33.5 13.5t34 -13.5t14 -32.5v-404q0 -39 -23 -60q-16 -14 -36 -24q-16 -17 -33 -35q-17 -20 -17 -35q0 -27 18 -38t37.5 -3.5t28 24t27 17.5t27 -8.5t6.5 -24.5q0 -21 -11.5 -36.5t-28 -25.5t-35 -15t-33.5 -5q-45 0 -77.5 31t-32.5 84
q0 18 13 42l6 8h-46q-42 0 -79.5 14t-66 39.5t-45.5 61.5t-17 79v311q0 21 13.5 34.5t33.5 13.5q19 0 32.5 -13.5t13.5 -34.5v-311q0 -26 12 -45t30 -31t41.5 -18t47.5 -6q13 0 27.5 1t28 2.5t25 3.5t18.5 3v404z" />
    <glyph glyph-name="Wcircumflex" unicode="&#x174;" horiz-adv-x="782" 
d="M23 668q-2 6 -2 12q0 18 13.5 32t34.5 14q16 0 28 -9.5t16 -25.5l119 -454l115 453q4 16 16.5 26t28.5 10q18 0 30 -10.5t16 -25.5l114 -453l119 454q4 16 16 25.5t28 9.5q20 0 33.5 -14t13.5 -32v-7q0 -2 -1 -5l-163 -630q-3 -16 -15.5 -27t-30.5 -11q-16 0 -29 10
t-17 26l-114 451l-115 -451q-3 -15 -15.5 -25.5t-30.5 -10.5q-15 0 -28 10t-17 26zM542 852q2 -2 4 -3.5t4 -4.5q11 -13 11 -28.5t-9 -28.5q-3 -2 -5 -4.5t-5 -4.5q-11 -10 -27 -11t-29 10l-65 46q-3 3 -5.5 4t-4.5 4q-9 12 -10 28.5t9 28.5q3 5 5 6t5 4q11 10 27 11t30 -9z
M303 900q14 10 30 9t27 -11q3 -3 5 -4t5 -6q10 -12 9 -28.5t-10 -28.5q-2 -3 -4.5 -4t-5.5 -4l-65 -46q-13 -11 -29 -10t-27 11q-3 2 -5 4.5t-5 4.5q-9 13 -9 28.5t11 28.5q2 3 4 4.5t4 3.5z" />
    <glyph glyph-name="wcircumflex" unicode="&#x175;" horiz-adv-x="780" 
d="M358 703q14 14 34 14q18 0 33 -14l57 -57q7 -7 10.5 -15.5t3.5 -18.5q0 -19 -14 -33q-7 -7 -15.5 -10t-17.5 -3q-20 0 -33 13l-24 24l-24 -24q-7 -7 -15.5 -10t-17.5 -3q-20 0 -33 13q-14 14 -14 33q0 10 3 18.5t11 15.5zM25 490q-4 11 -4 18q0 18 14.5 31.5t34.5 13.5
q14 0 26 -8.5t18 -22.5l119 -333l116 333q6 14 17.5 22.5t26.5 8.5q14 0 27.5 -8.5t16.5 -22.5l116 -333l120 333q4 14 17 22.5t27 8.5q21 0 34 -14.5t13 -33.5q0 -9 -3 -15l-163 -458q-5 -13 -18 -22t-27 -9t-26.5 9t-17.5 23l-116 331l-115 -328q-3 -16 -16 -26t-29 -10
q-14 0 -26.5 9t-17.5 23z" />
    <glyph glyph-name="Ycircumflex" unicode="&#x176;" horiz-adv-x="539" 
d="M186 900q14 10 30 9t27 -11q3 -3 5 -4t5 -6q10 -12 9 -28.5t-10 -28.5q-2 -3 -4.5 -4t-5.5 -4l-65 -46q-13 -11 -29 -10t-27 11q-3 2 -5 4.5t-5 4.5q-9 13 -9 28.5t11 28.5q2 3 4 4.5t4 3.5zM360 900q-14 10 -30 9t-27 -11q-3 -3 -5 -4t-5 -6q-10 -12 -9 -28.5t10 -28.5
q2 -3 4.5 -4t5.5 -4l65 -46q13 -11 29 -10t27 11q3 2 5 4.5t5 4.5q9 13 9 28.5t-11 28.5q-2 3 -4 4.5t-4 3.5zM477 211q0 -42 -10 -80t-34 -66.5t-65 -45.5t-103 -17q-46 0 -87.5 20.5t-70.5 55.5q-11 15 -11 30q0 18 14 32.5t33 14.5q22 0 36 -17q16 -21 39.5 -31.5
t48.5 -10.5q35 0 57.5 6.5t35.5 20.5t18 36t5 52v89q-30 -7 -61 -8.5t-55 -1.5q-40 0 -77.5 14t-66.5 39t-46.5 60.5t-17.5 78.5v199q0 20 14 33.5t33 13.5q20 0 33.5 -13.5t13.5 -33.5v-198q0 -26 11 -45t29 -31t40.5 -18t45.5 -6q13 0 28.5 1t29.5 2.5t26 3.5t20 3v289
q0 20 13.5 33.5t33.5 13.5q19 0 33 -13.5t14 -33.5v-471z" />
    <glyph glyph-name="ycircumflex" unicode="&#x177;" horiz-adv-x="540" 
d="M242 703q14 14 34 14q18 0 33 -14l57 -57q7 -7 10.5 -15.5t3.5 -18.5q0 -19 -14 -33q-7 -7 -15.5 -10t-17.5 -3q-20 0 -33 13l-24 24l-24 -24q-7 -7 -15.5 -10t-17.5 -3q-20 0 -33 13q-14 14 -14 33q0 10 3 18.5t11 15.5zM477 36q0 -48 -12 -86.5t-37.5 -65.5t-65 -42
t-94.5 -15q-37 0 -69 11.5t-54.5 28t-35.5 34.5t-13 32q0 18 14 33t33 15q15 0 27.5 -9.5t26 -20.5t31 -20.5t40.5 -9.5q33 0 54.5 6.5t34 18t18 28t7.5 36.5q-30 -7 -60.5 -8t-53.5 -1q-42 0 -79.5 14t-66 39t-45.5 61t-17 79v314q0 19 13.5 32t33.5 13q19 0 32.5 -13
t13.5 -32v-314q0 -26 11 -45t29 -31t40.5 -17.5t46.5 -5.5t52.5 2.5t50.5 7.5v403q0 19 13.5 32t33.5 13t33.5 -13t13.5 -32v-472z" />
    <glyph glyph-name="Ydieresis" unicode="&#x178;" horiz-adv-x="539" 
d="M176 765q-19 0 -33 14t-14 33q0 20 14 33.5t33 13.5q20 0 34 -13.5t14 -33.5q0 -19 -14 -33t-34 -14zM372 765q-19 0 -33 14t-14 33q0 20 14 33.5t33 13.5q20 0 34 -13.5t14 -33.5q0 -19 -14 -33t-34 -14zM477 211q0 -42 -10 -80t-34 -66.5t-65 -45.5t-103 -17
q-46 0 -87.5 20.5t-70.5 55.5q-11 15 -11 30q0 18 14 32.5t33 14.5q22 0 36 -17q16 -21 39.5 -31.5t48.5 -10.5q35 0 57.5 6.5t35.5 20.5t18 36t5 52v89q-30 -7 -61 -8.5t-55 -1.5q-40 0 -77.5 14t-66.5 39t-46.5 60.5t-17.5 78.5v199q0 20 14 33.5t33 13.5q20 0 33.5 -13.5
t13.5 -33.5v-198q0 -26 11 -45t29 -31t40.5 -18t45.5 -6q13 0 28.5 1t29.5 2.5t26 3.5t20 3v289q0 20 13.5 33.5t33.5 13.5q19 0 33 -13.5t14 -33.5v-471z" />
    <glyph glyph-name="Zacute" unicode="&#x179;" horiz-adv-x="458" 
d="M66 631q-20 0 -33.5 13.5t-13.5 33.5t13.5 33.5t33.5 13.5h262q23 0 43 -7.5t34.5 -20.5t22.5 -32.5t8 -42.5q0 -19 -7 -36t-17 -32l-292 -435q-3 -5 -5 -9t-2 -8q0 -8 14 -8h262q20 0 33.5 -13.5t13.5 -33.5t-13.5 -33.5t-33.5 -13.5h-262q-22 0 -41.5 6.5t-34.5 19.5
t-23.5 32t-8.5 43q0 19 7 37t17 33l292 435q5 7 5 15q0 10 -12 10h-262zM202 895q4 16 16.5 25t28.5 9h6q3 0 7 -1q16 -4 25.5 -16.5t9.5 -29.5q0 -3 -0.5 -5.5t-1.5 -5.5l-21 -78q-4 -16 -16.5 -25t-27.5 -9h-7q-3 0 -6 1q-16 4 -25.5 16.5t-9.5 28.5q0 4 0.5 6.5t0.5 5.5z
" />
    <glyph glyph-name="zacute" unicode="&#x17a;" 
d="M222 706q4 16 16.5 25t28.5 9h6.5t6.5 -1q16 -4 25.5 -16.5t9.5 -29.5q0 -3 -0.5 -5.5t-1.5 -5.5l-21 -78q-4 -16 -16.5 -25t-27.5 -9h-7t-6 1q-16 4 -25.5 16.5t-9.5 28.5q0 4 0.5 6.5t0.5 5.5zM88 459q-19 0 -33 13.5t-14 32.5q0 20 14 34t33 14h262q27 0 47.5 -9
t34 -24t20.5 -33.5t7 -38.5q0 -21 -8 -41t-23 -34l-290 -260q-3 -3 -3 -7q0 -5 3.5 -8.5t11.5 -3.5h262q19 0 33 -14t14 -33q0 -20 -14 -33.5t-33 -13.5h-262q-23 0 -43 8t-35 22.5t-23 33.5t-8 41q0 21 8 41t24 34l289 260q3 4 3 7q0 5 -3.5 8.5t-11.5 3.5h-262z" />
    <glyph glyph-name="Zdotaccent" unicode="&#x17b;" horiz-adv-x="458" 
d="M228 765q-19 0 -33 14t-14 33q0 20 14 33.5t33 13.5q20 0 34 -13.5t14 -33.5q0 -19 -14 -33t-34 -14zM66 631q-20 0 -33.5 13.5t-13.5 33.5t13.5 33.5t33.5 13.5h262q23 0 43 -7.5t34.5 -20.5t22.5 -32.5t8 -42.5q0 -19 -7 -36t-17 -32l-292 -435q-3 -5 -5 -9t-2 -8
q0 -8 14 -8h262q20 0 33.5 -13.5t13.5 -33.5t-13.5 -33.5t-33.5 -13.5h-262q-22 0 -41.5 6.5t-34.5 19.5t-23.5 32t-8.5 43q0 19 7 37t17 33l292 435q5 7 5 15q0 10 -12 10h-262z" />
    <glyph glyph-name="zdotaccent" unicode="&#x17c;" 
d="M253 618q-20 0 -33.5 14t-13.5 33q0 20 13.5 33.5t33.5 13.5t34 -13.5t14 -33.5q0 -19 -14 -33t-34 -14zM88 459q-19 0 -33 13.5t-14 32.5q0 20 14 34t33 14h262q27 0 47.5 -9t34 -24t20.5 -33.5t7 -38.5q0 -21 -8 -41t-23 -34l-290 -260q-3 -3 -3 -7q0 -5 3.5 -8.5
t11.5 -3.5h262q19 0 33 -14t14 -33q0 -20 -14 -33.5t-33 -13.5h-262q-23 0 -43 8t-35 22.5t-23 33.5t-8 41q0 21 8 41t24 34l289 260q3 4 3 7q0 5 -3.5 8.5t-11.5 3.5h-262z" />
    <glyph glyph-name="Zcaron" unicode="&#x17d;" horiz-adv-x="463" 
d="M138 830q-8 7 -11 16t-3 18q0 19 14 33q13 14 33 14q9 0 17.5 -3.5t15.5 -10.5l24 -23l24 23q13 14 33 14q9 0 17.5 -3.5t15.5 -10.5q14 -14 14 -33q0 -9 -3.5 -18t-10.5 -16l-57 -56q-15 -14 -33 -14q-20 0 -34 14zM66 631q-20 0 -33.5 13.5t-13.5 33.5t13.5 33.5
t33.5 13.5h261q23 0 43 -7.5t35 -20.5t23 -32.5t8 -42.5q0 -19 -7 -36t-17 -32l-292 -435q-3 -5 -5.5 -9t-2.5 -8q0 -8 15 -8h262q20 0 33.5 -13.5t13.5 -33.5t-13.5 -33.5t-33.5 -13.5h-262q-22 0 -41.5 6.5t-34.5 19.5t-23.5 32t-8.5 43q0 19 7 37t16 33l292 435q6 7 6 15
q0 10 -13 10h-261z" />
    <glyph glyph-name="zcaron" unicode="&#x17e;" horiz-adv-x="460" 
d="M140 637q-7 7 -10.5 15.5t-3.5 18.5q0 19 14 33q14 13 33 13q9 0 18 -3t16 -10l24 -24l23 24q14 13 33 13q10 0 18.5 -3t15.5 -10q13 -14 13 -33q0 -10 -3 -18.5t-10 -15.5l-57 -57q-15 -14 -33 -14q-20 0 -34 14zM66 459q-19 0 -33 13.5t-14 32.5q0 20 14 34t33 14h262
q27 0 47.5 -9t34 -24t20.5 -33.5t7 -38.5q0 -21 -8 -41t-23 -34l-290 -260q-3 -3 -3 -7q0 -5 3.5 -8.5t11.5 -3.5h262q19 0 33 -14t14 -33q0 -20 -14 -33.5t-33 -13.5h-262q-23 0 -43 8t-35 22.5t-23 33.5t-8 41q0 21 8 41t24 34l289 260q3 4 3 7q0 5 -3.5 8.5t-11.5 3.5
h-262z" />
    <glyph glyph-name="AEacute" unicode="&#x1fc;" horiz-adv-x="801" 
d="M715 724q20 0 33.5 -13.5t13.5 -33.5t-13.5 -33.5t-33.5 -13.5h-275l-1 -191h196q19 0 33 -14t14 -33q0 -20 -14 -33.5t-33 -13.5h-196v-247q0 -2 2.5 -3.5t11.5 -1.5h262q20 0 33.5 -13.5t13.5 -33.5t-13.5 -33.5t-33.5 -13.5h-262q-37 0 -58.5 7.5t-32.5 20.5t-14 31.5
t-3 39.5v138h-110l-105 -209q-6 -12 -17.5 -19t-24.5 -7q-21 0 -34 15t-13 32q0 11 5 21l316 633q11 17 41 21q7 1 20 1h292zM372 902q4 16 16.5 25t28.5 9h6q3 0 7 -1q16 -4 25.5 -16.5t9.5 -29.5q0 -3 -0.5 -5.5t-1.5 -5.5l-21 -78q-4 -16 -16.5 -25t-27.5 -9h-7
q-3 0 -6 1q-16 4 -25.5 16.5t-9.5 28.5q0 4 0.5 6.5t0.5 5.5zM345 455l-63 -125h63v125z" />
    <glyph glyph-name="aeacute" unicode="&#x1fd;" horiz-adv-x="852" 
d="M175 418q-7 -8 -16 -12t-19 -4q-20 0 -33.5 14.5t-13.5 32.5q0 7 2 15t8 14q35 36 75 54t82 18q44 0 81.5 -16t66.5 -45q8 -8 15 -17q7 9 15 16q29 29 66.5 45.5t81.5 16.5t82 -17t66.5 -47.5t44.5 -72t16 -89.5q0 -44 -26.5 -69.5t-72.5 -25.5h-225v-21q0 -23 9 -44
t25 -36.5t36.5 -24.5t44.5 -9q33 0 54.5 13t30.5 25q7 8 16 12t19 4q20 0 33.5 -14.5t13.5 -32.5q0 -7 -2 -15t-8 -14q-35 -36 -75 -54t-82 -18q-44 0 -81.5 16t-66.5 44q-8 8 -16 17l-14 -16q-29 -28 -66.5 -44.5t-81.5 -16.5t-82 17t-66.5 47.5t-44.5 72t-16 89.5
q0 44 26.5 69.5t72.5 25.5h225v21q0 23 -9 44t-25 36.5t-36.5 24.5t-44.5 9q-33 0 -54.5 -13t-30.5 -25zM375 227h-230q0 -28 8.5 -52t23 -42t36 -28.5t47.5 -10.5q25 0 45.5 9t36.5 24.5t24.5 36.5t8.5 45v18zM471 323h230q0 28 -8.5 52t-23 42t-36 28.5t-47.5 10.5
q-25 0 -45.5 -9t-36.5 -24.5t-24.5 -36.5t-8.5 -45v-18zM403 706q4 16 16.5 25t28.5 9h6q3 0 7 -1q16 -4 25.5 -16.5t9.5 -29.5q0 -3 -0.5 -5.5t-1.5 -5.5l-21 -78q-4 -16 -16.5 -25t-27.5 -9h-7q-3 0 -6 1q-16 4 -25.5 16.5t-9.5 28.5q0 4 0.5 6.5t0.5 5.5z" />
    <glyph glyph-name="Oslashacute" unicode="&#x1fe;" 
d="M226 895q4 16 16.5 25t28.5 9h6.5t6.5 -1q16 -4 25.5 -16.5t9.5 -29.5q0 -3 -0.5 -5.5t-1.5 -5.5l-21 -78q-4 -16 -16.5 -25t-27.5 -9h-7t-6 1q-16 4 -25.5 16.5t-9.5 28.5q0 4 0.5 6.5t0.5 5.5zM132 27q-6 -12 -17.5 -19t-24.5 -7q-21 0 -34 15t-13 32q0 11 5 21l18 37
q-5 9 -9 19q-17 37 -17 77v312q0 44 15 82t43 66.5t66.5 44.5t85.5 16q42 0 80 -17q16 -7 30 -15l6 11q6 12 17.5 19t24.5 7q22 0 34.5 -14.5t12.5 -32.5q0 -11 -5 -21l-21 -41q7 -11 12 -24q17 -38 17 -82v-305q0 -43 -16.5 -80.5t-44.5 -66t-66.5 -45t-80.5 -16.5t-81 16
q-18 8 -34 18zM205 103q21 -9 44 -9t43.5 9.5t36.5 24.5t25.5 35.5t9.5 43.5v282l-186 -370q12 -10 27 -16zM294 622q-21 9 -45 9t-45 -9t-36.5 -25.5t-24.5 -37.5t-9 -45v-274l184 367q-11 9 -24 15z" />
    <glyph glyph-name="oslashacute" unicode="&#x1ff;" 
d="M39 340q0 44 16.5 82.5t45 66.5t66.5 44.5t81 16.5q42 0 79 -16q6 7 13 12q12 7 25 7q22 0 34.5 -14.5t12.5 -32.5q0 -11 -5 -21l-3 -5q23 -25 37 -58q16 -38 16 -82v-130q0 -43 -16 -81.5t-44.5 -67t-67 -45t-81.5 -16.5q-42 0 -79 15q-4 -5 -11 -9q-11 -7 -24 -7
q-21 0 -34 15t-13 32q0 11 5 21l1 2q-23 26 -38 59q-16 39 -16 82v130zM133 210q0 -24 8 -44l143 285q-17 5 -36 5q-23 0 -43.5 -8t-36.5 -23.5t-25.5 -37t-9.5 -47.5v-130zM248 94q23 0 43.5 9t37 25t26 37t9.5 45v131q0 23 -8 43l-143 -285q16 -5 35 -5zM231 706
q4 16 16.5 25t28.5 9h6q3 0 7 -1q16 -4 25.5 -16.5t9.5 -29.5q0 -3 -0.5 -5.5t-1.5 -5.5l-21 -78q-4 -16 -16.5 -25t-27.5 -9h-7q-3 0 -6 1q-16 4 -25.5 16.5t-9.5 28.5q0 4 0.5 6.5t0.5 5.5z" />
    <glyph glyph-name="Scommaaccent" unicode="&#x218;" horiz-adv-x="463" 
d="M232 -34q3 16 15.5 25t28.5 9h6.5t6.5 -1q16 -5 25.5 -17.5t9.5 -28.5q0 -3 -0.5 -5.5t-0.5 -6.5l-21 -78q-5 -16 -17.5 -25t-27.5 -9h-6.5t-6.5 2q-16 4 -25.5 16.5t-9.5 28.5q0 4 0.5 6l1.5 6zM439 580q2 -8 2 -15q0 -18 -13 -32.5t-34 -14.5q-15 0 -27 9t-17 24
q-7 18 -19.5 33.5t-29 26t-35.5 16t-38 5.5q-18 0 -37.5 -6.5t-35.5 -17.5t-27 -26.5t-11 -33.5q0 -19 15.5 -38.5t39.5 -40.5t53 -41.5t57 -40.5q29 -21 57.5 -43t51 -46.5t36.5 -52.5t14 -61q0 -41 -17.5 -74.5t-46.5 -57.5t-66.5 -37.5t-78.5 -13.5q-34 0 -66.5 11
t-60 30.5t-48.5 46.5t-31 58q-3 7 -3 15q0 18 13 32.5t34 14.5q14 0 27 -9t18 -23q6 -18 18 -32.5t27 -25.5t33.5 -17.5t37.5 -6.5q18 0 38.5 5.5t37.5 16t29 26.5t12 37t-14.5 40.5t-36.5 38.5t-47 36.5t-47 33.5q-30 22 -62 45t-58.5 48.5t-43 56t-16.5 69.5q0 41 19 74
t49 56t67 35.5t74 12.5q34 0 66.5 -11t60.5 -30.5t48.5 -46t31.5 -58.5z" />
    <glyph glyph-name="scommaaccent" unicode="&#x219;" horiz-adv-x="482" 
d="M236 -34q3 16 15.5 25t29.5 9h6t6 -1q16 -5 25.5 -17.5t9.5 -28.5q0 -3 -0.5 -5.5t-0.5 -6.5l-21 -78q-5 -16 -17.5 -25t-27.5 -9h-6.5t-6.5 2q-16 4 -25.5 16.5t-9.5 28.5q0 4 0.5 6l1.5 6zM440 425q2 -4 2.5 -9t0.5 -9q0 -18 -12.5 -32.5t-33.5 -14.5q-12 0 -20 5.5
t-14 14t-12 19t-17 22.5q-19 18 -42.5 28.5t-47.5 10.5q-20 0 -40 -6.5t-35.5 -18.5t-25.5 -27t-10 -32q0 -6 8.5 -10.5t23 -8.5t33 -7t38.5 -7q39 -8 78 -18.5t70 -28t50 -45.5t19 -70q0 -13 -3.5 -27.5t-8.5 -27.5t-10.5 -23.5t-10.5 -17.5q-14 -19 -34 -34t-43 -26
t-48 -17t-50 -6q-38 0 -72 12.5t-61 35.5t-46 53.5t-26 65.5q-1 2 -1 4.5v4.5q0 19 13 33t34 14q16 0 29 -10.5t17 -26.5q4 -20 14 -37t25 -29t33.5 -19t39.5 -7t41.5 6t37 17.5t26.5 27t10 34.5q0 17 -13.5 29t-36 20t-51.5 14t-58.5 12t-58.5 15t-51.5 22.5t-36 33.5
t-13.5 49q0 41 18.5 74t47.5 56t66.5 35.5t74.5 12.5q33 0 62.5 -9.5t55 -27t45 -40.5t30.5 -52z" />
    <glyph glyph-name="ogonek" unicode="&#x2db;" horiz-adv-x="833" 
d="M449 37q8 -7 2 -13q-18 -18 -35.5 -38t-17.5 -35q0 -27 18 -38t37.5 -3.5t28 24t27 17.5t27 -8.5t6.5 -24.5q0 -21 -11.5 -36.5t-28 -25.5t-35 -15t-33.5 -5q-45 0 -77.5 31t-32.5 84q0 18 13.5 41.5t34.5 44.5h77z" />
    <glyph glyph-name="afii10023" unicode="&#x401;" 
d="M430 724q20 0 33.5 -13.5t13.5 -33.5t-13.5 -33.5t-33.5 -13.5h-116q-47 0 -77.5 -0.5t-47.5 -0.5t-24.5 -0.5t-9.5 -0.5l-1 -1v-188h196q19 0 33 -14t14 -33q0 -20 -14 -33.5t-33 -13.5h-196v-247q0 -2 2.5 -3.5t11.5 -1.5h262q20 0 33.5 -13.5t13.5 -33.5t-13.5 -33.5
t-33.5 -13.5h-262q-37 0 -58.5 7.5t-32.5 20.5t-14 31.5t-3 39.5v530q0 21 3.5 38.5t14.5 30.5t32.5 20t57.5 7h262zM168 765q-19 0 -33 14t-14 33q0 20 14 33.5t33 13.5q20 0 34 -13.5t14 -33.5q0 -19 -14 -33t-34 -14zM364 765q-19 0 -33 14t-14 33q0 20 14 33.5t33 13.5
q20 0 34 -13.5t14 -33.5q0 -19 -14 -33t-34 -14z" />
    <glyph glyph-name="afii10052" unicode="&#x403;" horiz-adv-x="494" 
d="M431 631q20 0 33.5 13.5t13.5 32.5q0 21 -13.5 34.5t-33.5 13.5h-262q-38 0 -59 -7.5t-32.5 -20.5t-14 -31.5t-2.5 -39.5v-579q0 -20 13.5 -33.5t33.5 -13.5q19 0 32.5 13.5t13.5 33.5v579q0 2 2.5 3.5t12.5 1.5h262zM226 902q4 16 16.5 25t28.5 9h6q3 0 7 -1
q16 -4 25.5 -16.5t9.5 -29.5q0 -3 -0.5 -5.5t-1.5 -5.5l-21 -78q-4 -16 -16.5 -25t-27.5 -9h-7q-3 0 -6 1q-16 4 -25.5 16.5t-9.5 28.5q0 4 0.5 6.5t0.5 5.5z" />
    <glyph glyph-name="afii10053" unicode="&#x404;" horiz-adv-x="481" 
d="M354 133q14 15 35 15t33.5 -14.5t12.5 -33.5q0 -17 -11 -29q-30 -34 -70 -52.5t-86 -18.5q-44 0 -81.5 16.5t-66 45t-45 66t-16.5 80.5v309q0 43 16.5 81t45 66t66 44.5t81.5 16.5q54 0 90 -18.5t66 -52.5q12 -13 12 -30q0 -18 -13.5 -32.5t-33.5 -14.5q-16 0 -26.5 8.5
t-22.5 19t-28.5 18.5t-43.5 8q-23 0 -43.5 -8t-36.5 -23.5t-25.5 -36t-9.5 -46.5v-77h188q20 0 34 -13.5t14 -33.5q0 -19 -14 -33t-34 -14h-188v-138q0 -20 7.5 -40t22.5 -36.5t36 -27t49 -10.5t51 13t35 26z" />
    <glyph glyph-name="afii10054" unicode="&#x405;" horiz-adv-x="463" 
d="M439 580q2 -8 2 -15q0 -18 -13 -32.5t-34 -14.5q-15 0 -27 9t-17 24q-7 18 -19.5 33.5t-29 26t-35.5 16t-38 5.5q-18 0 -37.5 -6.5t-35.5 -17.5t-27 -26.5t-11 -33.5q0 -19 15.5 -38.5t39.5 -40.5t53 -41.5t57 -40.5q29 -21 57.5 -43t51 -46.5t36.5 -52.5t14 -61
q0 -41 -17.5 -74.5t-46.5 -57.5t-66.5 -37.5t-78.5 -13.5q-34 0 -66.5 11t-60 30.5t-48.5 46.5t-31 58q-3 7 -3 15q0 18 13 32.5t34 14.5q14 0 27 -9t18 -23q6 -18 18 -32.5t27 -25.5t33.5 -17.5t37.5 -6.5q18 0 38.5 5.5t37.5 16t29 26.5t12 37t-14.5 40.5t-36.5 38.5
t-47 36.5t-47 33.5q-30 22 -62 45t-58.5 48.5t-43 56t-16.5 69.5q0 41 19 74t49 56t67 35.5t74 12.5q34 0 66.5 -11t60.5 -30.5t48.5 -46t31.5 -58.5z" />
    <glyph glyph-name="uni0406" unicode="&#x406;" horiz-adv-x="216" 
d="M59 678q0 19 14 33t33 14q20 0 33.5 -14t13.5 -33v-630q0 -20 -13.5 -33.5t-33.5 -13.5q-19 0 -33 13.5t-14 33.5v630z" />
    <glyph glyph-name="afii10056" unicode="&#x407;" horiz-adv-x="216" 
d="M20 623q-20 0 -33.5 14t-13.5 33q0 20 13.5 33.5t33.5 13.5t34 -13.5t14 -33.5q0 -19 -14 -33t-34 -14zM60 504q0 20 14 33.5t33 13.5q20 0 33.5 -13.5t13.5 -33.5v-457q0 -20 -13.5 -33.5t-33.5 -13.5q-19 0 -33 13.5t-14 33.5v457zM197 623q-20 0 -33.5 14t-13.5 33
q0 20 13.5 33.5t33.5 13.5t34 -13.5t14 -33.5q0 -19 -14 -33t-34 -14z" />
    <glyph glyph-name="afii10057" unicode="&#x408;" horiz-adv-x="480" 
d="M67 631q-20 0 -33.5 13.5t-13.5 33.5t13.5 33.5t33.5 13.5h261q36 0 57.5 -7t33 -19.5t15 -30.5t3.5 -39v-421q0 -43 -16.5 -80.5t-45 -66t-66.5 -45t-81 -16.5q-32 0 -59 10t-48 22.5t-34 24t-16 15.5q-11 13 -11 29q0 22 18 38q12 9 29 9q22 0 35 -15q20 -20 41 -29.5
t45 -9.5q23 0 44 9t37 25t25 36.5t9 43.5v138h-196q-19 0 -33 13.5t-14 33.5q0 19 14 33t33 14h195v189q0 2 -2.5 2h-6.5h-266z" />
    <glyph glyph-name="afii10058" unicode="&#x409;" horiz-adv-x="706" 
d="M685 194q0 -46 -18 -82t-48 -60.5t-69.5 -37.5t-81.5 -13q-20 0 -44 5.5t-45 17.5t-35.5 30.5t-14.5 44.5v6v429v87q-12 9 -43 9q-24 0 -46.5 -6.5t-40 -19t-27.5 -31t-10 -41.5v-483q0 -20 -13.5 -34t-32.5 -14q-20 0 -33.5 14t-13.5 34v483q0 43 17 78.5t45.5 61
t66 39.5t79.5 14q15 0 40 -4.5t48.5 -16t41 -32t17.5 -51.5v-189q32 8 53 8q41 0 78.5 -14t66.5 -39t46 -61t17 -79v-53zM591 246q0 27 -11.5 46t-29.5 31t-41 17.5t-46 5.5q-16 0 -26 -3t-13 -6v-157q0 -8 -1 -11v-64q20 -11 44 -11q22 0 44.5 6t40 18.5t28.5 31t11 44.5
v52z" />
    <glyph glyph-name="afii10059" unicode="&#x40a;" horiz-adv-x="698" 
d="M63 677q0 19 13.5 33t32.5 14q20 0 33.5 -14t13.5 -33v-239h167l1 239q0 19 13.5 33t32.5 14q20 0 33.5 -14t13.5 -33l1 -245q34 8 53 8q41 0 78.5 -14t66.5 -39t46 -61t17 -79v-53q0 -46 -18 -82t-48 -60.5t-69.5 -37.5t-81.5 -13q-20 0 -44 5.5t-45 17.5t-35.5 30.5
t-14.5 44.5v245h-167v-297q0 -20 -13.5 -33.5t-33.5 -13.5q-19 0 -32.5 13.5t-13.5 33.5v630zM585 246q0 27 -11.5 46t-29.5 31t-41 17.5t-46 5.5q-16 0 -26 -3t-13 -6l-1 -232q20 -11 44 -11q22 0 44.5 6t40 18.5t28.5 31t11 44.5v52z" />
    <glyph glyph-name="afii10060" unicode="&#x40b;" horiz-adv-x="517" 
d="M46 631q-20 0 -34 14t-14 33q0 20 14 33.5t34 13.5h123q19 0 33 -13.5t14 -33.5q0 -19 -14 -33t-33 -14h-15v-89q32 7 62.5 8t53.5 1q41 0 78.5 -14t66.5 -39.5t46 -61t17 -79.5v-313q0 -19 -13.5 -32.5t-33.5 -13.5t-33.5 13.5t-13.5 32.5v313q0 26 -10.5 44.5
t-27.5 30.5t-39 18.5t-45 6.5q-24 0 -54 -3t-54 -8v-402q0 -21 -13.5 -33.5t-32.5 -12.5q-20 0 -34 12.5t-14 33.5v587h-14z" />
    <glyph glyph-name="afii10061" unicode="&#x40c;" horiz-adv-x="519" 
d="M232 864q3 16 15.5 25t28.5 9h6.5t6.5 -1q16 -5 25.5 -17.5t9.5 -28.5q0 -3 -0.5 -5.5t-0.5 -6.5l-21 -78q-5 -16 -17.5 -25t-27.5 -9h-6.5t-6.5 2q-16 4 -25.5 16.5t-9.5 28.5q0 4 0.5 6l1.5 6zM154 48q0 -21 -13.5 -34.5t-33.5 -13.5t-34 13.5t-14 34.5v630
q0 19 14 32.5t34 13.5t33.5 -13.5t13.5 -32.5v-242h85l151 265q6 12 17.5 18t22.5 6q13 0 24 -6t17.5 -17.5t6.5 -23.5t-6 -24l-131 -230q29 -10 54 -27t43.5 -40.5t28.5 -52t10 -60.5v-196q0 -20 -13.5 -33.5t-33.5 -13.5q-19 0 -32.5 13.5t-13.5 33.5v195q0 23 -10 41.5
t-26 31t-36.5 19.5t-42.5 7h-115v-294z" />
    <glyph glyph-name="afii10062" unicode="&#x40e;" horiz-adv-x="518" 
d="M451 211q0 -42 -10 -80t-34 -66.5t-65 -45.5t-103 -17q-46 0 -87.5 20.5t-70.5 55.5q-11 15 -11 30q0 18 14 32.5t33 14.5q22 0 36 -17q16 -21 39.5 -31.5t48.5 -10.5q35 0 57.5 6.5t35.5 20.5t18 36t5 52v89q-30 -7 -61 -8.5t-55 -1.5q-40 0 -77.5 14t-66.5 39
t-46.5 60.5t-17.5 78.5v199q0 20 14 33.5t33 13.5q20 0 33.5 -13.5t13.5 -33.5v-198q0 -26 11 -45t29 -31t40.5 -18t45.5 -6q13 0 28.5 1t29.5 2.5t26 3.5t20 3v289q0 20 13.5 33.5t33.5 13.5q19 0 33 -13.5t14 -33.5v-471zM245 835q24 0 44.5 8t32.5 27q12 14 32 14
q15 0 27 -9q14 -12 14 -32q0 -16 -11 -29q-24 -29 -60.5 -45.5t-78.5 -16.5q-39 0 -75.5 16.5t-61.5 45.5q-11 13 -11 29q0 20 14 32q14 9 27 9q19 0 33 -14q11 -19 31.5 -27t42.5 -8z" />
    <glyph glyph-name="afii10145" unicode="&#x40f;" horiz-adv-x="527" 
d="M102 0q-18 1 -32 14t-14.5 46t-0.5 618q0 20 13.5 33.5t33.5 13.5q19 0 32.5 -13.5t13.5 -33.5v-585h228v585q0 20 13.5 33.5t32.5 13.5q20 0 33.5 -13.5t13.5 -33.5q0 -585 1 -618t-15.5 -46.5t-29.5 -12.5h-61zM213 -51q0 20 13.5 33.5t32.5 13.5q20 0 34 -13.5
t14 -33.5v-72q0 -20 -13 -33.5t-32 -13.5q-21 0 -35 13.5t-14 33.5v72z" />
    <glyph glyph-name="afii10017" unicode="&#x410;" 
d="M455 61q1 -3 1.5 -6t0.5 -6q0 -18 -13 -32.5t-34 -14.5q-15 0 -28.5 10t-17.5 26l-49 192h-134l-49 -192q-4 -16 -17 -26t-29 -10q-21 0 -34 14.5t-13 32.5v5.5t2 6.5l161 630q5 15 18 25t29 10q15 0 27.5 -10.5t16.5 -24.5zM291 324l-44 167l-42 -167h86z" />
    <glyph glyph-name="afii10018" unicode="&#x411;" horiz-adv-x="529" 
d="M479 194q0 -47 -18.5 -83.5t-50 -61t-72 -37t-83.5 -12.5q-27 0 -61 2.5t-63.5 13t-49.5 31.5t-20 58v58v463q0 21 3 39.5t13.5 31.5t32 20.5t59.5 7.5h262q20 0 33.5 -13.5t13.5 -34.5q0 -19 -13.5 -32.5t-33.5 -13.5h-262q-10 0 -12.5 -1.5t-2.5 -3.5v-60q1 -3 1 -11
v-123q30 6 61.5 7t54.5 1q41 0 78.5 -14t66.5 -39t46 -61t17 -79v-53zM385 246q0 27 -11.5 46t-29.5 31t-41 17.5t-46 5.5q-25 0 -52 -2.5t-50 -7.5v-231q22 -6 52 -8.5t54 -2.5q22 0 44.5 6t40 18.5t28.5 31t11 44.5v52z" />
    <glyph glyph-name="afii10019" unicode="&#x412;" horiz-adv-x="540" 
d="M404 396q33 -26 53 -63t20 -85v-52q0 -44 -17.5 -80t-46.5 -61.5t-67 -39t-77 -13.5q-30 0 -66.5 2.5t-68 12t-53.5 30.5t-22 58v518q0 24 10.5 41.5t27 29t38 18.5t44.5 10.5t46.5 4t43.5 0.5q40 0 77.5 -14t66.5 -39t46.5 -61t17.5 -80q0 -17 -5 -36.5t-14 -38.5
t-23 -35t-31 -27zM269 348h-116v-242q0 -1 13 -3t31.5 -3t38 -2.5t33.5 -1.5q22 0 42.5 7t36.5 20t25.5 31.5t9.5 41.5v52q0 23 -9.5 41.5t-25.5 31.5t-36.5 20t-42.5 7zM269 442h2q20 0 40 7t35.5 19t26 29t10.5 36q0 27 -11.5 46t-29.5 31t-41 17.5t-46 5.5
q-25 0 -52 -2.5t-50 -7.5v-181h116z" />
    <glyph glyph-name="afii10020" unicode="&#x413;" horiz-adv-x="474" 
d="M169 631q-10 0 -12.5 -1.5t-2.5 -3.5v-579q0 -20 -13.5 -33.5t-32.5 -13.5q-20 0 -33.5 13.5t-13.5 33.5v579q0 21 2.5 39.5t14 31.5t32.5 20.5t59 7.5h262q20 0 33.5 -13.5t13.5 -34.5q0 -19 -13.5 -32.5t-33.5 -13.5h-262z" />
    <glyph glyph-name="afii10021" unicode="&#x414;" horiz-adv-x="609" 
d="M111 0l7 -28q0 -3 0.5 -5.5t0.5 -6.5q0 -16 -11.5 -31t-29.5 -15h-7q-15 0 -27 9t-17 25l-21 78q-2 5 -3 11t-1 11q0 15 12 28.5t32 15.5h48v439q0 43 17 78.5t45.5 61t66 39.5t79.5 14q17 0 39.5 -0.5t46 -3.5t46 -9.5t40 -18t28 -29.5t10.5 -67v-504h51q20 -2 32 -15.5
t12 -28.5q0 -5 -1 -11t-3 -11l-21 -78q-5 -16 -17 -25t-27 -9h-7q-18 0 -29.5 15t-11.5 31q0 4 0.5 6.5t0.5 5.5l7 28h-387zM187 92h230v528q-7 2 -18.5 3.5t-25 3.5t-28 3t-27.5 1q-24 0 -47.5 -6t-41.5 -18.5t-30 -31.5t-12 -44v-439z" />
    <glyph glyph-name="afii10022" unicode="&#x415;" 
d="M430 724q20 0 33.5 -13.5t13.5 -33.5t-13.5 -33.5t-33.5 -13.5h-115.5t-78 -0.5t-47.5 -0.5t-24.5 -0.5t-9 -0.5t-1.5 -1v-188h196q19 0 33 -14t14 -33q0 -20 -14 -33.5t-33 -13.5h-196v-247q0 -2 2.5 -3.5t11.5 -1.5h262q20 0 33.5 -13.5t13.5 -33.5t-13.5 -33.5
t-33.5 -13.5h-262q-37 0 -58.5 7.5t-32.5 20.5t-14 31.5t-3 39.5v530q0 21 3.5 38.5t14.5 30.5t32.5 20t57.5 7h262z" />
    <glyph glyph-name="afii10024" unicode="&#x416;" horiz-adv-x="718" 
d="M311 341h-46q-22 0 -42.5 -7t-36.5 -19.5t-26 -31t-10 -41.5v-195q0 -20 -13.5 -33.5t-32.5 -13.5q-20 0 -33.5 13.5t-13.5 33.5v196q0 65 38.5 112.5t97.5 67.5l-131 230q-6 12 -6 24q0 18 13 32.5t35 14.5q26 0 40 -24l151 -265h16v242q0 19 14 32.5t34 13.5
t33.5 -13.5t13.5 -32.5v-242h15l151 265q7 12 17.5 18t22.5 6q21 0 34.5 -14.5t13.5 -32.5q0 -12 -6 -24l-131 -230q59 -20 97.5 -67.5t38.5 -112.5v-196q0 -20 -13.5 -33.5t-33.5 -13.5q-19 0 -32.5 13.5t-13.5 33.5v195q0 23 -10 41.5t-26 31t-36.5 19.5t-42.5 7h-45v-294
q0 -21 -13.5 -34.5t-33.5 -13.5t-34 13.5t-14 34.5v294v0v0z" />
    <glyph glyph-name="afii10025" unicode="&#x417;" horiz-adv-x="501" 
d="M144 556q-5 -15 -17 -23.5t-28 -8.5q-8 0 -15 2q-14 6 -23 17.5t-9 26.5q0 4 1 8l2 8q7 20 14.5 34.5t19.5 30.5q30 37 72 56.5t91 19.5q40 0 77.5 -13.5t66.5 -38.5t46.5 -60.5t17.5 -78.5q0 -42 -20 -81.5t-51 -64.5q36 -29 54.5 -73t18.5 -97q0 -45 -14 -85.5t-41 -70
t-66 -47t-88 -17.5q-45 0 -83.5 16t-66.5 44.5t-44.5 67.5t-16.5 85v3q0 20 14 33.5t33 13.5q21 0 34.5 -13.5t13.5 -33.5q0 -27 8.5 -49.5t23.5 -38.5t36 -24.5t47 -8.5q28 0 50 9.5t36.5 26t22 39.5t7.5 50t-8.5 50t-23 39.5t-35.5 25.5t-45 9h-4q-21 1 -34 15t-13 33
q0 20 13.5 33.5t33.5 13.5q21 0 42 6t36.5 18.5t25.5 30t10 40.5q0 24 -10 42t-26 30.5t-36.5 19t-41.5 6.5q-39 0 -67.5 -21t-40.5 -55z" />
    <glyph glyph-name="afii10026" unicode="&#x418;" horiz-adv-x="540" 
d="M477 45q0 -20 -13.5 -33.5t-33.5 -13.5q-19 0 -32.5 13.5t-13.5 33.5v435l-233 -455l-5 -7.5t-9 -9t-14.5 -7.5t-21.5 -3q-4 0 -10.5 1.5t-13 6.5t-11.5 14.5t-5 24.5v630q0 19 14 33t33 14q20 0 33.5 -14t13.5 -33v-435l232 452q6 14 17.5 22t25.5 8q20 0 33.5 -14
t13.5 -33v-630z" />
    <glyph glyph-name="afii10027" unicode="&#x419;" horiz-adv-x="540" 
d="M477 45q0 -20 -13.5 -33.5t-33.5 -13.5q-19 0 -32.5 13.5t-13.5 33.5v435l-233 -455l-5 -8q-3 -4 -9 -8.5t-14.5 -7.5t-21.5 -3q-4 0 -10.5 1.5t-13 6.5t-11.5 14.5t-5 24.5v630q0 19 14 33t33 14q20 0 33.5 -14t13.5 -33v-435l232 452q6 14 17.5 22t25.5 8
q20 0 33.5 -14t13.5 -33v-630zM273 835q24 0 44.5 8t32.5 27q12 14 32 14q15 0 27 -9q14 -12 14 -32q0 -16 -11 -29q-24 -29 -60.5 -45.5t-78.5 -16.5q-39 0 -75.5 16.5t-61.5 45.5q-11 13 -11 29q0 20 14 32q14 9 27 9q19 0 33 -14q11 -19 31.5 -27t42.5 -8z" />
    <glyph glyph-name="afii10028" unicode="&#x41a;" 
d="M155 47q0 -21 -13.5 -34.5t-33.5 -13.5t-34 13.5t-14 34.5v630q0 19 14 32.5t34 13.5t33.5 -13.5t13.5 -32.5v-242h85l151 265q6 12 17.5 18t22.5 6q13 0 24 -6t17.5 -17.5t6.5 -23.5t-6 -24l-131 -230q29 -10 54 -27t43.5 -40.5t28.5 -52t10 -60.5v-196
q0 -20 -13.5 -33.5t-33.5 -13.5q-19 0 -32.5 13.5t-13.5 33.5v195q0 23 -10 41.5t-26 31t-36.5 19.5t-42.5 7h-115v-294z" />
    <glyph glyph-name="afii10029" unicode="&#x41b;" horiz-adv-x="536" 
d="M383 621q-7 2 -18.5 3.5t-25 3.5t-28 3t-27.5 1q-24 0 -47.5 -6t-41.5 -18.5t-30 -31.5t-12 -44v-483q0 -20 -13.5 -34t-32.5 -14q-20 0 -33.5 14t-13.5 34v483q0 43 17 78.5t45.5 61t66 39.5t79.5 14q17 0 39.5 -0.5t46 -3.5t46 -9.5t40 -18t28 -29.5t10.5 -43v-574
q0 -20 -14 -33.5t-34 -13.5t-33.5 13.5t-13.5 33.5v574z" />
    <glyph glyph-name="afii10030" unicode="&#x41c;" horiz-adv-x="540" 
d="M154 49q0 -20 -13.5 -33.5t-33.5 -13.5q-19 0 -33 13.5t-14 33.5v630q0 19 14 33t33 14q16 0 28 -9t17 -23l114 -249l121 254q6 13 17.5 20t24.5 7q21 0 34 -14.5t13 -32.5v-630q0 -20 -13.5 -33.5t-33.5 -13.5q-19 0 -33 13.5t-14 33.5v423l-75 -157q-5 -12 -17.5 -20
t-26.5 -8q-13 0 -24 7t-17 20l-68 149v-414z" />
    <glyph glyph-name="afii10031" unicode="&#x41d;" horiz-adv-x="541" 
d="M61 677q0 19 13.5 33t32.5 14q20 0 33.5 -14t13.5 -33v-239h229v239q0 19 13.5 33t32.5 14q20 0 33.5 -14t13.5 -33v-630q0 -20 -13.5 -33.5t-33.5 -13.5q-19 0 -32.5 13.5t-13.5 33.5v297h-229v-297q0 -20 -13.5 -33.5t-33.5 -13.5q-19 0 -32.5 13.5t-13.5 33.5v630z
" />
    <glyph glyph-name="afii10032" unicode="&#x41e;" 
d="M40 514q0 44 15 82t43 66.5t66.5 44.5t85.5 16q42 0 80.5 -16.5t66.5 -44.5t44.5 -66.5t16.5 -82.5v-305q0 -43 -16.5 -80.5t-44.5 -66t-66.5 -45t-80.5 -16.5t-80.5 16.5t-67 44t-45.5 64.5t-17 77v312zM134 206q0 -23 9.5 -43.5t25.5 -35.5t36.5 -24t43.5 -9t43.5 9.5
t36.5 24.5t25.5 35.5t9.5 43.5v307q0 24 -9 45.5t-24.5 37.5t-36.5 25t-45 9t-45 -9t-36.5 -25.5t-24.5 -37.5t-9 -45v-308z" />
    <glyph glyph-name="afii10033" unicode="&#x41f;" horiz-adv-x="528" 
d="M364 724h61q13 1 29.5 -12.5t15.5 -46.5t-1 -618q0 -20 -13.5 -33.5t-33.5 -13.5q-19 0 -32.5 13.5t-13.5 33.5v585h-21h-207v-585q0 -20 -13.5 -33.5t-32.5 -13.5q-20 0 -33.5 13.5t-13.5 33.5q0 585 0.5 618t14.5 46t32 14z" />
    <glyph glyph-name="afii10034" unicode="&#x420;" horiz-adv-x="502" 
d="M477 531v-53q0 -43 -17 -79t-46 -61t-67 -39t-78 -14q-23 0 -54.5 1t-61.5 7v-246q0 -20 -13.5 -33.5t-33.5 -13.5q-19 0 -33 13.5t-14 32.5v574q0 37 20 58t49.5 31.5t63.5 13t61 2.5q43 0 83.5 -12.5t72 -37t50 -61t18.5 -83.5zM383 531q0 26 -11 44.5t-28.5 31
t-39.5 18.5t-45 6q-24 0 -54 -2.5t-52 -8.5v-231q23 -5 50 -7.5t52 -2.5q23 0 46 5.5t41.5 17.5t29.5 31t11 46v52z" />
    <glyph glyph-name="afii10035" unicode="&#x421;" horiz-adv-x="480" 
d="M355 133q14 15 35 15t33.5 -14.5t12.5 -33.5q0 -17 -11 -29q-30 -34 -70 -52.5t-86 -18.5q-44 0 -81.5 16.5t-66 45t-45 66t-16.5 80.5v309q0 43 16.5 81t45 66t66 44.5t81.5 16.5q54 0 90 -18.5t66 -52.5q12 -13 12 -30q0 -18 -13.5 -32.5t-33.5 -14.5q-16 0 -26.5 8.5
t-22.5 19t-28.5 18.5t-43.5 8q-23 0 -43.5 -8t-36.5 -23.5t-25.5 -36t-9.5 -46.5v-309q0 -20 7.5 -40t22.5 -36.5t36 -27t49 -10.5t51 13t35 26z" />
    <glyph glyph-name="afii10036" unicode="&#x422;" horiz-adv-x="460" 
d="M276 631v-584q0 -20 -13.5 -33.5t-33.5 -13.5q-19 0 -33 13.5t-14 33.5v584h-114q-19 0 -33 14t-14 33q0 20 14 33.5t33 13.5h324q19 0 33 -13.5t14 -33.5q0 -19 -14 -33t-33 -14h-116z" />
    <glyph glyph-name="afii10037" unicode="&#x423;" horiz-adv-x="517" 
d="M455 211q0 -42 -10 -80t-34 -66.5t-65 -45.5t-103 -17q-46 0 -87.5 20.5t-70.5 55.5q-11 15 -11 30q0 18 14 32.5t33 14.5q22 0 36 -17q16 -21 39.5 -31.5t48.5 -10.5q35 0 57.5 6.5t35.5 20.5t18 36t5 52v89q-30 -7 -61 -8.5t-55 -1.5q-40 0 -77.5 14t-66.5 39
t-46.5 60.5t-17.5 78.5v199q0 20 14 33.5t33 13.5q20 0 33.5 -13.5t13.5 -33.5v-198q0 -26 11 -45t29 -31t40.5 -18t45.5 -6q13 0 28.5 1t29.5 2.5t26 3.5t20 3v289q0 20 13.5 33.5t33.5 13.5q19 0 33 -13.5t14 -33.5v-471z" />
    <glyph glyph-name="afii10038" unicode="&#x424;" horiz-adv-x="718" 
d="M362 699q12 7 34 14.5t64 9.5q41 0 78.5 -14t66.5 -39.5t46 -61.5t17 -79v-167q0 -33 -12 -66.5t-36.5 -60.5t-62 -44t-88.5 -17q-14 0 -29.5 1t-32.5 3v-128q0 -20 -13.5 -33.5t-32.5 -13.5q-20 0 -33.5 13.5t-13.5 33.5v128q-17 -2 -33 -3t-30 -1q-53 0 -90.5 17
t-61.5 44t-35 60.5t-11 66.5v167q0 43 17 79t46 61.5t66.5 39.5t78.5 14q42 -2 64 -9.5t37 -14.5zM147 362q0 -24 9 -42t24 -30t33 -18.5t36 -6.5q21 0 34 1t19.5 2.5t8.5 2.5l3 2v345q-18 5 -33.5 7t-29.5 2q-52 0 -78 -28t-26 -70v-167zM574 529q0 42 -26 70t-78 28
q-14 0 -29.5 -2t-33.5 -7v-345l2 -2q3 -1 9.5 -2.5t19.5 -2.5t34 -1q18 0 36 6.5t33 18.5t24 30t9 42v167z" />
    <glyph glyph-name="afii10039" unicode="&#x425;" horiz-adv-x="496" 
d="M447 68q2 -6 3.5 -11t1.5 -10q0 -18 -12.5 -32.5t-34.5 -14.5q-13 0 -24.5 6.5t-17.5 19.5l-117 233l-117 -233q-6 -13 -17.5 -19.5t-25.5 -6.5q-21 0 -33.5 14.5t-12.5 32.5q0 11 5 21l149 295l-149 296q-5 9 -5 21q0 18 13 32.5t33 14.5q14 0 25.5 -7t17.5 -19
l117 -233l117 233q6 12 17.5 19t24.5 7q22 0 34.5 -14.5t12.5 -32.5q0 -12 -5 -21l-149 -296z" />
    <glyph glyph-name="afii10040" unicode="&#x426;" horiz-adv-x="532" 
d="M102 0q-18 1 -32 14t-15 46v618q0 20 13.5 33.5t33.5 13.5q19 0 32.5 -13.5t13.5 -33.5v-585h228v585q0 20 13.5 33.5t32.5 13.5q20 0 33.5 -13.5t13.5 -33.5l1 -593h14q21 0 34.5 -13t13.5 -34q0 -3 -0.5 -5.5t-1.5 -5.5l-21 -78q-5 -16 -17 -25t-27 -9q-21 0 -34.5 13
t-13.5 33q0 4 0.5 6.5t0.5 5.5l10 28z" />
    <glyph glyph-name="afii10041" unicode="&#x427;" horiz-adv-x="520" 
d="M457 45q0 -20 -14 -33.5t-34 -13.5q-19 0 -32.5 13.5t-13.5 33.5v264q-32 -7 -62.5 -8t-53.5 -1q-41 0 -78.5 14t-66.5 39.5t-46 61t-17 79.5v181q0 19 13.5 32.5t33.5 13.5t33.5 -13.5t13.5 -32.5v-181q0 -26 10.5 -44.5t27.5 -30.5t39 -18.5t45 -6.5q24 0 54 3t54 8
v270q0 21 13.5 33.5t32.5 12.5q20 0 34 -12.5t14 -33.5v-630z" />
    <glyph glyph-name="afii10042" unicode="&#x428;" horiz-adv-x="712" 
d="M102 0q-18 1 -32 14t-14.5 46t-0.5 618q0 20 13.5 33.5t33.5 13.5q19 0 32.5 -13.5t13.5 -33.5v-585h164v585q0 19 14 33t33 14q20 0 33.5 -14t13.5 -33v-585h162v585q0 20 13.5 33.5t32.5 13.5q20 0 33.5 -13.5t13.5 -33.5q0 -585 1 -618t-15.5 -46.5t-29.5 -12.5h-61z
" />
    <glyph glyph-name="afii10043" unicode="&#x429;" horiz-adv-x="722" 
d="M102 0q-18 1 -32 14t-15 46v618q0 20 13.5 33.5t33.5 13.5q19 0 32.5 -13.5t13.5 -33.5v-585h164v585q0 19 14 33t33 14q20 0 33.5 -14t13.5 -33v-585h162v585q0 20 13.5 33.5t32.5 13.5q20 0 33.5 -13.5t13.5 -33.5v-595q8 2 13 2h6q19 0 30.5 -14.5t11.5 -32.5
q0 -3 -0.5 -5.5t-1.5 -5.5l-21 -78q-5 -16 -17 -25t-27 -9h-7q-18 0 -29.5 15t-11.5 31q0 4 0.5 6.5t0.5 5.5l7 28z" />
    <glyph glyph-name="afii10044" unicode="&#x42a;" horiz-adv-x="502" 
d="M477 194q0 -47 -18.5 -83.5t-50 -61t-72 -37t-83.5 -12.5q-27 0 -61 2.5t-63.5 13t-49.5 31.5t-20 58v524h-14q-19 0 -33 14t-14 34q0 19 14 33t33 14h49q6 1 12 1q20 0 33.5 -13.5t13.5 -33.5v-246q30 6 61.5 7t54.5 1q40 0 78 -14t67 -39t46 -61t17 -79v-53zM383 246
q0 27 -11 46t-29.5 31t-41.5 17.5t-46 5.5q-25 0 -52 -2.5t-50 -7.5v-231q22 -6 52 -8.5t54 -2.5q23 0 45 6t39.5 18.5t28.5 31t11 44.5v52z" />
    <glyph glyph-name="afii10045" unicode="&#x42b;" horiz-adv-x="670" 
d="M477 194q0 -47 -18.5 -83.5t-50 -61t-72 -37t-83.5 -12.5q-27 0 -61 2.5t-63.5 13t-49.5 31.5t-20 58v574q0 19 14 32.5t33 13.5q20 0 33.5 -13.5t13.5 -33.5v-246q30 6 61.5 7t54.5 1q40 0 78 -14t67 -39t46 -61t17 -79v-53zM383 246q0 27 -11 46t-29.5 31t-41.5 17.5
t-46 5.5q-25 0 -52 -2.5t-50 -7.5v-231q22 -6 52 -8.5t54 -2.5q23 0 45 6t39.5 18.5t28.5 31t11 44.5v52zM519 678q0 19 14 33t33 14q20 0 33.5 -14t13.5 -33v-630q0 -20 -13.5 -33.5t-33.5 -13.5q-19 0 -33 13.5t-14 33.5v630z" />
    <glyph glyph-name="afii10046" unicode="&#x42c;" horiz-adv-x="502" 
d="M477 194q0 -47 -18.5 -83.5t-50 -61t-72 -37t-83.5 -12.5q-27 0 -61 2.5t-63.5 13t-49.5 31.5t-20 58v574q0 19 14 32.5t33 13.5q20 0 33.5 -13.5t13.5 -33.5v-246q30 6 61.5 7t54.5 1q40 0 78 -14t67 -39t46 -61t17 -79v-53zM383 246q0 27 -11 46t-29.5 31t-41.5 17.5
t-46 5.5q-25 0 -52 -2.5t-50 -7.5v-231q22 -6 52 -8.5t54 -2.5q23 0 45 6t39.5 18.5t28.5 31t11 44.5v52z" />
    <glyph glyph-name="afii10047" unicode="&#x42d;" horiz-adv-x="464" 
d="M108 133q12 -13 35 -26t51 -13t49 10.5t36 27t22.5 36.5t7.5 40v103h-188q-20 0 -34 14t-14 33q0 20 14 33.5t34 13.5h188v112q0 26 -9.5 46.5t-25.5 36t-36.5 23.5t-43.5 8q-27 0 -43.5 -8t-28.5 -18.5t-22.5 -19t-26.5 -8.5q-20 0 -33.5 14.5t-13.5 32.5q0 17 12 30
q30 34 66 52.5t90 18.5q44 0 81.5 -16.5t66 -44.5t45 -66t16.5 -81v-309q0 -43 -16.5 -80.5t-45 -66t-66 -45t-81.5 -16.5q-46 0 -86 18.5t-70 52.5q-11 12 -11 29q0 19 12.5 33.5t33.5 14.5t35 -15z" />
    <glyph glyph-name="afii10048" unicode="&#x42e;" horiz-adv-x="714" 
d="M59 678q0 19 14 33t33 14q20 0 33.5 -14t13.5 -33v-239h89v75q0 44 15 82t43 66.5t66.5 44.5t85.5 16q42 0 80.5 -16.5t66.5 -44.5t44.5 -66.5t16.5 -82.5v-305q0 -43 -16.5 -80.5t-44.5 -66t-66.5 -45t-80.5 -16.5t-80.5 16.5t-67 44t-45.5 64.5t-17 77v142h-89v-296
q0 -20 -13.5 -33.5t-33.5 -13.5q-19 0 -33 13.5t-14 33.5v630zM336 206q0 -23 9.5 -43.5t25.5 -35.5t36.5 -24t43.5 -9t43.5 9.5t36.5 24.5t25.5 35.5t9.5 43.5v307q0 24 -9 45.5t-24.5 37.5t-36.5 25t-45 9t-45 -9t-36.5 -25.5t-24.5 -37.5t-9 -45v-308z" />
    <glyph glyph-name="afii10049" unicode="&#x42f;" horiz-adv-x="519" 
d="M384 380v241q-6 2 -18 4.5t-27.5 3.5l-31 2t-27.5 1q-23 0 -45.5 -5.5t-40 -18t-29 -31.5t-11.5 -45v-52q0 -23 9.5 -41.5t25.5 -31.5t37 -20t42 -7h116zM268 286q-21 0 -41.5 -6.5t-36.5 -19.5t-26 -31.5t-10 -41.5v-139q0 -20 -13.5 -33.5t-33.5 -13.5q-19 0 -33 13.5
t-14 33.5v139q0 46 19.5 83.5t51.5 62.5q-32 26 -51 62.5t-19 83.5v53q0 43 17 78.5t45.5 61.5t66.5 40t78 14q30 0 66 -2.5t68 -12.5t54 -31t22 -59v-573q0 -20 -14 -33.5t-33 -13.5q-20 0 -33.5 13.5t-13.5 33.5v238h-116z" />
    <glyph glyph-name="afii10065" unicode="&#x430;" horiz-adv-x="500" 
d="M363 379q-3 18 -9 33t-18.5 25t-33.5 15.5t-53 5.5q-28 -2 -49.5 -11.5t-38.5 -29.5q-15 -18 -36 -18q-19 0 -33 14.5t-14 32.5q0 8 2.5 16t8.5 14q33 37 74.5 56t91.5 19q55 0 93.5 -16t63 -44t36 -65.5t11.5 -81.5v-239q0 -26 -11 -44t-28.5 -29.5t-40 -18t-46.5 -9.5
t-46 -3.5t-41 -0.5q-40 0 -77 14.5t-65.5 40.5t-45.5 61.5t-17 77.5q0 39 17.5 73t47 58.5t67.5 39t78 14.5h112zM365 285h-114q-21 0 -41 -6.5t-36 -18.5t-27 -29t-12 -37q0 -26 11 -44.5t28.5 -31t40 -18.5t44.5 -6q24 0 53.5 2.5t52.5 8.5v180z" />
    <glyph glyph-name="afii10066" unicode="&#x431;" horiz-adv-x="531" 
d="M272 725q25 1 40 8q17 8 29 18.5t22.5 19t26.5 8.5q20 0 33.5 -14.5t13.5 -32.5q0 -17 -12 -30q-30 -34 -66 -52q-35 -18 -87 -19h-5q-23 0 -43.5 -8t-36.5 -23.5t-25.5 -36t-9.5 -46.5v-3q16 11 35 19q38 17 81 17t81.5 -16.5t67 -44.5t44.5 -66.5t16 -82.5v-130
q0 -43 -16 -81.5t-44.5 -67t-67 -45t-81.5 -16.5t-68 10.5t-36 17.5q-24 14 -48 38q-20 20 -35 50q-4 5 -7 11q-16 38 -16 81v309q0 43 16.5 81t45 66t66 44.5t81.5 16.5h5zM153 210q0 -24 9 -45t24.5 -37t36.5 -25t45 -9q23 0 43.5 9t37 25t26 37t9.5 45v131
q0 25 -9.5 46.5t-25 37t-36.5 23.5t-45 8q-23 0 -43.5 -8t-36.5 -23.5t-25.5 -37t-9.5 -47.5v-130z" />
    <glyph glyph-name="afii10067" unicode="&#x432;" horiz-adv-x="507" 
d="M64 504q0 20 14 34t34 14h162q41 0 77.5 -12t63.5 -33t43 -51t16 -66q0 -16 -6 -32.5t-16 -31.5t-22 -27.5t-25 -20.5q13 -9 25 -22t22 -28.5t16 -32.5t6 -33q0 -36 -16.5 -66t-44 -51t-64 -33t-75.5 -12h-163q-19 1 -33 16t-14 34v454zM158 229v-133h116q46 0 71.5 20.5
t25.5 45.5q0 17 -10 29.5t-24.5 21t-31.5 12.5t-31 4h-116zM274 327q14 0 31 3.5t31.5 11t24.5 19.5t10 29q0 25 -25.5 45.5t-71.5 20.5h-116v-129h116z" />
    <glyph glyph-name="afii10068" unicode="&#x433;" horiz-adv-x="451" 
d="M169 458q-10 0 -12.5 -1.5t-2.5 -3.5v-406q0 -20 -13.5 -33.5t-32.5 -13.5q-20 0 -33.5 13.5t-13.5 33.5v406q0 21 2.5 39.5t14 31.5t32.5 20.5t59 7.5h223q20 0 33.5 -13.5t13.5 -34.5q0 -19 -13.5 -32.5t-33.5 -13.5h-223z" />
    <glyph glyph-name="afii10069" unicode="&#x434;" horiz-adv-x="514" 
d="M362 105v345q-22 5 -50.5 7.5t-52.5 2.5h-12q-22 0 -42.5 -7t-36.5 -20t-25.5 -31.5t-9.5 -40.5v-167q0 -24 9.5 -42.5t25.5 -31.5t36.5 -19.5t42.5 -6.5h10q25 0 54 2.5t51 8.5zM456 37q0 -40 -8.5 -76.5t-32.5 -66.5q-25 -30 -65 -47.5t-103 -17.5q-26 0 -50 6.5
t-44.5 17t-37 24t-28.5 27.5q-6 7 -9 15t-3 15q0 22 18 36q6 6 14 8.5t16 2.5q22 0 36 -16q4 -6 12 -13t19.5 -13.5t26 -11t30.5 -4.5q38 0 60.5 8t34.5 22q9 10 13.5 24.5t5.5 31.5q-30 -7 -60.5 -8t-53.5 -1q-41 0 -78.5 14t-66.5 39.5t-46 61t-17 79.5v167q0 45 17 80.5
t46 60.5t66.5 38.5t78.5 13.5q17 0 39.5 -0.5t45.5 -4t45.5 -9.5t40 -17.5t28 -29t10.5 -41.5v-415z" />
    <glyph glyph-name="afii10070" unicode="&#x435;" horiz-adv-x="508" 
d="M155 323h96h63.5h37.5h19.5h8.5h5q0 28 -8.5 52t-23 42t-36 28.5t-47.5 10.5q-25 0 -45.5 -9t-36.5 -24.5t-24.5 -36.5t-8.5 -45v-18zM355 132q7 8 16 12t19 4q20 0 33.5 -14.5t13.5 -32.5q0 -7 -2 -15t-8 -14q-35 -36 -75 -54t-82 -18q-44 0 -81.5 16t-66.5 44.5
t-45.5 66.5t-16.5 81v133q0 43 16.5 81t45.5 66.5t66.5 45t81.5 16.5t82 -17t66.5 -47.5t44.5 -72t16 -89.5q0 -44 -26.5 -69.5t-72.5 -25.5h-225v-21q0 -23 9 -44t25 -36.5t36.5 -24.5t44.5 -9q33 0 54.5 13t30.5 25z" />
    <glyph glyph-name="afii10072" unicode="&#x436;" horiz-adv-x="662" 
d="M378 48q0 -21 -13.5 -34.5t-32.5 -13.5q-20 0 -34 13.5t-14 34.5v180h-41q-22 0 -42.5 -7t-36 -19.5t-25 -31t-9.5 -41.5v-81q0 -21 -13.5 -34.5t-33.5 -13.5t-33.5 13.5t-13.5 34.5v81q0 32 10 60t26.5 51t40.5 40t52 27l-120 172q-9 12 -9 26q0 12 5 22t15 17
q12 9 26 9q12 0 22.5 -5t17.5 -15l148 -211h14v183q0 20 14 34t34 14q19 0 32.5 -14t13.5 -34v-183h13l148 211q7 10 17.5 15t22.5 5q14 0 26 -9q10 -7 15 -17t5 -22q0 -14 -9 -26l-120 -172q28 -10 52 -27t40.5 -40t26.5 -51t10 -60v-81q0 -21 -13.5 -34.5t-33.5 -13.5
t-33.5 13.5t-13.5 34.5v81q0 23 -9.5 41.5t-25 31t-36 19.5t-42.5 7h-40v-180z" />
    <glyph glyph-name="afii10073" unicode="&#x437;" horiz-adv-x="527" 
d="M433 278q19 -17 30 -41t11 -58q0 -39 -18 -72t-47.5 -57t-67.5 -37.5t-78 -13.5q-39 0 -73 13t-61.5 35.5t-46.5 53t-26 66.5q0 3 -0.5 5.5t-0.5 4.5q0 20 14 33.5t34 13.5q17 0 30 -10.5t16 -27.5q8 -40 40.5 -66t73.5 -26q21 0 42 6.5t37.5 17.5t26.5 27t10 34
q0 17 -14 28.5t-37 19.5v1q-8 0 -16.5 2t-13.5 2t-10 -1t-10 -1q-20 0 -34.5 14t-14.5 34q0 19 12 33t31 17h1q6 1 12.5 1h12.5h15.5t15.5 -2q22 8 36 20t14 29q0 18 -10.5 34t-27 27t-37 17.5t-41.5 6.5v1q-41 0 -73.5 -26.5t-40.5 -67.5q-3 -17 -16.5 -27t-30.5 -10
q-20 0 -33.5 14t-13.5 32q0 3 0.5 5.5t0.5 4.5q7 36 26.5 67t47 53.5t61.5 35.5t72 13q41 0 79 -14t67.5 -38t47 -57t17.5 -71q0 -34 -11 -57.5t-30 -40.5z" />
    <glyph glyph-name="afii10074" unicode="&#x438;" horiz-adv-x="541" 
d="M382 509q0 19 13.5 32.5t33.5 13.5t34 -13.5t14 -32.5v-404q0 -39 -23 -60t-56 -31t-69 -11.5t-62 -1.5q-42 0 -79.5 14t-66 39.5t-45.5 61.5t-17 79v311q0 21 13.5 34.5t33.5 13.5q19 0 32.5 -13.5t13.5 -34.5v-311q0 -26 12 -45t30 -31t41.5 -18t47.5 -6q13 0 27.5 1
t28 2.5t25 3.5t18.5 3v404z" />
    <glyph glyph-name="afii10075" unicode="&#x439;" horiz-adv-x="541" 
d="M272 666q24 0 44.5 8t32.5 27q12 14 32 14q15 0 27 -9q14 -12 14 -32q0 -16 -11 -29q-24 -29 -60.5 -45.5t-78.5 -16.5q-39 0 -75.5 16.5t-61.5 45.5q-11 13 -11 29q0 20 14 32q14 9 27 9q19 0 33 -14q11 -19 31.5 -27t42.5 -8zM382 509q0 19 13.5 32.5t33.5 13.5
t34 -13.5t14 -32.5v-404q0 -39 -23 -60t-56 -31t-69 -11.5t-62 -1.5q-42 0 -79.5 14t-66 39.5t-45.5 61.5t-17 79v311q0 21 13.5 34.5t33.5 13.5q19 0 32.5 -13.5t13.5 -34.5v-311q0 -26 12 -45t30 -31t41.5 -18t47.5 -6q13 0 27.5 1t28 2.5t25 3.5t18.5 3v404z" />
    <glyph glyph-name="afii10076" unicode="&#x43a;" horiz-adv-x="501" 
d="M153 48q0 -21 -13.5 -34.5t-32.5 -13.5q-20 0 -34 13.5t-14 34.5v457q0 20 14 34t34 14q19 0 32.5 -14t13.5 -34v-183h90l148 211q7 10 17.5 15t22.5 5q14 0 26 -9q10 -7 15 -17t5 -22q0 -14 -9 -26l-120 -172q28 -10 52 -27t40.5 -40t26.5 -51t10 -60v-81
q0 -21 -13.5 -34.5t-33.5 -13.5t-33.5 13.5t-13.5 34.5v81q0 23 -9.5 41.5t-25 31t-36 19.5t-42.5 7h-117v-180z" />
    <glyph glyph-name="afii10077" unicode="&#x43b;" horiz-adv-x="542" 
d="M382 451q-7 1 -18.5 3t-25 3.5t-28 2.5t-27.5 1q-24 0 -47.5 -6t-41.5 -18t-30 -31t-12 -45v-311q0 -21 -13.5 -34.5t-32.5 -13.5q-20 0 -33.5 13.5t-13.5 34.5v311q0 43 17 79t45.5 61.5t66 39.5t79.5 14q26 0 62 -1.5t69 -11.5t56 -31t23 -60v-404q0 -19 -14 -32.5
t-34 -13.5t-33.5 13.5t-13.5 32.5v404z" />
    <glyph glyph-name="afii10078" unicode="&#x43c;" horiz-adv-x="529" 
d="M53 504q0 18 14 33.5t34 15.5q15 0 27.5 -8.5t17.5 -22.5l119 -334l116 333q5 15 17.5 23t27.5 8q23 0 34 -14t13 -30v-7v-454q0 -20 -13.5 -33.5t-33.5 -13.5q-19 0 -33 13.5t-14 33.5v182l-69 -197q-5 -15 -18 -23.5t-27 -8.5t-26.5 9t-17.5 22l-74 206v-190
q0 -20 -13.5 -33.5t-33.5 -13.5q-19 0 -33 13.5t-14 33.5v457z" />
    <glyph glyph-name="afii10079" unicode="&#x43d;" horiz-adv-x="537" 
d="M61 507q0 19 13.5 33t32.5 14q20 0 33.5 -14t13.5 -33v-163h229v163q0 19 13.5 33t32.5 14q20 0 33.5 -14t13.5 -33v-460q0 -20 -13.5 -33.5t-33.5 -13.5q-19 0 -32.5 13.5t-13.5 33.5v203h-229v-203q0 -20 -13.5 -33.5t-33.5 -13.5q-19 0 -32.5 13.5t-13.5 33.5v460z
" />
    <glyph glyph-name="afii10080" unicode="&#x43e;" 
d="M39 340q0 44 16.5 82.5t45 66.5t66.5 44.5t81 16.5t81.5 -16.5t67 -44.5t44.5 -66.5t16 -82.5v-130q0 -43 -16 -81.5t-44.5 -67t-67 -45t-81.5 -16.5t-81 16.5t-66.5 45t-45 67t-16.5 81.5v130zM133 210q0 -24 9 -45t24.5 -37t36.5 -25t45 -9q23 0 43.5 9t37 25t26 37
t9.5 45v131q0 25 -9.5 46.5t-25 37t-36.5 23.5t-45 8q-23 0 -43.5 -8t-36.5 -23.5t-25.5 -37t-9.5 -47.5v-130z" />
    <glyph glyph-name="afii10081" unicode="&#x43f;" horiz-adv-x="533" 
d="M155 49q0 -20 -13.5 -33.5t-33.5 -13.5t-34 13.5t-14 33.5v403q0 25 10.5 43t28 29.5t40 18t46 9.5t46 3.5t39.5 0.5q42 0 79.5 -14t66 -39.5t45.5 -61t17 -78.5v-312q0 -20 -13.5 -34t-33.5 -14q-19 0 -32.5 14t-13.5 34v312q0 25 -12 44t-30 31.5t-41.5 18.5t-47.5 6
q-13 0 -27.5 -1t-28 -3t-25 -3.5t-18.5 -3.5v-403z" />
    <glyph glyph-name="afii10082" unicode="&#x440;" horiz-adv-x="519" 
d="M383 362q0 26 -11 44.5t-28.5 31t-39.5 18.5t-45 6q-24 0 -54 -2.5t-52 -8.5v-345q7 -4 19.5 -6t27 -3t29 -1.5t27.5 -0.5q27 0 50.5 6.5t40.5 19t26.5 31t9.5 43.5v167zM477 195q0 -39 -14.5 -74t-43.5 -62t-72.5 -42.5t-101.5 -15.5q-40 0 -92 10v-133
q0 -20 -13.5 -33.5t-32.5 -13.5q-20 0 -34 13t-14 33v574q0 38 23 59.5t55.5 31.5t68.5 12t63 2q41 0 78.5 -14t66.5 -39.5t46 -61t17 -79.5v-167z" />
    <glyph glyph-name="afii10083" unicode="&#x441;" horiz-adv-x="443" 
d="M334 132q14 16 35 16q17 0 30 -10q17 -14 17 -36q0 -18 -12 -32q-29 -34 -69 -52t-87 -18q-43 0 -80.5 16t-66.5 45q-28 29 -44.5 66.5t-16.5 80.5v134q0 44 16.5 81.5t44.5 65.5t65 44.5t80 16.5h2q35 0 60.5 -8t44.5 -19t31.5 -23t19.5 -20q12 -14 12 -31
q0 -9 -4 -18.5t-12 -16.5q-13 -12 -31 -12q-9 0 -18.5 4t-16.5 12l-11.5 11.5t-16 12.5t-23.5 10t-35 4q-23 0 -44 -8.5t-37 -24.5t-25 -37t-9 -44v-134q0 -24 9.5 -44t24.5 -37q16 -16 38 -24.5t45 -8.5t45.5 9t38.5 29z" />
    <glyph glyph-name="afii10084" unicode="&#x442;" horiz-adv-x="849" 
d="M154 47q0 -20 -13.5 -33.5t-33.5 -13.5t-33.5 13.5t-13.5 33.5v403q0 25 10.5 42.5t28 29t40 18.5t45.5 10t46 3.5t40 0.5q38 0 72.5 -11.5t63.5 -34.5q15 17 39 26.5t50 13.5t52 5t46 1q41 0 79 -14t66.5 -40t46 -61.5t17.5 -77.5v-312q0 -20 -13.5 -34t-34.5 -14
q-19 0 -32.5 14t-13.5 34v312q-2 29 -14.5 48t-32 31t-44 16.5t-50.5 4.5q-24 0 -46.5 -3.5t-42.5 -7.5v-403q0 -20 -13.5 -33.5t-33.5 -13.5t-33.5 13.5t-13.5 33.5v320q0 27 -12.5 45t-32.5 29t-45 15.5t-51 4.5q-24 0 -47.5 -3.5t-41.5 -7.5v-403z" />
    <glyph glyph-name="afii10085" unicode="&#x443;" horiz-adv-x="530" 
d="M476 36q0 -48 -12 -86.5t-37.5 -65.5t-65 -42t-94.5 -15q-37 0 -69 11.5t-54.5 28t-35.5 34.5t-13 32q0 18 14 33t33 15q15 0 27.5 -9.5t26 -20.5t31 -20.5t40.5 -9.5q33 0 54.5 6.5t34 18t18 28t7.5 36.5q-30 -7 -60.5 -8t-53.5 -1q-42 0 -79.5 14t-66 39t-45.5 61
t-17 79v314q0 19 13.5 32t33.5 13q19 0 32.5 -13t13.5 -32v-314q0 -26 11 -45t29 -31t40.5 -17.5t46.5 -5.5t52.5 2.5t50.5 7.5v403q0 19 13.5 32t33.5 13t33.5 -13t13.5 -32v-472z" />
    <glyph glyph-name="afii10086" unicode="&#x444;" horiz-adv-x="693" 
d="M347 527q12 7 34 14.5t64 9.5q41 0 78.5 -14t66.5 -39.5t46 -61.5t17 -79v-167q0 -33 -12 -66.5t-36.5 -60.5t-62 -44t-88.5 -17q-14 0 -29.5 1t-32.5 3v-128q0 -20 -13.5 -33.5t-32.5 -13.5q-20 0 -33.5 13.5t-13.5 33.5v128q-17 -2 -33 -3t-30 -1q-53 0 -90.5 17
t-61.5 44t-35 60.5t-11 66.5v167q0 43 17 79t46 61.5t66.5 39.5t78.5 14q42 -2 64 -9.5t37 -14.5zM132 190q0 -24 9 -42t24 -30t33 -18.5t36 -6.5q21 0 34 1t19.5 2.5t8.5 2.5l3 2v345q-18 5 -33.5 7t-29.5 2q-52 0 -78 -28t-26 -70v-167zM559 357q0 42 -26 70t-78 28
q-14 0 -29.5 -2t-33.5 -7v-345l2 -2q3 -1 9.5 -2.5t19.5 -2.5t34 -1q18 0 36 6.5t33 18.5t24 30t9 42v167z" />
    <glyph glyph-name="afii10087" unicode="&#x445;" 
d="M50 478q-9 12 -9 26q0 24 21 39q11 9 26 9q11 0 21.5 -5t17.5 -15l124 -175l123 175q7 10 17.5 15t21.5 5q15 0 27 -9q9 -7 14 -17t5 -22q0 -14 -8 -26l-143 -203l143 -202q8 -12 8 -26q0 -12 -5 -22t-14 -17q-12 -9 -27 -9q-11 0 -21.5 5t-17.5 15l-123 175l-124 -175
q-7 -10 -17.5 -15t-21.5 -5q-15 0 -26 9q-21 15 -21 39q0 14 9 26l143 202z" />
    </font>
</defs>
</svg>
